AnekKannada-ExpandedThin.ufo
<glyph name="zero" format="2">
  <advance width="1485"/>
  <unicode hex="0030"/>
  <outline>
    <contour>
      <point x="742" y="-21" type="curve" smooth="yes"/>
      <point x="1137" y="-21"/>
      <point x="1337" y="216"/>
      <point x="1337" y="627" type="curve"/>
      <point x="1337" y="648" type="line"/>
      <point x="1337" y="1058"/>
      <point x="1137" y="1298"/>
      <point x="742" y="1298" type="curve" smooth="yes"/>
      <point x="348" y="1298"/>
      <point x="148" y="1058"/>
      <point x="148" y="648" type="curve"/>
      <point x="148" y="627" type="line"/>
      <point x="148" y="216"/>
      <point x="348" y="-21"/>
    </contour>
    <contour>
      <point x="742" y="16" type="curve" smooth="yes"/>
      <point x="373" y="16"/>
      <point x="189" y="241"/>
      <point x="189" y="627" type="curve" smooth="yes"/>
      <point x="189" y="648" type="line" smooth="yes"/>
      <point x="189" y="1036"/>
      <point x="373" y="1261"/>
      <point x="742" y="1261" type="curve" smooth="yes"/>
      <point x="1112" y="1261"/>
      <point x="1296" y="1036"/>
      <point x="1296" y="648" type="curve" smooth="yes"/>
      <point x="1296" y="627" type="line" smooth="yes"/>
      <point x="1296" y="241"/>
      <point x="1112" y="16"/>
    </contour>
  </outline>
</glyph>
<glyph name="five" format="2">
  <advance width="1429"/>
  <unicode hex="0035"/>
  <outline>
    <contour>
      <point x="744" y="-16" type="curve" smooth="yes"/>
      <point x="1107" y="-16"/>
      <point x="1297" y="148"/>
      <point x="1297" y="400" type="curve" smooth="yes"/>
      <point x="1297" y="414" type="line" smooth="yes"/>
      <point x="1297" y="667"/>
      <point x="1128" y="813"/>
      <point x="795" y="813" type="curve" smooth="yes"/>
      <point x="513" y="813"/>
      <point x="346" y="706"/>
      <point x="235" y="571" type="curve"/>
      <point x="248" y="569" type="line"/>
      <point x="250" y="857" type="line"/>
      <point x="250" y="1242" type="line"/>
      <point x="1243" y="1242" type="line"/>
      <point x="1243" y="1278" type="line"/>
      <point x="212" y="1278" type="line"/>
      <point x="212" y="549" type="line"/>
      <point x="243" y="542" type="line"/>
      <point x="375" y="699"/>
      <point x="541" y="777"/>
      <point x="797" y="777" type="curve" smooth="yes"/>
      <point x="1103" y="777"/>
      <point x="1256" y="643"/>
      <point x="1256" y="413" type="curve" smooth="yes"/>
      <point x="1256" y="402" type="line" smooth="yes"/>
      <point x="1256" y="164"/>
      <point x="1078" y="21"/>
      <point x="744" y="21" type="curve" smooth="yes"/>
      <point x="497" y="21"/>
      <point x="323" y="84"/>
      <point x="200" y="153" type="curve"/>
      <point x="207" y="109" type="line"/>
      <point x="307" y="53"/>
      <point x="475" y="-16"/>
    </contour>
  </outline>
</glyph>
<glyph name="bracketright" format="2">
  <advance width="788"/>
  <unicode hex="005D"/>
  <outline>
    <contour>
      <point x="92" y="-231" type="line"/>
      <point x="92" y="-197" type="line"/>
      <point x="514" y="-197" type="line"/>
      <point x="514" y="1313" type="line"/>
      <point x="92" y="1313" type="line"/>
      <point x="92" y="1347" type="line"/>
      <point x="552" y="1347" type="line"/>
      <point x="552" y="-231" type="line"/>
    </contour>
  </outline>
</glyph>
<glyph name="underscore" format="2">
  <advance width="1270"/>
  <unicode hex="005F"/>
  <outline>
    <contour>
      <point x="1180" y="-160" type="line"/>
      <point x="1180" y="-128" type="line"/>
      <point x="90" y="-128" type="line"/>
      <point x="90" y="-160" type="line"/>
    </contour>
  </outline>
</glyph>
<glyph name="n" format="2">
  <advance width="1385"/>
  <unicode hex="006E"/>
  <anchor x="693" y="0" name="bottom"/>
  <anchor x="693" y="952" name="top"/>
  <outline>
    <contour>
      <point x="1205" y="0" type="line"/>
      <point x="1205" y="532" type="line" smooth="yes"/>
      <point x="1205" y="799"/>
      <point x="1092" y="977"/>
      <point x="740" y="977" type="curve" smooth="yes"/>
      <point x="425" y="977"/>
      <point x="240" y="787"/>
      <point x="222" y="586" type="curve"/>
      <point x="213" y="586" type="line"/>
      <point x="229" y="557" type="line"/>
      <point x="261" y="774"/>
      <point x="453" y="943"/>
      <point x="735" y="943" type="curve" smooth="yes"/>
      <point x="1055" y="943"/>
      <point x="1167" y="781"/>
      <point x="1167" y="523" type="curve" smooth="yes"/>
      <point x="1167" y="0" type="line"/>
    </contour>
    <contour>
      <point x="240" y="0" type="line"/>
      <point x="240" y="632" type="line"/>
      <point x="236" y="632" type="line"/>
      <point x="240" y="952" type="line"/>
      <point x="202" y="952" type="line"/>
      <point x="202" y="0" type="line"/>
    </contour>
  </outline>
</glyph>
<glyph name="q" format="2">
  <advance width="1441"/>
  <unicode hex="0071"/>
  <anchor x="721" y="0" name="bottom"/>
  <anchor x="721" y="952" name="top"/>
  <outline>
    <contour>
      <point x="676" y="-25" type="curve" smooth="yes"/>
      <point x="998" y="-25"/>
      <point x="1201" y="166"/>
      <point x="1219" y="370" type="curve"/>
      <point x="1230" y="370" type="line"/>
      <point x="1212" y="399" type="line"/>
      <point x="1178" y="180"/>
      <point x="966" y="9"/>
      <point x="681" y="9" type="curve" smooth="yes"/>
      <point x="357" y="9"/>
      <point x="172" y="166"/>
      <point x="172" y="463" type="curve" smooth="yes"/>
      <point x="172" y="488" type="line" smooth="yes"/>
      <point x="172" y="785"/>
      <point x="357" y="943"/>
      <point x="678" y="943" type="curve" smooth="yes"/>
      <point x="941" y="943"/>
      <point x="1187" y="817"/>
      <point x="1205" y="530" type="curve"/>
      <point x="1224" y="557" type="line"/>
      <point x="1214" y="557" type="line"/>
      <point x="1214" y="822"/>
      <point x="975" y="977"/>
      <point x="681" y="977" type="curve" smooth="yes"/>
      <point x="330" y="977"/>
      <point x="134" y="810"/>
      <point x="134" y="490" type="curve" smooth="yes"/>
      <point x="134" y="461" type="line" smooth="yes"/>
      <point x="134" y="144"/>
      <point x="331" y="-25"/>
    </contour>
    <contour>
      <point x="1239" y="-338" type="line"/>
      <point x="1239" y="952" type="line"/>
      <point x="1201" y="952" type="line"/>
      <point x="1206" y="625" type="line"/>
      <point x="1205" y="611" type="line"/>
      <point x="1205" y="342" type="line"/>
      <point x="1206" y="322" type="line"/>
      <point x="1201" y="0" type="line"/>
      <point x="1201" y="-338" type="line"/>
    </contour>
  </outline>
</glyph>
<glyph name="asciitilde" format="2">
  <advance width="1376"/>
  <unicode hex="007E"/>
  <outline>
    <contour>
      <point x="979" y="428" type="curve" smooth="yes"/>
      <point x="1124" y="428"/>
      <point x="1191" y="505"/>
      <point x="1191" y="674" type="curve" smooth="yes"/>
      <point x="1191" y="693" type="line"/>
      <point x="1159" y="693" type="line"/>
      <point x="1159" y="677" type="line" smooth="yes"/>
      <point x="1159" y="531"/>
      <point x="1102" y="463"/>
      <point x="977" y="463" type="curve" smooth="yes"/>
      <point x="792" y="463"/>
      <point x="593" y="662"/>
      <point x="398" y="662" type="curve" smooth="yes"/>
      <point x="252" y="662"/>
      <point x="185" y="584"/>
      <point x="185" y="413" type="curve" smooth="yes"/>
      <point x="185" y="397" type="line"/>
      <point x="218" y="397" type="line"/>
      <point x="218" y="413" type="line" smooth="yes"/>
      <point x="218" y="559"/>
      <point x="275" y="627"/>
      <point x="399" y="627" type="curve" smooth="yes"/>
      <point x="582" y="627"/>
      <point x="780" y="428"/>
    </contour>
  </outline>
</glyph>
<glyph name="Candrabindu" format="2">
  <unicode hex="0C81"/>
  <unicode hex="0D01"/>
  <outline>
    <contour>
      <point x="-1014" y="1392" type="curve" smooth="yes"/>
      <point x="-1239" y="1392"/>
      <point x="-1385" y="1500"/>
      <point x="-1385" y="1702" type="curve" smooth="yes"/>
      <point x="-1385" y="1718" type="line"/>
      <point x="-1420" y="1718" type="line"/>
      <point x="-1420" y="1700" type="line" smooth="yes"/>
      <point x="-1420" y="1486"/>
      <point x="-1269" y="1360"/>
      <point x="-1014" y="1360" type="curve" smooth="yes"/>
      <point x="-759" y="1360"/>
      <point x="-607" y="1486"/>
      <point x="-607" y="1700" type="curve" smooth="yes"/>
      <point x="-607" y="1718" type="line"/>
      <point x="-643" y="1718" type="line"/>
      <point x="-643" y="1702" type="line" smooth="yes"/>
      <point x="-643" y="1500"/>
      <point x="-789" y="1392"/>
    </contour>
    <contour>
      <point x="-1070" y="1725" type="line" smooth="yes"/>
      <point x="-1070" y="1688"/>
      <point x="-1050" y="1665"/>
      <point x="-1010" y="1665" type="curve" smooth="yes"/>
      <point x="-970" y="1665"/>
      <point x="-949" y="1688"/>
      <point x="-949" y="1725" type="curve" smooth="yes"/>
      <point x="-949" y="1728" type="line" smooth="yes"/>
      <point x="-949" y="1767"/>
      <point x="-970" y="1790"/>
      <point x="-1010" y="1790" type="curve" smooth="yes"/>
      <point x="-1050" y="1790"/>
      <point x="-1070" y="1767"/>
      <point x="-1070" y="1728" type="curve" smooth="yes"/>
    </contour>
  </outline>
</glyph>
<glyph name="vowelII.kn" format="2">
  <advance width="2347"/>
  <unicode hex="0C88"/>
  <outline>
    <contour>
      <point x="700" y="1108" type="line"/>
      <point x="700" y="1086" type="line"/>
      <point x="427.596" y="1034.1"/>
      <point x="287" y="841.448"/>
      <point x="287" y="551" type="curve" smooth="yes"/>
      <point x="287" y="539" type="line" smooth="yes"/>
      <point x="287" y="163"/>
      <point x="517" y="-34"/>
      <point x="959" y="-34" type="curve" smooth="yes"/>
      <point x="1401" y="-34"/>
      <point x="1631" y="163"/>
      <point x="1631" y="539" type="curve" smooth="yes"/>
      <point x="1631" y="551" type="line" smooth="yes"/>
      <point x="1631" y="841.448"/>
      <point x="1490.4" y="1034.1"/>
      <point x="1218" y="1086" type="curve"/>
      <point x="1218" y="1108" type="line"/>
    </contour>
    <contour>
      <point x="959" y="2" type="curve" smooth="yes"/>
      <point x="542" y="2"/>
      <point x="325" y="186.656"/>
      <point x="325" y="539" type="curve" smooth="yes"/>
      <point x="325" y="551" type="line" smooth="yes"/>
      <point x="325" y="906.34"/>
      <point x="542" y="1089"/>
      <point x="959" y="1089" type="curve" smooth="yes"/>
      <point x="1376" y="1089"/>
      <point x="1593" y="906.34"/>
      <point x="1593" y="551" type="curve" smooth="yes"/>
      <point x="1593" y="539" type="line" smooth="yes"/>
      <point x="1593" y="186.656"/>
      <point x="1376" y="2"/>
    </contour>
    <contour>
      <point x="1284" y="1089" type="line"/>
      <point x="1284" y="1122" type="line"/>
      <point x="277" y="1122" type="line"/>
      <point x="277" y="1089" type="line"/>
    </contour>
    <contour>
      <point x="2154" y="254" type="line" smooth="yes"/>
      <point x="2154" y="95.636"/>
      <point x="2063" y="5"/>
      <point x="1893" y="5" type="curve" smooth="yes"/>
      <point x="1819" y="5"/>
      <point x="1742" y="22"/>
      <point x="1696" y="44" type="curve"/>
      <point x="1701" y="5" type="line"/>
      <point x="1747" y="-14"/>
      <point x="1822" y="-30"/>
      <point x="1894" y="-30" type="curve" smooth="yes"/>
      <point x="2089" y="-30"/>
      <point x="2192" y="74"/>
      <point x="2192" y="254" type="curve" smooth="yes"/>
      <point x="2192" y="259" type="line" smooth="yes"/>
      <point x="2192" y="421.409"/>
      <point x="2107" y="511.083"/>
      <point x="2004" y="534" type="curve"/>
      <point x="2004" y="547" type="line"/>
      <point x="1820" y="547" type="line"/>
      <point x="1820" y="535" type="line"/>
      <point x="1842" y="535" type="line" smooth="yes"/>
      <point x="2043" y="535"/>
      <point x="2154" y="449.31"/>
      <point x="2154" y="259" type="curve" smooth="yes"/>
    </contour>
    <contour>
      <point x="1985" y="535" type="line"/>
      <point x="2055" y="535" type="line" smooth="yes"/>
      <point x="2109" y="535"/>
      <point x="2130" y="563.311"/>
      <point x="2130" y="626" type="curve" smooth="yes"/>
      <point x="2130" y="727"/>
      <point x="2106" y="934"/>
      <point x="2085" y="1015" type="curve"/>
      <point x="2055" y="1015" type="line"/>
      <point x="2055" y="567" type="line"/>
      <point x="1613" y="567" type="line"/>
      <point x="1611" y="567" type="line"/>
      <point x="314" y="567" type="line"/>
      <point x="299" y="567" type="line"/>
      <point x="55" y="567" type="line"/>
      <point x="55" y="535" type="line"/>
      <point x="299" y="535" type="line"/>
      <point x="314" y="535" type="line"/>
      <point x="1611" y="535" type="line"/>
      <point x="1613" y="535" type="line"/>
      <point x="1972" y="535" type="line"/>
    </contour>
    <contour>
      <point x="1522" y="1558" type="line"/>
      <point x="1583" y="1484.4"/>
      <point x="1615" y="1398.7"/>
      <point x="1615" y="1312" type="curve" smooth="yes"/>
      <point x="1615" y="1178.57"/>
      <point x="1547" y="1122"/>
      <point x="1406" y="1122" type="curve" smooth="yes"/>
      <point x="1262" y="1122" type="line"/>
      <point x="1262" y="1089" type="line"/>
      <point x="1411" y="1089" type="line" smooth="yes"/>
      <point x="1571" y="1089"/>
      <point x="1651" y="1159.09"/>
      <point x="1651" y="1312" type="curve" smooth="yes"/>
      <point x="1651" y="1398.7"/>
      <point x="1619" y="1486.42"/>
      <point x="1561" y="1558" type="curve"/>
    </contour>
  </outline>
  <guideline angle="90" x="6486" y="0"/>
  <guideline angle="90" x="2011" y="0"/>
  <guideline angle="0" x="0" y="988"/>
</glyph>
<glyph name="vowelO.kn" format="2">
  <advance width="2044"/>
  <unicode hex="0C92"/>
  <outline>
    <contour>
      <point x="1762" y="597" type="line"/>
      <point x="1824" y="520"/>
      <point x="1857" y="431"/>
      <point x="1857" y="334" type="curve" smooth="yes"/>
      <point x="1857" y="329" type="line" smooth="yes"/>
      <point x="1857" y="130.612"/>
      <point x="1729" y="5"/>
      <point x="1485" y="5" type="curve" smooth="yes"/>
      <point x="1209" y="5"/>
      <point x="1071.73" y="139.666"/>
      <point x="1063" y="419" type="curve" smooth="yes"/>
      <point x="1062" y="451" type="line"/>
      <point x="1037" y="451" type="line"/>
      <point x="1043" y="334" type="line" smooth="yes"/>
      <point x="1058" y="113"/>
      <point x="1198" y="-30"/>
      <point x="1486" y="-30" type="curve" smooth="yes"/>
      <point x="1756" y="-30"/>
      <point x="1895" y="108"/>
      <point x="1895" y="329" type="curve" smooth="yes"/>
      <point x="1895" y="333" type="line" smooth="yes"/>
      <point x="1895" y="434"/>
      <point x="1863" y="522"/>
      <point x="1803" y="597" type="curve"/>
    </contour>
    <contour>
      <point x="614" y="1157" type="curve" smooth="yes"/>
      <point x="337" y="1157"/>
      <point x="188" y="1042"/>
      <point x="188" y="822" type="curve" smooth="yes"/>
      <point x="188" y="819" type="line" smooth="yes"/>
      <point x="188" y="754"/>
      <point x="202" y="694"/>
      <point x="230" y="639" type="curve"/>
      <point x="271" y="639" type="line"/>
      <point x="241" y="696"/>
      <point x="226" y="757"/>
      <point x="226" y="819" type="curve" smooth="yes"/>
      <point x="226" y="822" type="line" smooth="yes"/>
      <point x="226" y="1019.34"/>
      <point x="360" y="1122"/>
      <point x="613" y="1122" type="curve" smooth="yes"/>
      <point x="853" y="1122"/>
      <point x="983" y="1037.34"/>
      <point x="983" y="875" type="curve" smooth="yes"/>
      <point x="983" y="869" type="line" smooth="yes"/>
      <point x="983" y="740.5"/>
      <point x="902.878" y="675.198"/>
      <point x="674" y="612" type="curve" smooth="yes"/>
      <point x="540" y="575" type="line" smooth="yes"/>
      <point x="256.973" y="496.851"/>
      <point x="155" y="422.519"/>
      <point x="155" y="258" type="curve" smooth="yes"/>
      <point x="155" y="251" type="line" smooth="yes"/>
      <point x="155" y="74"/>
      <point x="302" y="-30"/>
      <point x="582" y="-30" type="curve" smooth="yes"/>
      <point x="881" y="-30"/>
      <point x="1022" y="108"/>
      <point x="1042" y="323" type="curve"/>
      <point x="1053" y="323" type="line"/>
      <point x="1053" y="451" type="line"/>
      <point x="1024" y="451" type="line"/>
      <point x="1023" y="419" type="line" smooth="yes"/>
      <point x="1014.27" y="139.666"/>
      <point x="875" y="5"/>
      <point x="583" y="5" type="curve" smooth="yes"/>
      <point x="328" y="5"/>
      <point x="193" y="96.6275"/>
      <point x="193" y="251" type="curve" smooth="yes"/>
      <point x="193" y="258" type="line" smooth="yes"/>
      <point x="193" y="401"/>
      <point x="291" y="469"/>
      <point x="549" y="541" type="curve" smooth="yes"/>
      <point x="686" y="579" type="line" smooth="yes"/>
      <point x="933" y="648"/>
      <point x="1021" y="723"/>
      <point x="1021" y="870" type="curve" smooth="yes"/>
      <point x="1021" y="875" type="line" smooth="yes"/>
      <point x="1021" y="1059"/>
      <point x="878" y="1157"/>
    </contour>
  </outline>
  <guideline angle="0" x="0" y="2676"/>
</glyph>
<glyph name="vowelOo.kn" format="2">
  <advance width="2044"/>
  <unicode hex="0C93"/>
  <outline>
    <component base="vowelO.kn"/>
    <contour>
      <point x="793" y="1623" type="curve" smooth="yes"/>
      <point x="532" y="1623"/>
      <point x="391" y="1528"/>
      <point x="391" y="1356" type="curve" smooth="yes"/>
      <point x="391" y="1351" type="line" smooth="yes"/>
      <point x="391" y="1247"/>
      <point x="456" y="1154"/>
      <point x="598" y="1143" type="curve"/>
      <point x="639" y="1154" type="line"/>
      <point x="496" y="1172"/>
      <point x="429" y="1248"/>
      <point x="429" y="1350" type="curve" smooth="yes"/>
      <point x="429" y="1356" type="line" smooth="yes"/>
      <point x="429" y="1505.36"/>
      <point x="557" y="1588"/>
      <point x="794" y="1588" type="curve" smooth="yes"/>
      <point x="1029" y="1588"/>
      <point x="1156" y="1503.35"/>
      <point x="1156" y="1348" type="curve"/>
      <point x="1156" y="1346" type="line"/>
      <point x="1156" y="1319"/>
      <point x="1153" y="1290"/>
      <point x="1147" y="1263" type="curve"/>
      <point x="1184" y="1263" type="line"/>
      <point x="1191" y="1289"/>
      <point x="1194" y="1319"/>
      <point x="1194" y="1346" type="curve"/>
      <point x="1194" y="1348" type="line"/>
      <point x="1194" y="1526"/>
      <point x="1054" y="1623"/>
    </contour>
  </outline>
</glyph>
<glyph name="vowelAu.kn" format="2">
  <advance width="2114"/>
  <unicode hex="0C94"/>
  <outline>
    <contour>
      <point x="1857" y="350" type="curve"/>
      <point x="1857" y="349" type="line"/>
      <point x="1857" y="138.612"/>
      <point x="1729" y="5"/>
      <point x="1485" y="5" type="curve" smooth="yes"/>
      <point x="1209" y="5"/>
      <point x="1062.5" y="139.666"/>
      <point x="1062.5" y="419" type="curve" smooth="yes"/>
      <point x="1062.5" y="451" type="line"/>
      <point x="1029" y="451" type="line"/>
      <point x="1043" y="334" type="line"/>
      <point x="1058" y="113"/>
      <point x="1198" y="-30"/>
      <point x="1486" y="-30" type="curve" smooth="yes"/>
      <point x="1756" y="-30"/>
      <point x="1895" y="116"/>
      <point x="1895" y="349" type="curve"/>
      <point x="1895" y="350" type="line"/>
      <point x="1895" y="393"/>
      <point x="1890" y="436"/>
      <point x="1880" y="475" type="curve"/>
      <point x="1842" y="475" type="line"/>
      <point x="1852" y="436"/>
      <point x="1857" y="393"/>
    </contour>
    <contour>
      <point x="614" y="1157" type="curve" smooth="yes"/>
      <point x="337" y="1157"/>
      <point x="188" y="1042"/>
      <point x="188" y="822" type="curve" smooth="yes"/>
      <point x="188" y="819" type="line" smooth="yes"/>
      <point x="188" y="754"/>
      <point x="202" y="694"/>
      <point x="230" y="639" type="curve"/>
      <point x="271" y="639" type="line"/>
      <point x="241" y="696"/>
      <point x="226" y="757"/>
      <point x="226" y="819" type="curve" smooth="yes"/>
      <point x="226" y="822" type="line" smooth="yes"/>
      <point x="226" y="1019.34"/>
      <point x="360" y="1122"/>
      <point x="613" y="1122" type="curve" smooth="yes"/>
      <point x="853" y="1122"/>
      <point x="983" y="1037.34"/>
      <point x="983" y="875" type="curve" smooth="yes"/>
      <point x="983" y="869" type="line" smooth="yes"/>
      <point x="983" y="740.5"/>
      <point x="902.878" y="675.198"/>
      <point x="674" y="612" type="curve" smooth="yes"/>
      <point x="540" y="575" type="line" smooth="yes"/>
      <point x="256.973" y="496.851"/>
      <point x="155" y="422.519"/>
      <point x="155" y="258" type="curve" smooth="yes"/>
      <point x="155" y="251" type="line" smooth="yes"/>
      <point x="155" y="74"/>
      <point x="302" y="-30"/>
      <point x="582" y="-30" type="curve" smooth="yes"/>
      <point x="881" y="-30"/>
      <point x="1022" y="108"/>
      <point x="1042" y="323" type="curve"/>
      <point x="1053" y="323" type="line"/>
      <point x="1053" y="451" type="line"/>
      <point x="1023.5" y="451" type="line"/>
      <point x="1023.5" y="419" type="line" smooth="yes"/>
      <point x="1023.5" y="139.514"/>
      <point x="875" y="5"/>
      <point x="583" y="5" type="curve" smooth="yes"/>
      <point x="328" y="5"/>
      <point x="193" y="96.6275"/>
      <point x="193" y="251" type="curve" smooth="yes"/>
      <point x="193" y="258" type="line" smooth="yes"/>
      <point x="193" y="401"/>
      <point x="291" y="469"/>
      <point x="549" y="541" type="curve" smooth="yes"/>
      <point x="686" y="579" type="line" smooth="yes"/>
      <point x="933" y="648"/>
      <point x="1021" y="723"/>
      <point x="1021" y="870" type="curve" smooth="yes"/>
      <point x="1021" y="875" type="line" smooth="yes"/>
      <point x="1021" y="1059"/>
      <point x="878" y="1157"/>
    </contour>
    <contour>
      <point x="783" y="1124" type="line" smooth="yes"/>
      <point x="948" y="1124"/>
      <point x="1035" y="1195"/>
      <point x="1035" y="1331" type="curve" smooth="yes"/>
      <point x="1035" y="1337" type="line" smooth="yes"/>
      <point x="1035" y="1429.48"/>
      <point x="992" y="1495.12"/>
      <point x="918" y="1516" type="curve"/>
      <point x="918" y="1530" type="line"/>
      <point x="783" y="1530" type="line"/>
      <point x="783" y="1517" type="line"/>
      <point x="925" y="1517"/>
      <point x="999" y="1455.34"/>
      <point x="999" y="1337" type="curve" smooth="yes"/>
      <point x="999" y="1331" type="line" smooth="yes"/>
      <point x="999" y="1216"/>
      <point x="923" y="1156"/>
      <point x="778" y="1156" type="curve" smooth="yes"/>
      <point x="636" y="1156" type="line"/>
      <point x="636" y="1124" type="line"/>
    </contour>
    <contour>
      <point x="2009" y="1011.26" type="line"/>
      <point x="2009" y="1018" type="line" smooth="yes"/>
      <point x="2009" y="1371.65"/>
      <point x="1789" y="1550"/>
      <point x="1376" y="1550" type="curve" smooth="yes"/>
      <point x="256" y="1550" type="line"/>
      <point x="256" y="1517" type="line"/>
      <point x="1376" y="1517" type="line" smooth="yes"/>
      <point x="1765" y="1517"/>
      <point x="1971" y="1352.03"/>
      <point x="1971" y="1017" type="curve" smooth="yes"/>
      <point x="1971" y="1011.26" type="line"/>
    </contour>
    <contour>
      <point x="1971" y="1012.26" type="line"/>
      <point x="1971" y="1010" type="line" smooth="yes"/>
      <point x="1971" y="776.134"/>
      <point x="1871.99" y="628"/>
      <point x="1623" y="628" type="curve" smooth="yes"/>
      <point x="1424" y="628"/>
      <point x="1314" y="724.625"/>
      <point x="1314" y="886" type="curve" smooth="yes"/>
      <point x="1314" y="891" type="line" smooth="yes"/>
      <point x="1314" y="1051.37"/>
      <point x="1421" y="1145"/>
      <point x="1617" y="1145" type="curve" smooth="yes"/>
      <point x="1780.37" y="1145"/>
      <point x="1907.44" y="1080.91"/>
      <point x="1974" y="967" type="curve"/>
      <point x="1990" y="1013" type="line"/>
      <point x="1970" y="1013" type="line"/>
      <point x="1909" y="1115.11"/>
      <point x="1781" y="1180"/>
      <point x="1616" y="1180" type="curve" smooth="yes"/>
      <point x="1398" y="1180"/>
      <point x="1276" y="1076"/>
      <point x="1276" y="891" type="curve" smooth="yes"/>
      <point x="1276" y="886" type="line" smooth="yes"/>
      <point x="1276" y="699"/>
      <point x="1401" y="593"/>
      <point x="1623" y="593" type="curve" smooth="yes"/>
      <point x="1877" y="593"/>
      <point x="2009" y="732.659"/>
      <point x="2009" y="1011" type="curve"/>
      <point x="2009" y="1012.26" type="line"/>
    </contour>
  </outline>
  <guideline angle="90" x="280" y="0"/>
  <guideline angle="0" x="0" y="1574"/>
  <guideline angle="90" x="2120" y="0"/>
  <guideline angle="90" x="505" y="0"/>
</glyph>
<glyph name="Kha.kn" format="2">
  <advance width="2112"/>
  <unicode hex="0C96"/>
  <outline>
    <contour>
      <point x="584" y="-30" type="curve" smooth="yes"/>
      <point x="843.914" y="-30"/>
      <point x="1018.5" y="70"/>
      <point x="1095" y="268" type="curve"/>
      <point x="1087" y="269" type="line"/>
      <point x="1096" y="266" type="line"/>
      <point x="1131" y="350"/>
      <point x="1148" y="450"/>
      <point x="1148" y="565" type="curve"/>
      <point x="1148" y="567" type="line"/>
      <point x="1148" y="958"/>
      <point x="969.389" y="1157"/>
      <point x="621" y="1157" type="curve" smooth="yes"/>
      <point x="332.512" y="1157"/>
      <point x="178" y="1035"/>
      <point x="178" y="809" type="curve"/>
      <point x="178" y="808" type="line"/>
      <point x="178" y="756"/>
      <point x="190" y="699"/>
      <point x="214" y="659" type="curve"/>
      <point x="254" y="659" type="line"/>
      <point x="228" y="704"/>
      <point x="216" y="757"/>
      <point x="216" y="808" type="curve"/>
      <point x="216" y="809" type="line"/>
      <point x="216" y="1012"/>
      <point x="359.458" y="1123"/>
      <point x="621" y="1123" type="curve" smooth="yes"/>
      <point x="944.387" y="1123"/>
      <point x="1110" y="933"/>
      <point x="1110" y="567" type="curve"/>
      <point x="1110" y="565" type="line"/>
      <point x="1110" y="466"/>
      <point x="1096.69" y="380.107"/>
      <point x="1072" y="307" type="curve" smooth="yes"/>
      <point x="1070.68" y="303.094"/>
      <point x="1069.09" y="299.97"/>
      <point x="1068" y="297" type="curve" smooth="yes"/>
      <point x="997.463" y="104"/>
      <point x="836.797" y="4"/>
      <point x="586" y="4" type="curve" smooth="yes"/>
      <point x="331.493" y="4"/>
      <point x="194" y="98"/>
      <point x="194" y="276" type="curve" smooth="yes"/>
      <point x="194" y="280" type="line" smooth="yes"/>
      <point x="194" y="448"/>
      <point x="319.605" y="540"/>
      <point x="564" y="540" type="curve" smooth="yes"/>
      <point x="789.508" y="540"/>
      <point x="978.738" y="451"/>
      <point x="1066" y="277" type="curve"/>
      <point x="1083" y="302" type="line"/>
      <point x="1013.08" y="464"/>
      <point x="820.045" y="574"/>
      <point x="563" y="574" type="curve" smooth="yes"/>
      <point x="296.547" y="574"/>
      <point x="156" y="473"/>
      <point x="156" y="280" type="curve" smooth="yes"/>
      <point x="156" y="275" type="line" smooth="yes"/>
      <point x="156" y="75"/>
      <point x="305.507" y="-30"/>
    </contour>
    <contour>
      <point x="1493" y="-30" type="curve" smooth="yes"/>
      <point x="1792" y="-30"/>
      <point x="1946" y="157"/>
      <point x="1946" y="520" type="curve" smooth="yes"/>
      <point x="1946" y="531" type="line" smooth="yes"/>
      <point x="1946" y="923"/>
      <point x="1763" y="1141"/>
      <point x="1436" y="1141" type="curve" smooth="yes"/>
      <point x="1415" y="1141"/>
      <point x="1406" y="1140"/>
      <point x="1389" y="1139" type="curve"/>
      <point x="1389" y="1104" type="line"/>
      <point x="1402" y="1105"/>
      <point x="1416" y="1106"/>
      <point x="1435" y="1106" type="curve" smooth="yes"/>
      <point x="1740" y="1106"/>
      <point x="1908" y="902.354"/>
      <point x="1908" y="531" type="curve" smooth="yes"/>
      <point x="1908" y="522" type="line" smooth="yes"/>
      <point x="1908" y="181.658"/>
      <point x="1765" y="5"/>
      <point x="1490" y="5" type="curve" smooth="yes"/>
      <point x="1279.37" y="5"/>
      <point x="1137.98" y="101.656"/>
      <point x="1098" y="286" type="curve"/>
      <point x="1098" y="287" type="line"/>
      <point x="1075" y="287" type="line"/>
      <point x="1074" y="266" type="line"/>
      <point x="1114.14" y="72"/>
      <point x="1265.88" y="-30"/>
    </contour>
  </outline>
  <guideline angle="90" x="46" y="0"/>
  <guideline angle="90" x="24" y="0"/>
  <guideline angle="90" x="1102" y="0"/>
  <guideline angle="90" x="-1496" y="0"/>
</glyph>
<glyph name="Gha.kn" format="2">
  <advance width="2033"/>
  <unicode hex="0C98"/>
  <outline>
    <contour>
      <point x="1029" y="419" type="curve" smooth="yes"/>
      <point x="1028" y="451" type="line"/>
      <point x="990" y="451" type="line"/>
      <point x="989" y="419" type="line" smooth="yes"/>
      <point x="980.271" y="139.666"/>
      <point x="850" y="5"/>
      <point x="577" y="5" type="curve" smooth="yes"/>
      <point x="321" y="5"/>
      <point x="183" y="116.656"/>
      <point x="183" y="330" type="curve" smooth="yes"/>
      <point x="183" y="340" type="line" smooth="yes"/>
      <point x="183" y="542.345"/>
      <point x="292" y="649"/>
      <point x="485" y="649" type="curve" smooth="yes"/>
      <point x="580" y="649"/>
      <point x="657" y="617"/>
      <point x="709" y="571" type="curve"/>
      <point x="706" y="615" type="line"/>
      <point x="655" y="658"/>
      <point x="577" y="684"/>
      <point x="482" y="684" type="curve" smooth="yes"/>
      <point x="268" y="684"/>
      <point x="145" y="561"/>
      <point x="145" y="340" type="curve" smooth="yes"/>
      <point x="145" y="330" type="line" smooth="yes"/>
      <point x="145" y="96"/>
      <point x="295" y="-30"/>
      <point x="576" y="-30" type="curve" smooth="yes"/>
      <point x="856" y="-30"/>
      <point x="988" y="108"/>
      <point x="1008" y="323" type="curve"/>
      <point x="1010" y="323" type="line"/>
      <point x="1030" y="108"/>
      <point x="1168" y="-29"/>
      <point x="1460" y="-29" type="curve" smooth="yes"/>
      <point x="1722" y="-29"/>
      <point x="1856" y="85"/>
      <point x="1856" y="305" type="curve" smooth="yes"/>
      <point x="1856" y="309" type="line" smooth="yes"/>
      <point x="1856" y="474.439"/>
      <point x="1768" y="576.095"/>
      <point x="1601" y="604" type="curve"/>
      <point x="1601" y="622" type="line"/>
      <point x="1343" y="622" type="line"/>
      <point x="1343" y="602" type="line"/>
      <point x="1419" y="601" type="line" smooth="yes"/>
      <point x="1680.99" y="597.553"/>
      <point x="1818" y="505.327"/>
      <point x="1818" y="308" type="curve" smooth="yes"/>
      <point x="1818" y="305" type="line" smooth="yes"/>
      <point x="1818" y="105.667"/>
      <point x="1696" y="6"/>
      <point x="1459" y="6" type="curve" smooth="yes"/>
      <point x="1174" y="6"/>
      <point x="1037.73" y="139.668"/>
    </contour>
    <contour>
      <point x="1010" y="638" type="curve" smooth="yes"/>
      <point x="1034" y="638"/>
      <point x="1037" y="669"/>
      <point x="1037" y="790" type="curve" smooth="yes"/>
      <point x="1037" y="807" type="line" smooth="yes"/>
      <point x="1037" y="928"/>
      <point x="1034" y="959"/>
      <point x="1010" y="959" type="curve" smooth="yes"/>
      <point x="986" y="959"/>
      <point x="983" y="928"/>
      <point x="983" y="807" type="curve" smooth="yes"/>
      <point x="983" y="790" type="line" smooth="yes"/>
      <point x="983" y="669"/>
      <point x="986" y="638"/>
    </contour>
    <contour>
      <point x="1667" y="606" type="line" smooth="yes"/>
      <point x="1847" y="606"/>
      <point x="1937" y="674.315"/>
      <point x="1937" y="823" type="curve" smooth="yes"/>
      <point x="1937" y="893.473"/>
      <point x="1909.71" y="963.945"/>
      <point x="1857" y="1027" type="curve"/>
      <point x="1816" y="1027" type="line"/>
      <point x="1870.7" y="964.873"/>
      <point x="1899" y="893.473"/>
      <point x="1899" y="823" type="curve" smooth="yes"/>
      <point x="1899" y="691"/>
      <point x="1821" y="635"/>
      <point x="1662" y="635" type="curve" smooth="yes"/>
      <point x="1343" y="634" type="line"/>
      <point x="1343" y="606" type="line"/>
    </contour>
    <contour>
      <point x="1520" y="1089" type="line"/>
      <point x="1520" y="1122" type="line"/>
      <point x="210" y="1122" type="line"/>
      <point x="210" y="1089" type="line"/>
    </contour>
    <contour>
      <point x="1008" y="-383" type="curve" smooth="yes"/>
      <point x="1029" y="-383"/>
      <point x="1037" y="-368"/>
      <point x="1037" y="-336" type="curve" smooth="yes"/>
      <point x="1037" y="-269" type="line" smooth="yes"/>
      <point x="1037" y="-98"/>
      <point x="1030" y="16"/>
      <point x="1008" y="111" type="curve"/>
      <point x="987" y="16"/>
      <point x="980" y="-98"/>
      <point x="980" y="-269" type="curve" smooth="yes"/>
      <point x="980" y="-336" type="line" smooth="yes"/>
      <point x="980" y="-368"/>
      <point x="988" y="-383"/>
    </contour>
    <contour>
      <point x="1712" y="1558" type="line"/>
      <point x="1773" y="1484.4"/>
      <point x="1805" y="1398.7"/>
      <point x="1805" y="1312" type="curve" smooth="yes"/>
      <point x="1805" y="1178.57"/>
      <point x="1737" y="1122"/>
      <point x="1596" y="1122" type="curve" smooth="yes"/>
      <point x="1452" y="1122" type="line"/>
      <point x="1452" y="1089" type="line"/>
      <point x="1601" y="1089" type="line" smooth="yes"/>
      <point x="1761" y="1089"/>
      <point x="1841" y="1159.09"/>
      <point x="1841" y="1312" type="curve" smooth="yes"/>
      <point x="1841" y="1398.7"/>
      <point x="1809" y="1486.42"/>
      <point x="1751" y="1558" type="curve"/>
    </contour>
  </outline>
  <guideline angle="90" x="-293" y="0"/>
  <guideline angle="90" x="3263" y="0"/>
  <guideline angle="90" x="145" y="0"/>
</glyph>
<glyph name="Jha.kn" format="2">
  <advance width="3465"/>
  <unicode hex="0C9D"/>
  <outline>
    <component base="matraU.kn" xOffset="1710"/>
    <component base="matraU.kn" xOffset="2608"/>
    <component base="Ra.kn"/>
    <contour>
      <point x="1470" y="378" type="line"/>
      <point x="1493" y="381" type="line"/>
      <point x="1493" y="386" type="line"/>
      <point x="1470" y="386" type="line"/>
    </contour>
    <contour>
      <point x="2362" y="-383" type="curve" smooth="yes"/>
      <point x="2383" y="-383"/>
      <point x="2391" y="-368"/>
      <point x="2391" y="-336" type="curve" smooth="yes"/>
      <point x="2391" y="-269" type="line" smooth="yes"/>
      <point x="2391" y="-98"/>
      <point x="2384" y="16"/>
      <point x="2362" y="111" type="curve"/>
      <point x="2341" y="16"/>
      <point x="2334" y="-98"/>
      <point x="2334" y="-269" type="curve" smooth="yes"/>
      <point x="2334" y="-336" type="line" smooth="yes"/>
      <point x="2334" y="-368"/>
      <point x="2342" y="-383"/>
    </contour>
  </outline>
  <guideline angle="0" x="0" y="-383"/>
  <guideline angle="90" x="1510" y="0"/>
  <guideline angle="90" x="249" y="0"/>
</glyph>
<glyph name="Ta.kn" format="2">
  <advance width="1408"/>
  <unicode hex="0CA4"/>
  <outline>
    <contour>
      <point x="712" y="2" type="curve" smooth="yes"/>
      <point x="423" y="2"/>
      <point x="224" y="79"/>
      <point x="90" y="155" type="curve"/>
      <point x="93" y="114" type="line"/>
      <point x="212" y="55"/>
      <point x="400" y="-33"/>
      <point x="713" y="-33" type="curve" smooth="yes"/>
      <point x="1076" y="-33"/>
      <point x="1251" y="85"/>
      <point x="1251" y="310" type="curve" smooth="yes"/>
      <point x="1251" y="315" type="line" smooth="yes"/>
      <point x="1251" y="506"/>
      <point x="1132" y="599"/>
      <point x="925" y="612" type="curve"/>
      <point x="925" y="613" type="line"/>
      <point x="1079" y="631"/>
      <point x="1159" y="708"/>
      <point x="1159" y="840" type="curve"/>
      <point x="1159" y="841" type="line"/>
      <point x="1159" y="959.518"/>
      <point x="1091.83" y="1057.12"/>
      <point x="945" y="1087" type="curve"/>
      <point x="945" y="1108" type="line"/>
      <point x="721" y="1108" type="line"/>
      <point x="721" y="1089" type="line"/>
      <point x="991" y="1089"/>
      <point x="1122" y="1004.34"/>
      <point x="1122" y="842" type="curve"/>
      <point x="1122" y="841" type="line"/>
      <point x="1122" y="695"/>
      <point x="1018" y="629"/>
      <point x="786" y="628" type="curve" smooth="yes"/>
      <point x="354" y="627" type="line"/>
      <point x="354" y="595" type="line"/>
      <point x="816" y="594" type="line" smooth="yes"/>
      <point x="1073" y="593.444"/>
      <point x="1213" y="515.282"/>
      <point x="1213" y="315" type="curve" smooth="yes"/>
      <point x="1213" y="310" type="line" smooth="yes"/>
      <point x="1213" y="106.66"/>
      <point x="1049" y="2"/>
    </contour>
    <contour>
      <point x="958" y="1089" type="line"/>
      <point x="958" y="1122" type="line"/>
      <point x="135" y="1122" type="line"/>
      <point x="135" y="1089" type="line"/>
    </contour>
    <contour>
      <point x="1144" y="1558" type="line"/>
      <point x="1205" y="1484.4"/>
      <point x="1237" y="1398.7"/>
      <point x="1237" y="1312" type="curve" smooth="yes"/>
      <point x="1237" y="1178.57"/>
      <point x="1169" y="1122"/>
      <point x="1028" y="1122" type="curve" smooth="yes"/>
      <point x="884" y="1122" type="line"/>
      <point x="884" y="1089" type="line"/>
      <point x="1033" y="1089" type="line" smooth="yes"/>
      <point x="1193" y="1089"/>
      <point x="1273" y="1159.09"/>
      <point x="1273" y="1312" type="curve" smooth="yes"/>
      <point x="1273" y="1398.7"/>
      <point x="1241" y="1486.42"/>
      <point x="1183" y="1558" type="curve"/>
    </contour>
  </outline>
</glyph>
<glyph name="Tha.kn" format="2">
  <advance width="2000"/>
  <unicode hex="0CA5"/>
  <outline>
    <contour>
      <point x="1001" y="603" type="curve" smooth="yes"/>
      <point x="1027" y="603"/>
      <point x="1031" y="632"/>
      <point x="1031" y="742" type="curve" smooth="yes"/>
      <point x="1031" y="758" type="line" smooth="yes"/>
      <point x="1031" y="868"/>
      <point x="1027" y="897"/>
      <point x="1001" y="897" type="curve" smooth="yes"/>
      <point x="975" y="897"/>
      <point x="972" y="868"/>
      <point x="972" y="758" type="curve" smooth="yes"/>
      <point x="972" y="742" type="line" smooth="yes"/>
      <point x="972" y="632"/>
      <point x="975" y="603"/>
    </contour>
    <contour>
      <point x="1471" y="1089" type="line"/>
      <point x="1471" y="1122" type="line"/>
      <point x="166" y="1122" type="line"/>
      <point x="166" y="1089" type="line"/>
    </contour>
    <contour>
      <point x="204" y="447" type="line" smooth="yes"/>
      <point x="204" y="866.347"/>
      <point x="465" y="1089"/>
      <point x="962" y="1089" type="curve"/>
      <point x="961" y="1107" type="line"/>
      <point x="675" y="1107" type="line"/>
      <point x="675" y="1087" type="line"/>
      <point x="372.934" y="1031.09"/>
      <point x="166" y="819.41"/>
      <point x="166" y="447" type="curve" smooth="yes"/>
      <point x="166" y="428" type="line" smooth="yes"/>
      <point x="166" y="127"/>
      <point x="310" y="-30"/>
      <point x="591" y="-30" type="curve" smooth="yes"/>
      <point x="856" y="-30"/>
      <point x="981" y="108"/>
      <point x="999" y="323" type="curve"/>
      <point x="1001" y="323" type="line"/>
      <point x="1019" y="108"/>
      <point x="1144" y="-30"/>
      <point x="1409" y="-30" type="curve" smooth="yes"/>
      <point x="1690" y="-30"/>
      <point x="1834" y="127"/>
      <point x="1834" y="428" type="curve" smooth="yes"/>
      <point x="1834" y="447" type="line" smooth="yes"/>
      <point x="1834" y="819.41"/>
      <point x="1627.07" y="1031.09"/>
      <point x="1325" y="1087" type="curve"/>
      <point x="1325" y="1107" type="line"/>
      <point x="1039" y="1107" type="line"/>
      <point x="1038" y="1089" type="line"/>
      <point x="1535" y="1089"/>
      <point x="1796" y="866.347"/>
      <point x="1796" y="447" type="curve" smooth="yes"/>
      <point x="1796" y="428" type="line" smooth="yes"/>
      <point x="1796" y="147.663"/>
      <point x="1664" y="5"/>
      <point x="1408" y="5" type="curve" smooth="yes"/>
      <point x="1151" y="5"/>
      <point x="1028.73" y="139.666"/>
      <point x="1020" y="419" type="curve" smooth="yes"/>
      <point x="1019" y="451" type="line"/>
      <point x="981" y="451" type="line"/>
      <point x="980" y="419" type="line" smooth="yes"/>
      <point x="971.271" y="139.666"/>
      <point x="849" y="5"/>
      <point x="592" y="5" type="curve" smooth="yes"/>
      <point x="336" y="5"/>
      <point x="204" y="147.663"/>
      <point x="204" y="428" type="curve" smooth="yes"/>
    </contour>
    <contour>
      <point x="1000" y="-383" type="curve" smooth="yes"/>
      <point x="1021" y="-383"/>
      <point x="1029" y="-368"/>
      <point x="1029" y="-336" type="curve" smooth="yes"/>
      <point x="1029" y="-269" type="line" smooth="yes"/>
      <point x="1029" y="-98"/>
      <point x="1022" y="16"/>
      <point x="1000" y="111" type="curve"/>
      <point x="979" y="16"/>
      <point x="972" y="-98"/>
      <point x="972" y="-269" type="curve" smooth="yes"/>
      <point x="972" y="-336" type="line" smooth="yes"/>
      <point x="972" y="-368"/>
      <point x="980" y="-383"/>
    </contour>
    <contour>
      <point x="1705" y="1558" type="line"/>
      <point x="1766" y="1484.4"/>
      <point x="1798" y="1398.7"/>
      <point x="1798" y="1312" type="curve" smooth="yes"/>
      <point x="1798" y="1178.57"/>
      <point x="1730" y="1122"/>
      <point x="1589" y="1122" type="curve" smooth="yes"/>
      <point x="1445" y="1122" type="line"/>
      <point x="1445" y="1089" type="line"/>
      <point x="1594" y="1089" type="line" smooth="yes"/>
      <point x="1754" y="1089"/>
      <point x="1834" y="1159.09"/>
      <point x="1834" y="1312" type="curve" smooth="yes"/>
      <point x="1834" y="1398.7"/>
      <point x="1802" y="1486.42"/>
      <point x="1744" y="1558" type="curve"/>
    </contour>
  </outline>
  <guideline angle="90" x="3258" y="0"/>
  <guideline angle="90" x="615" y="0"/>
  <guideline angle="90" x="1269" y="0"/>
  <guideline angle="90" x="166" y="0"/>
</glyph>
<glyph name="Ya.kn" format="2">
  <advance width="3349"/>
  <unicode hex="0CAF"/>
  <outline>
    <component base="matraU.kn" xOffset="2492"/>
    <contour>
      <point x="1642" y="1107" type="line"/>
      <point x="1642" y="1089" type="line"/>
      <point x="2043" y="1089"/>
      <point x="2246" y="898.329"/>
      <point x="2246" y="510" type="curve"/>
      <point x="2246" y="508" type="line"/>
      <point x="2246" y="175.661"/>
      <point x="2095" y="5"/>
      <point x="1799" y="5" type="curve" smooth="yes"/>
      <point x="1531" y="5"/>
      <point x="1377" y="140.632"/>
      <point x="1377" y="374" type="curve" smooth="yes"/>
      <point x="1377" y="381" type="line"/>
      <point x="1353" y="381" type="line"/>
      <point x="1353" y="306" type="line"/>
      <point x="1370.04" y="112"/>
      <point x="1518.37" y="-30"/>
      <point x="1800" y="-30" type="curve" smooth="yes"/>
      <point x="2121" y="-30"/>
      <point x="2284" y="155"/>
      <point x="2284" y="508" type="curve"/>
      <point x="2284" y="510" type="line"/>
      <point x="2284" y="858.386"/>
      <point x="2119.14" y="1042.08"/>
      <point x="1886" y="1086" type="curve"/>
      <point x="1886" y="1107" type="line"/>
    </contour>
    <contour>
      <point x="1575" y="1122" type="line"/>
      <point x="1575" y="1089" type="line"/>
      <point x="1974" y="1089" type="line"/>
      <point x="1974" y="1122" type="line"/>
    </contour>
    <contour>
      <point x="1403" y="563" type="line" smooth="yes"/>
      <point x="1403" y="953"/>
      <point x="1190" y="1157"/>
      <point x="781" y="1157" type="curve" smooth="yes"/>
      <point x="373" y="1157"/>
      <point x="162" y="953"/>
      <point x="162" y="563" type="curve" smooth="yes"/>
      <point x="162" y="559" type="line" smooth="yes"/>
      <point x="162" y="171"/>
      <point x="374" y="-33"/>
      <point x="783" y="-33" type="curve" smooth="yes"/>
      <point x="1192" y="-33"/>
      <point x="1403" y="171"/>
      <point x="1403" y="559" type="curve" smooth="yes"/>
    </contour>
    <contour>
      <point x="783" y="2" type="curve" smooth="yes"/>
      <point x="399" y="2"/>
      <point x="200" y="193.656"/>
      <point x="200" y="559" type="curve" smooth="yes"/>
      <point x="200" y="563" type="line" smooth="yes"/>
      <point x="200" y="929.343"/>
      <point x="398" y="1121"/>
      <point x="781" y="1121" type="curve" smooth="yes"/>
      <point x="1165" y="1121"/>
      <point x="1365" y="929.343"/>
      <point x="1365" y="563" type="curve" smooth="yes"/>
      <point x="1365" y="559" type="line" smooth="yes"/>
      <point x="1365" y="193.656"/>
      <point x="1167" y="2"/>
    </contour>
    <contour>
      <point x="2152" y="1558" type="line"/>
      <point x="2213" y="1484.4"/>
      <point x="2245" y="1398.7"/>
      <point x="2245" y="1312" type="curve" smooth="yes"/>
      <point x="2245" y="1178.57"/>
      <point x="2177" y="1122"/>
      <point x="2036" y="1122" type="curve" smooth="yes"/>
      <point x="1892" y="1122" type="line"/>
      <point x="1892" y="1089" type="line"/>
      <point x="2041" y="1089" type="line" smooth="yes"/>
      <point x="2201" y="1089"/>
      <point x="2281" y="1159.09"/>
      <point x="2281" y="1312" type="curve" smooth="yes"/>
      <point x="2281" y="1398.7"/>
      <point x="2249" y="1486.42"/>
      <point x="2191" y="1558" type="curve"/>
    </contour>
  </outline>
  <guideline angle="0" x="0" y="1603"/>
</glyph>
<glyph name="RraObsolete.kn" format="2">
  <advance width="2230"/>
  <unicode hex="0CB1"/>
  <outline>
    <contour>
      <point x="166" y="581.4" type="line"/>
      <point x="166" y="570" type="line" smooth="yes"/>
      <point x="166" y="171"/>
      <point x="339" y="-30"/>
      <point x="682" y="-30" type="curve" smooth="yes"/>
      <point x="963.225" y="-30"/>
      <point x="1095.54" y="108.269"/>
      <point x="1114.15" y="323" type="curve"/>
      <point x="1115.85" y="323" type="line"/>
      <point x="1134.46" y="108.269"/>
      <point x="1266.77" y="-30"/>
      <point x="1548" y="-30" type="curve" smooth="yes"/>
      <point x="1891" y="-30"/>
      <point x="2064" y="171"/>
      <point x="2064" y="570" type="curve" smooth="yes"/>
      <point x="2064" y="589" type="line" smooth="yes"/>
      <point x="2064" y="946"/>
      <point x="1913" y="1157"/>
      <point x="1613" y="1157" type="curve" smooth="yes"/>
      <point x="1384" y="1157"/>
      <point x="1253" y="1043"/>
      <point x="1253" y="842" type="curve" smooth="yes"/>
      <point x="1253" y="838" type="line" smooth="yes"/>
      <point x="1253" y="677.55"/>
      <point x="1351.85" y="585.9"/>
      <point x="1511" y="560" type="curve"/>
      <point x="1511" y="553" type="line"/>
      <point x="1687" y="552" type="line"/>
      <point x="1687" y="559" type="line"/>
      <point x="1434" y="559"/>
      <point x="1291" y="656.65"/>
      <point x="1291" y="838" type="curve" smooth="yes"/>
      <point x="1291" y="842" type="line" smooth="yes"/>
      <point x="1291" y="1020.35"/>
      <point x="1404" y="1122"/>
      <point x="1613" y="1122" type="curve" smooth="yes"/>
      <point x="1887" y="1122"/>
      <point x="2026" y="927.35"/>
      <point x="2026" y="589" type="curve" smooth="yes"/>
      <point x="2026" y="570" type="line" smooth="yes"/>
      <point x="2026" y="199.65"/>
      <point x="1860" y="5"/>
      <point x="1547" y="5" type="curve" smooth="yes"/>
      <point x="1273" y="5"/>
      <point x="1150.5" y="139.65"/>
      <point x="1135" y="419" type="curve" smooth="yes"/>
      <point x="1134" y="437" type="line"/>
      <point x="1096" y="437" type="line"/>
      <point x="1095" y="419" type="line" smooth="yes"/>
      <point x="1079.5" y="139.65"/>
      <point x="957" y="5"/>
      <point x="683" y="5" type="curve" smooth="yes"/>
      <point x="370" y="5"/>
      <point x="204" y="199.65"/>
      <point x="204" y="570" type="curve" smooth="yes"/>
      <point x="204" y="581.1" type="line"/>
    </contour>
    <contour>
      <point x="1699" y="526" type="line"/>
      <point x="1699" y="559" type="line"/>
      <point x="614" y="559" type="line"/>
      <point x="614" y="526" type="line"/>
    </contour>
    <contour>
      <point x="614" y="526" type="curve"/>
      <point x="853" y="539"/>
      <point x="987" y="639"/>
      <point x="987" y="837" type="curve" smooth="yes"/>
      <point x="987" y="842" type="line" smooth="yes"/>
      <point x="987" y="1043"/>
      <point x="854" y="1157"/>
      <point x="622" y="1157" type="curve" smooth="yes"/>
      <point x="319" y="1157"/>
      <point x="166" y="946"/>
      <point x="166" y="589" type="curve" smooth="yes"/>
      <point x="166" y="580.414" type="line"/>
      <point x="204" y="580.086" type="line"/>
      <point x="204" y="589" type="line" smooth="yes"/>
      <point x="204" y="931.537"/>
      <point x="352.742" y="1122"/>
      <point x="622" y="1122" type="curve" smooth="yes"/>
      <point x="834" y="1122"/>
      <point x="949" y="1020.36"/>
      <point x="949" y="842" type="curve" smooth="yes"/>
      <point x="949" y="837" type="line" smooth="yes"/>
      <point x="949" y="661.635"/>
      <point x="830" y="561"/>
      <point x="613" y="561" type="curve" smooth="yes"/>
      <point x="424.692" y="561"/>
      <point x="282.955" y="634.847"/>
      <point x="205" y="745" type="curve"/>
      <point x="190" y="697" type="line"/>
      <point x="210" y="697" type="line"/>
      <point x="281.822" y="598"/>
      <point x="425.467" y="526"/>
    </contour>
  </outline>
  <guideline angle="90" x="1201" y="0"/>
  <guideline angle="90" x="2236" y="0"/>
</glyph>
<glyph name="Sha.kn" format="2">
  <advance width="1554"/>
  <unicode hex="0CB6"/>
  <outline>
    <contour>
      <point x="157" y="1122" type="line"/>
      <point x="157" y="1089" type="line"/>
      <point x="589" y="1089" type="line"/>
      <point x="597" y="1089" type="line"/>
      <point x="1006" y="1089" type="line"/>
      <point x="1006" y="1122" type="line"/>
    </contour>
    <contour>
      <point x="1344" y="548" type="curve" smooth="yes"/>
      <point x="1344" y="530" type="line" smooth="yes"/>
      <point x="1344" y="182.657"/>
      <point x="1134" y="1"/>
      <point x="736" y="1" type="curve" smooth="yes"/>
      <point x="410" y="1"/>
      <point x="193" y="123.619"/>
      <point x="193" y="323" type="curve"/>
      <point x="193" y="324" type="line"/>
      <point x="193" y="501"/>
      <point x="326" y="555"/>
      <point x="593" y="635" type="curve" smooth="yes"/>
      <point x="1293" y="844" type="line"/>
      <point x="1271" y="872" type="line"/>
      <point x="578" y="667" type="line" smooth="yes"/>
      <point x="300.919" y="585.035"/>
      <point x="155" y="521.576"/>
      <point x="155" y="324" type="curve"/>
      <point x="155" y="323" type="line"/>
      <point x="155" y="99"/>
      <point x="383" y="-34"/>
      <point x="736" y="-34" type="curve" smooth="yes"/>
      <point x="1163" y="-34"/>
      <point x="1382" y="158"/>
      <point x="1382" y="534" type="curve" smooth="yes"/>
      <point x="1382" y="548" type="line" smooth="yes"/>
      <point x="1382" y="844.449"/>
      <point x="1248.77" y="1031.1"/>
      <point x="1005" y="1086" type="curve"/>
      <point x="1005" y="1107" type="line"/>
      <point x="527" y="1107" type="line"/>
      <point x="527" y="1088" type="line"/>
      <point x="327.212" y="1052.1"/>
      <point x="216" y="925.455"/>
      <point x="216" y="731" type="curve" smooth="yes"/>
      <point x="216" y="717" type="line"/>
      <point x="254" y="717" type="line"/>
      <point x="254" y="731" type="line" smooth="yes"/>
      <point x="254" y="967.34"/>
      <point x="428" y="1089"/>
      <point x="761" y="1089" type="curve" smooth="yes"/>
      <point x="1145" y="1089"/>
      <point x="1344" y="905.339"/>
    </contour>
    <contour>
      <point x="1255" y="1558" type="line"/>
      <point x="1316" y="1484.4"/>
      <point x="1348" y="1398.7"/>
      <point x="1348" y="1312" type="curve" smooth="yes"/>
      <point x="1348" y="1178.57"/>
      <point x="1280" y="1122"/>
      <point x="1139" y="1122" type="curve" smooth="yes"/>
      <point x="995" y="1122" type="line"/>
      <point x="995" y="1089" type="line"/>
      <point x="1144" y="1089" type="line" smooth="yes"/>
      <point x="1304" y="1089"/>
      <point x="1384" y="1159.09"/>
      <point x="1384" y="1312" type="curve" smooth="yes"/>
      <point x="1384" y="1398.7"/>
      <point x="1352" y="1486.42"/>
      <point x="1294" y="1558" type="curve"/>
    </contour>
  </outline>
  <guideline angle="90" x="49" y="0"/>
</glyph>
<glyph name="Sa.kn" format="2">
  <advance width="1867"/>
  <unicode hex="0CB8"/>
  <outline>
    <contour>
      <point x="1375" y="1089" type="line"/>
      <point x="1375" y="1122" type="line"/>
      <point x="155" y="1122" type="line"/>
      <point x="155" y="1089" type="line"/>
    </contour>
    <contour>
      <point x="938" y="637" type="curve" smooth="yes"/>
      <point x="962" y="637"/>
      <point x="965" y="668"/>
      <point x="965" y="789" type="curve" smooth="yes"/>
      <point x="965" y="806" type="line" smooth="yes"/>
      <point x="965" y="927"/>
      <point x="962" y="958"/>
      <point x="938" y="958" type="curve" smooth="yes"/>
      <point x="914" y="958"/>
      <point x="911" y="927"/>
      <point x="911" y="806" type="curve" smooth="yes"/>
      <point x="911" y="789" type="line" smooth="yes"/>
      <point x="911" y="668"/>
      <point x="914" y="637"/>
    </contour>
    <contour>
      <point x="1711" y="366" type="curve"/>
      <point x="1711" y="367" type="line"/>
      <point x="1711" y="563"/>
      <point x="1632" y="714"/>
      <point x="1483" y="805" type="curve"/>
      <point x="1426" y="805" type="line"/>
      <point x="1585" y="715"/>
      <point x="1673" y="566"/>
      <point x="1673" y="367" type="curve"/>
      <point x="1673" y="366" type="line"/>
      <point x="1673" y="129.655"/>
      <point x="1541" y="5"/>
      <point x="1322" y="5" type="curve" smooth="yes"/>
      <point x="1120" y="5"/>
      <point x="1003.51" y="103.393"/>
      <point x="899" y="295" type="curve" smooth="yes"/>
      <point x="875" y="339" type="line" smooth="yes"/>
      <point x="769" y="533"/>
      <point x="674" y="615"/>
      <point x="482" y="615" type="curve" smooth="yes"/>
      <point x="269" y="615"/>
      <point x="150" y="496"/>
      <point x="150" y="274" type="curve" smooth="yes"/>
      <point x="150" y="271" type="line" smooth="yes"/>
      <point x="150" y="162"/>
      <point x="183" y="58"/>
      <point x="245" y="-25" type="curve"/>
      <point x="290" y="-25" type="line"/>
      <point x="223" y="55"/>
      <point x="188" y="162"/>
      <point x="188" y="271" type="curve" smooth="yes"/>
      <point x="188" y="274" type="line" smooth="yes"/>
      <point x="188" y="473.349"/>
      <point x="294" y="580"/>
      <point x="482" y="580" type="curve" smooth="yes"/>
      <point x="662" y="580"/>
      <point x="742.086" y="504.342"/>
      <point x="841" y="323" type="curve" smooth="yes"/>
      <point x="865" y="279" type="line" smooth="yes"/>
      <point x="977" y="74"/>
      <point x="1099" y="-30"/>
      <point x="1322" y="-30" type="curve" smooth="yes"/>
      <point x="1565" y="-30"/>
      <point x="1711" y="106"/>
    </contour>
    <contour>
      <point x="1568" y="1558" type="line"/>
      <point x="1629" y="1484.4"/>
      <point x="1661" y="1398.7"/>
      <point x="1661" y="1312" type="curve" smooth="yes"/>
      <point x="1661" y="1178.57"/>
      <point x="1593" y="1122"/>
      <point x="1452" y="1122" type="curve" smooth="yes"/>
      <point x="1308" y="1122" type="line"/>
      <point x="1308" y="1089" type="line"/>
      <point x="1457" y="1089" type="line" smooth="yes"/>
      <point x="1617" y="1089"/>
      <point x="1697" y="1159.09"/>
      <point x="1697" y="1312" type="curve" smooth="yes"/>
      <point x="1697" y="1398.7"/>
      <point x="1665" y="1486.42"/>
      <point x="1607" y="1558" type="curve"/>
    </contour>
  </outline>
  <guideline angle="90" x="1737" y="0"/>
</glyph>
<glyph name="matraE.kn" format="2">
  <advance width="820"/>
  <unicode hex="0CC6"/>
  <outline>
    <contour>
      <point x="435" y="1089" type="line" smooth="yes"/>
      <point x="643" y="1089"/>
      <point x="758" y="1194.36"/>
      <point x="758" y="1381" type="curve" smooth="yes"/>
      <point x="758" y="1387" type="line" smooth="yes"/>
      <point x="758" y="1566"/>
      <point x="641" y="1671"/>
      <point x="443" y="1671" type="curve" smooth="yes"/>
      <point x="245" y="1671"/>
      <point x="135" y="1581"/>
      <point x="135" y="1421" type="curve" smooth="yes"/>
      <point x="135" y="1416" type="line" smooth="yes"/>
      <point x="135" y="1365"/>
      <point x="147" y="1316"/>
      <point x="170" y="1279" type="curve"/>
      <point x="209" y="1279" type="line"/>
      <point x="187" y="1316"/>
      <point x="173" y="1363"/>
      <point x="173" y="1416" type="curve" smooth="yes"/>
      <point x="173" y="1421" type="line" smooth="yes"/>
      <point x="173" y="1558.36"/>
      <point x="271" y="1636"/>
      <point x="443" y="1636" type="curve" smooth="yes"/>
      <point x="620" y="1636"/>
      <point x="720" y="1546.36"/>
      <point x="720" y="1387" type="curve" smooth="yes"/>
      <point x="720" y="1381" type="line" smooth="yes"/>
      <point x="720" y="1212"/>
      <point x="621" y="1122"/>
      <point x="431" y="1122" type="curve" smooth="yes"/>
      <point x="294" y="1122" type="line"/>
      <point x="294" y="1089" type="line"/>
    </contour>
  </outline>
</glyph>
<glyph name="vowelLruu.kn" format="2">
  <advance width="1908"/>
  <unicode hex="0CE1"/>
  <outline>
    <contour>
      <point x="958" y="-103" type="line"/>
      <point x="936" y="-103" type="line"/>
      <point x="903" y="-3"/>
      <point x="789" y="59"/>
      <point x="613" y="59" type="curve" smooth="yes"/>
      <point x="386" y="59"/>
      <point x="262" y="-39"/>
      <point x="262" y="-216" type="curve" smooth="yes"/>
      <point x="262" y="-219" type="line" smooth="yes"/>
      <point x="262" y="-397"/>
      <point x="385" y="-494"/>
      <point x="613" y="-494" type="curve" smooth="yes"/>
      <point x="774" y="-494"/>
      <point x="894" y="-427"/>
      <point x="936" y="-357" type="curve"/>
      <point x="966" y="-357" type="line"/>
      <point x="945" y="-295" type="line"/>
      <point x="902" y="-401.352"/>
      <point x="753" y="-459"/>
      <point x="615" y="-459" type="curve" smooth="yes"/>
      <point x="407" y="-459"/>
      <point x="300" y="-375.349"/>
      <point x="300" y="-219" type="curve" smooth="yes"/>
      <point x="300" y="-216" type="line" smooth="yes"/>
      <point x="300" y="-58.6556"/>
      <point x="408" y="24"/>
      <point x="615" y="24" type="curve" smooth="yes"/>
      <point x="816" y="24"/>
      <point x="938" y="-62.6201"/>
      <point x="938" y="-204" type="curve"/>
    </contour>
    <contour>
      <point x="935" y="1122" type="line"/>
      <point x="935" y="717" type="line" smooth="yes"/>
      <point x="935" y="639"/>
      <point x="937" y="581"/>
      <point x="939" y="518" type="curve"/>
      <point x="938" y="518" type="line"/>
      <point x="896" y="673"/>
      <point x="754" y="762"/>
      <point x="561" y="762" type="curve" smooth="yes"/>
      <point x="292" y="762"/>
      <point x="145" y="630"/>
      <point x="145" y="384" type="curve" smooth="yes"/>
      <point x="145" y="379" type="line" smooth="yes"/>
      <point x="145" y="286"/>
      <point x="171" y="205"/>
      <point x="211" y="137" type="curve"/>
      <point x="253" y="137" type="line"/>
      <point x="211" y="205"/>
      <point x="183" y="287"/>
      <point x="183" y="379" type="curve" smooth="yes"/>
      <point x="183" y="384" type="line" smooth="yes"/>
      <point x="183" y="607.349"/>
      <point x="316" y="727"/>
      <point x="563" y="727" type="curve" smooth="yes"/>
      <point x="795" y="727"/>
      <point x="935.553" y="590.385"/>
      <point x="936" y="373" type="curve" smooth="yes"/>
      <point x="938" y="-600" type="line"/>
      <point x="970" y="-600" type="line"/>
      <point x="972" y="373" type="line" smooth="yes"/>
      <point x="972.447" y="590.385"/>
      <point x="1111" y="727"/>
      <point x="1345" y="727" type="curve" smooth="yes"/>
      <point x="1592" y="727"/>
      <point x="1725" y="607.349"/>
      <point x="1725" y="384" type="curve" smooth="yes"/>
      <point x="1725" y="379" type="line" smooth="yes"/>
      <point x="1725" y="287"/>
      <point x="1697" y="205"/>
      <point x="1655" y="137" type="curve"/>
      <point x="1697" y="137" type="line"/>
      <point x="1737" y="205"/>
      <point x="1763" y="286"/>
      <point x="1763" y="379" type="curve" smooth="yes"/>
      <point x="1763" y="384" type="line" smooth="yes"/>
      <point x="1763" y="630"/>
      <point x="1616" y="762"/>
      <point x="1347" y="762" type="curve" smooth="yes"/>
      <point x="1153" y="762"/>
      <point x="1011" y="673"/>
      <point x="970" y="518" type="curve"/>
      <point x="969" y="518" type="line"/>
      <point x="971" y="582"/>
      <point x="973" y="639"/>
      <point x="973" y="717" type="curve" smooth="yes"/>
      <point x="973" y="1122" type="line"/>
    </contour>
  </outline>
  <guideline angle="0" x="0" y="449"/>
</glyph>
<glyph name="Muru.kn" format="2">
  <advance width="1584"/>
  <unicode hex="0CE9"/>
  <outline>
    <contour>
      <point x="1532" y="-25" type="curve" smooth="yes"/>
      <point x="1560" y="-25" type="line"/>
      <point x="1567" y="10" type="line"/>
      <point x="1533" y="10" type="line" smooth="yes"/>
      <point x="1296.82" y="10"/>
      <point x="1183.03" y="104.657"/>
      <point x="1095" y="286" type="curve"/>
      <point x="1095" y="287" type="line"/>
      <point x="1072" y="287" type="line"/>
      <point x="1072" y="266" type="line"/>
      <point x="1158.85" y="75"/>
      <point x="1282.16" y="-25"/>
    </contour>
    <contour>
      <point x="584" y="-30" type="curve" smooth="yes"/>
      <point x="843.914" y="-30"/>
      <point x="1018.5" y="70"/>
      <point x="1095" y="268" type="curve"/>
      <point x="1087" y="269" type="line"/>
      <point x="1096" y="266" type="line"/>
      <point x="1131" y="350"/>
      <point x="1148" y="450"/>
      <point x="1148" y="565" type="curve"/>
      <point x="1148" y="567" type="line"/>
      <point x="1148" y="958"/>
      <point x="969.389" y="1157"/>
      <point x="621" y="1157" type="curve" smooth="yes"/>
      <point x="332.512" y="1157"/>
      <point x="178" y="1035"/>
      <point x="178" y="809" type="curve"/>
      <point x="178" y="808" type="line"/>
      <point x="178" y="756"/>
      <point x="190" y="699"/>
      <point x="214" y="659" type="curve"/>
      <point x="254" y="659" type="line"/>
      <point x="228" y="704"/>
      <point x="216" y="757"/>
      <point x="216" y="808" type="curve"/>
      <point x="216" y="809" type="line"/>
      <point x="216" y="1012"/>
      <point x="359.458" y="1123"/>
      <point x="621" y="1123" type="curve" smooth="yes"/>
      <point x="944.387" y="1123"/>
      <point x="1110" y="933"/>
      <point x="1110" y="567" type="curve"/>
      <point x="1110" y="565" type="line"/>
      <point x="1110" y="466"/>
      <point x="1096.69" y="380.107"/>
      <point x="1072" y="307" type="curve" smooth="yes"/>
      <point x="1070.68" y="303.094"/>
      <point x="1069.09" y="299.97"/>
      <point x="1068" y="297" type="curve" smooth="yes"/>
      <point x="997.463" y="104"/>
      <point x="836.797" y="4"/>
      <point x="586" y="4" type="curve" smooth="yes"/>
      <point x="331.493" y="4"/>
      <point x="194" y="98"/>
      <point x="194" y="276" type="curve" smooth="yes"/>
      <point x="194" y="280" type="line" smooth="yes"/>
      <point x="194" y="448"/>
      <point x="319.605" y="540"/>
      <point x="564" y="540" type="curve" smooth="yes"/>
      <point x="789.508" y="540"/>
      <point x="978.738" y="451"/>
      <point x="1066" y="277" type="curve"/>
      <point x="1081" y="302" type="line"/>
      <point x="1011.34" y="464"/>
      <point x="819.057" y="574"/>
      <point x="563" y="574" type="curve" smooth="yes"/>
      <point x="296.547" y="574"/>
      <point x="156" y="473"/>
      <point x="156" y="280" type="curve" smooth="yes"/>
      <point x="156" y="275" type="line" smooth="yes"/>
      <point x="156" y="75"/>
      <point x="305.507" y="-30"/>
    </contour>
  </outline>
</glyph>
<glyph name="Nalku.kn" format="2">
  <advance width="1726"/>
  <unicode hex="0CEA"/>
  <outline>
    <contour>
      <point x="885" y="398" type="curve" smooth="yes"/>
      <point x="1131" y="398"/>
      <point x="1280" y="333.33"/>
      <point x="1280" y="202" type="curve" smooth="yes"/>
      <point x="1280" y="196" type="line" smooth="yes"/>
      <point x="1280" y="64.6735"/>
      <point x="1131" y="1"/>
      <point x="885" y="1" type="curve" smooth="yes"/>
      <point x="639" y="1"/>
      <point x="490" y="64.6735"/>
      <point x="490" y="196" type="curve" smooth="yes"/>
      <point x="490" y="202" type="line" smooth="yes"/>
      <point x="490" y="333.33"/>
      <point x="639" y="398"/>
    </contour>
    <contour>
      <point x="885" y="420" type="line"/>
      <point x="764" y="412" type="line"/>
      <point x="567" y="406"/>
      <point x="452" y="326"/>
      <point x="452" y="200" type="curve" smooth="yes"/>
      <point x="452" y="193" type="line" smooth="yes"/>
      <point x="452" y="43"/>
      <point x="619" y="-34"/>
      <point x="885" y="-34" type="curve" smooth="yes"/>
      <point x="1151" y="-34"/>
      <point x="1318" y="43"/>
      <point x="1318" y="193" type="curve" smooth="yes"/>
      <point x="1318" y="200" type="line" smooth="yes"/>
      <point x="1318" y="326"/>
      <point x="1203" y="406"/>
      <point x="1006" y="412" type="curve"/>
    </contour>
    <contour>
      <point x="806" y="404" type="curve"/>
      <point x="884" y="408" type="line"/>
      <point x="932" y="404" type="line"/>
      <point x="1375" y="404"/>
      <point x="1624" y="542"/>
      <point x="1624" y="804" type="curve" smooth="yes"/>
      <point x="1624" y="807" type="line" smooth="yes"/>
      <point x="1624" y="1030"/>
      <point x="1466" y="1139"/>
      <point x="1184" y="1139" type="curve" smooth="yes"/>
      <point x="1163" y="1139"/>
      <point x="1154" y="1138"/>
      <point x="1137" y="1137" type="curve"/>
      <point x="1137" y="1102" type="line"/>
      <point x="1150" y="1103"/>
      <point x="1164" y="1104"/>
      <point x="1183" y="1104" type="curve" smooth="yes"/>
      <point x="1443" y="1104"/>
      <point x="1586" y="1008.32"/>
      <point x="1586" y="807" type="curve" smooth="yes"/>
      <point x="1586" y="804" type="line" smooth="yes"/>
      <point x="1586" y="558.656"/>
      <point x="1344" y="430"/>
      <point x="884" y="430" type="curve" smooth="yes"/>
      <point x="373.25" y="430"/>
      <point x="141" y="549.053"/>
      <point x="141" y="807" type="curve"/>
      <point x="141" y="809" type="line"/>
      <point x="103" y="809.264" type="line"/>
      <point x="103" y="807" type="line" smooth="yes"/>
      <point x="103" y="534"/>
      <point x="345.379" y="404"/>
    </contour>
    <contour>
      <point x="141" y="808" type="line"/>
      <point x="141" y="810" type="line"/>
      <point x="141" y="972.54"/>
      <point x="239" y="1122"/>
      <point x="515" y="1122" type="curve" smooth="yes"/>
      <point x="730" y="1122"/>
      <point x="847" y="1035.37"/>
      <point x="847" y="888" type="curve" smooth="yes"/>
      <point x="847" y="883" type="line" smooth="yes"/>
      <point x="847" y="742.632"/>
      <point x="739" y="661"/>
      <point x="540" y="661" type="curve" smooth="yes"/>
      <point x="353.632" y="661"/>
      <point x="214.571" y="733.925"/>
      <point x="138" y="853" type="curve"/>
      <point x="122" y="806" type="line"/>
      <point x="142" y="806" type="line"/>
      <point x="213" y="699"/>
      <point x="356" y="626"/>
      <point x="541" y="626" type="curve" smooth="yes"/>
      <point x="762" y="626"/>
      <point x="885" y="718"/>
      <point x="885" y="883" type="curve" smooth="yes"/>
      <point x="885" y="888" type="line" smooth="yes"/>
      <point x="885" y="1058"/>
      <point x="750" y="1157"/>
      <point x="515" y="1157" type="curve" smooth="yes"/>
      <point x="242" y="1157"/>
      <point x="103" y="1024"/>
      <point x="103" y="811" type="curve" smooth="yes"/>
      <point x="103" y="807.799" type="line"/>
    </contour>
  </outline>
</glyph>
<glyph name="Yelu.kn" format="2">
  <advance width="1560"/>
  <unicode hex="0CED"/>
  <outline>
    <contour>
      <point x="637" y="1157" type="curve" smooth="yes"/>
      <point x="357" y="1157"/>
      <point x="206" y="1042"/>
      <point x="206" y="822" type="curve" smooth="yes"/>
      <point x="206" y="819" type="line" smooth="yes"/>
      <point x="206" y="754"/>
      <point x="220" y="694"/>
      <point x="248" y="639" type="curve"/>
      <point x="289" y="639" type="line"/>
      <point x="259" y="696"/>
      <point x="244" y="757"/>
      <point x="244" y="819" type="curve" smooth="yes"/>
      <point x="244" y="822" type="line" smooth="yes"/>
      <point x="244" y="1019.34"/>
      <point x="380" y="1122"/>
      <point x="636" y="1122" type="curve" smooth="yes"/>
      <point x="879" y="1122"/>
      <point x="1011" y="1037.34"/>
      <point x="1011" y="874" type="curve" smooth="yes"/>
      <point x="1011" y="868" type="line" smooth="yes"/>
      <point x="1011" y="738.5"/>
      <point x="933.858" y="658.482"/>
      <point x="702" y="609" type="curve" smooth="yes"/>
      <point x="538" y="574" type="line" smooth="yes"/>
      <point x="250.054" y="512.548"/>
      <point x="153" y="422.511"/>
      <point x="153" y="264" type="curve" smooth="yes"/>
      <point x="153" y="257" type="line" smooth="yes"/>
      <point x="153" y="94"/>
      <point x="274" y="0"/>
      <point x="530" y="0" type="curve" smooth="yes"/>
      <point x="1534" y="0" type="line"/>
      <point x="1541" y="33" type="line"/>
      <point x="531" y="33" type="line" smooth="yes"/>
      <point x="300" y="33"/>
      <point x="191" y="114.636"/>
      <point x="191" y="257" type="curve" smooth="yes"/>
      <point x="191" y="264" type="line" smooth="yes"/>
      <point x="191" y="402"/>
      <point x="285" y="484"/>
      <point x="547" y="540" type="curve" smooth="yes"/>
      <point x="714" y="576" type="line" smooth="yes"/>
      <point x="964" y="630"/>
      <point x="1049" y="721"/>
      <point x="1049" y="869" type="curve" smooth="yes"/>
      <point x="1049" y="874" type="line" smooth="yes"/>
      <point x="1049" y="1059"/>
      <point x="904" y="1157"/>
    </contour>
  </outline>
</glyph>
<glyph name="Upadhmaniya.kn" format="2">
  <advance width="1879"/>
  <unicode hex="0CF2"/>
  <outline>
    <contour>
      <point x="475" y="849" type="curve" smooth="yes"/>
      <point x="226" y="849"/>
      <point x="100" y="733"/>
      <point x="100" y="526" type="curve" smooth="yes"/>
      <point x="100" y="523" type="line" smooth="yes"/>
      <point x="100" y="318"/>
      <point x="226" y="200"/>
      <point x="475" y="200" type="curve" smooth="yes"/>
      <point x="726" y="200"/>
      <point x="853" y="318"/>
      <point x="853" y="523" type="curve" smooth="yes"/>
      <point x="853" y="526" type="line" smooth="yes"/>
      <point x="853" y="733"/>
      <point x="726" y="849"/>
    </contour>
    <contour>
      <point x="475" y="814" type="curve" smooth="yes"/>
      <point x="701" y="814"/>
      <point x="815" y="710.36"/>
      <point x="815" y="526" type="curve" smooth="yes"/>
      <point x="815" y="523" type="line" smooth="yes"/>
      <point x="815" y="340.633"/>
      <point x="701" y="235"/>
      <point x="475" y="235" type="curve" smooth="yes"/>
      <point x="251" y="235"/>
      <point x="138" y="340.633"/>
      <point x="138" y="523" type="curve" smooth="yes"/>
      <point x="138" y="526" type="line" smooth="yes"/>
      <point x="138" y="710.36"/>
      <point x="251" y="814"/>
    </contour>
    <contour>
      <point x="1401" y="849" type="curve" smooth="yes"/>
      <point x="1152" y="849"/>
      <point x="1026" y="733"/>
      <point x="1026" y="526" type="curve" smooth="yes"/>
      <point x="1026" y="523" type="line" smooth="yes"/>
      <point x="1026" y="318"/>
      <point x="1152" y="200"/>
      <point x="1401" y="200" type="curve" smooth="yes"/>
      <point x="1652" y="200"/>
      <point x="1779" y="318"/>
      <point x="1779" y="523" type="curve" smooth="yes"/>
      <point x="1779" y="526" type="line" smooth="yes"/>
      <point x="1779" y="733"/>
      <point x="1652" y="849"/>
    </contour>
    <contour>
      <point x="1401" y="814" type="curve" smooth="yes"/>
      <point x="1627" y="814"/>
      <point x="1741" y="710.36"/>
      <point x="1741" y="526" type="curve" smooth="yes"/>
      <point x="1741" y="523" type="line" smooth="yes"/>
      <point x="1741" y="340.633"/>
      <point x="1627" y="235"/>
      <point x="1401" y="235" type="curve" smooth="yes"/>
      <point x="1177" y="235"/>
      <point x="1064" y="340.633"/>
      <point x="1064" y="523" type="curve" smooth="yes"/>
      <point x="1064" y="526" type="line" smooth="yes"/>
      <point x="1064" y="710.36"/>
      <point x="1177" y="814"/>
    </contour>
  </outline>
</glyph>
<glyph name="quoteright" format="2">
  <advance width="384"/>
  <unicode hex="2019"/>
  <outline>
    <contour>
      <point x="202" y="1324" type="line"/>
      <point x="207" y="1286"/>
      <point x="211" y="1247"/>
      <point x="211" y="1202" type="curve" smooth="yes"/>
      <point x="211" y="1057"/>
      <point x="179" y="943"/>
      <point x="84" y="829" type="curve"/>
      <point x="108" y="807" type="line"/>
      <point x="213" y="927"/>
      <point x="248" y="1051"/>
      <point x="248" y="1204" type="curve" smooth="yes"/>
      <point x="248" y="1256"/>
      <point x="243" y="1300"/>
      <point x="239" y="1324" type="curve"/>
    </contour>
  </outline>
</glyph>
<glyph name="fraction" format="2">
  <advance width="674"/>
  <unicode hex="2044"/>
  <outline>
    <contour>
      <point x="-255" y="0" type="line"/>
      <point x="994" y="1278" type="line"/>
      <point x="949" y="1278" type="line"/>
      <point x="-300" y="0" type="line"/>
    </contour>
  </outline>
</glyph>
<glyph name="BamatraI.kn" format="2">
  <advance width="2127"/>
  <outline>
    <contour>
      <point x="614" y="1157" type="curve" smooth="yes"/>
      <point x="337" y="1157"/>
      <point x="188" y="1042"/>
      <point x="188" y="822" type="curve" smooth="yes"/>
      <point x="188" y="819" type="line" smooth="yes"/>
      <point x="188" y="754"/>
      <point x="202" y="694"/>
      <point x="230" y="639" type="curve"/>
      <point x="271" y="639" type="line"/>
      <point x="241" y="696"/>
      <point x="226" y="757"/>
      <point x="226" y="819" type="curve" smooth="yes"/>
      <point x="226" y="822" type="line" smooth="yes"/>
      <point x="226" y="1019.34"/>
      <point x="360" y="1122"/>
      <point x="613" y="1122" type="curve" smooth="yes"/>
      <point x="853" y="1122"/>
      <point x="983" y="1037.34"/>
      <point x="983" y="875" type="curve" smooth="yes"/>
      <point x="983" y="869" type="line" smooth="yes"/>
      <point x="983" y="740.5"/>
      <point x="902.878" y="675.198"/>
      <point x="674" y="612" type="curve" smooth="yes"/>
      <point x="540" y="575" type="line" smooth="yes"/>
      <point x="256.973" y="496.851"/>
      <point x="155" y="422.519"/>
      <point x="155" y="258" type="curve" smooth="yes"/>
      <point x="155" y="251" type="line" smooth="yes"/>
      <point x="155" y="74"/>
      <point x="305.098" y="-30"/>
      <point x="591" y="-30" type="curve" smooth="yes"/>
      <point x="895.85" y="-30"/>
      <point x="1039.61" y="108"/>
      <point x="1060" y="323" type="curve"/>
      <point x="1071" y="323" type="line"/>
      <point x="1071" y="451" type="line"/>
      <point x="1042" y="451" type="line"/>
      <point x="1041" y="419" type="line" smooth="yes"/>
      <point x="1032.27" y="139.66"/>
      <point x="889.973" y="5"/>
      <point x="592" y="5" type="curve" smooth="yes"/>
      <point x="331.115" y="5"/>
      <point x="193" y="96.6275"/>
      <point x="193" y="251" type="curve" smooth="yes"/>
      <point x="193" y="258" type="line" smooth="yes"/>
      <point x="193" y="401"/>
      <point x="291" y="469"/>
      <point x="549" y="541" type="curve" smooth="yes"/>
      <point x="686" y="579" type="line" smooth="yes"/>
      <point x="933" y="648"/>
      <point x="1021" y="723"/>
      <point x="1021" y="870" type="curve" smooth="yes"/>
      <point x="1021" y="875" type="line" smooth="yes"/>
      <point x="1021" y="1059"/>
      <point x="878" y="1157"/>
    </contour>
    <contour>
      <point x="1960" y="646" type="curve" smooth="yes"/>
      <point x="1960" y="651" type="line" smooth="yes"/>
      <point x="1960" y="761.015"/>
      <point x="1948.29" y="877.589"/>
      <point x="1915.68" y="981.525" type="curve" smooth="yes"/>
      <point x="1859.96" y="1159.13"/>
      <point x="1737.08" y="1294"/>
      <point x="1502.4" y="1294" type="curve" smooth="yes"/>
      <point x="1281.4" y="1294"/>
      <point x="1158.4" y="1195"/>
      <point x="1158.4" y="1018" type="curve" smooth="yes"/>
      <point x="1158.4" y="1013" type="line" smooth="yes"/>
      <point x="1158.4" y="837"/>
      <point x="1281.4" y="740"/>
      <point x="1507.4" y="740" type="curve" smooth="yes"/>
      <point x="1705.5" y="740"/>
      <point x="1827.32" y="840.203"/>
      <point x="1882.4" y="963" type="curve"/>
      <point x="1898.4" y="963" type="line"/>
      <point x="1871.4" y="1009" type="line"/>
      <point x="1814.44" y="875.286"/>
      <point x="1697.63" y="775"/>
      <point x="1508.4" y="775" type="curve" smooth="yes"/>
      <point x="1305.4" y="775"/>
      <point x="1196.4" y="860.64"/>
      <point x="1196.4" y="1013" type="curve" smooth="yes"/>
      <point x="1196.4" y="1018" type="line" smooth="yes"/>
      <point x="1196.4" y="1173.36"/>
      <point x="1303.4" y="1259"/>
      <point x="1502.4" y="1259" type="curve" smooth="yes"/>
      <point x="1681.09" y="1259"/>
      <point x="1816.77" y="1160.88"/>
      <point x="1871.4" y="990" type="curve" smooth="yes"/>
      <point x="1872.08" y="987.87"/>
      <point x="1873.4" y="985"/>
      <point x="1874.4" y="983" type="curve" smooth="yes"/>
      <point x="1875.4" y="981"/>
      <point x="1876.4" y="978"/>
      <point x="1877.4" y="976" type="curve"/>
      <point x="1877.49" y="975.824"/>
      <point x="1879.31" y="972.176"/>
      <point x="1879.4" y="972" type="curve"/>
      <point x="1881.4" y="967" type="line"/>
      <point x="1907.78" y="880.263"/>
      <point x="1922" y="775.294"/>
      <point x="1922" y="652" type="curve" smooth="yes"/>
      <point x="1922" y="646" type="line" smooth="yes"/>
      <point x="1922" y="223.659"/>
      <point x="1769.35" y="5"/>
      <point x="1480" y="5" type="curve" smooth="yes"/>
      <point x="1215.38" y="5"/>
      <point x="1089.73" y="139.657"/>
      <point x="1081" y="419" type="curve" smooth="yes"/>
      <point x="1080" y="451" type="line"/>
      <point x="1047" y="451" type="line"/>
      <point x="1062" y="323" type="line"/>
      <point x="1079.54" y="108"/>
      <point x="1208.55" y="-30"/>
      <point x="1481" y="-30" type="curve" smooth="yes"/>
      <point x="1795.34" y="-30"/>
      <point x="1960" y="201"/>
    </contour>
  </outline>
  <guideline angle="90" x="1043" y="0"/>
  <guideline angle="90" x="2120" y="0"/>
  <guideline angle="90" x="505" y="0"/>
</glyph>
<glyph name="BhamatraAu.kn" format="2">
  <advance width="2934"/>
  <outline>
    <component base="BamatraAu.kn"/>
    <contour>
      <point x="1042" y="-383" type="curve" smooth="yes"/>
      <point x="1063" y="-383"/>
      <point x="1071" y="-368"/>
      <point x="1071" y="-336" type="curve" smooth="yes"/>
      <point x="1071" y="-269" type="line" smooth="yes"/>
      <point x="1071" y="-98"/>
      <point x="1064" y="16"/>
      <point x="1042" y="111" type="curve"/>
      <point x="1021" y="16"/>
      <point x="1014" y="-98"/>
      <point x="1014" y="-269" type="curve" smooth="yes"/>
      <point x="1014" y="-336" type="line" smooth="yes"/>
      <point x="1014" y="-368"/>
      <point x="1022" y="-383"/>
    </contour>
  </outline>
  <guideline angle="0" x="0" y="4833"/>
  <guideline angle="90" x="1312" y="0"/>
  <guideline angle="90" x="155" y="0"/>
</glyph>
<glyph name="BhamatraI.kn.1" format="2">
  <advance width="2127"/>
  <outline>
    <component base="BamatraI.kn.1"/>
    <contour>
      <point x="1061" y="-383" type="curve" smooth="yes"/>
      <point x="1082" y="-383"/>
      <point x="1090" y="-368"/>
      <point x="1090" y="-336" type="curve" smooth="yes"/>
      <point x="1090" y="-269" type="line" smooth="yes"/>
      <point x="1090" y="-98"/>
      <point x="1083" y="16"/>
      <point x="1061" y="111" type="curve"/>
      <point x="1040" y="16"/>
      <point x="1033" y="-98"/>
      <point x="1033" y="-269" type="curve" smooth="yes"/>
      <point x="1033" y="-336" type="line" smooth="yes"/>
      <point x="1033" y="-368"/>
      <point x="1041" y="-383"/>
    </contour>
  </outline>
  <guideline angle="90" x="1312" y="0"/>
  <guideline angle="90" x="155" y="0"/>
</glyph>
<glyph name="CaHalant.kn" format="2">
  <advance width="2860"/>
  <outline>
    <component base="Halant.kn" xOffset="2134"/>
    <contour>
      <point x="1566" y="603" type="line"/>
      <point x="1670" y="598" type="line"/>
      <point x="1670" y="604" type="line"/>
      <point x="1979" y="603" type="line"/>
      <point x="1979" y="636" type="line"/>
      <point x="1660" y="635" type="line"/>
      <point x="1505" y="636" type="line"/>
      <point x="1248" y="636" type="line"/>
      <point x="1248" y="603" type="line"/>
    </contour>
    <contour>
      <point x="1599" y="1089" type="line"/>
      <point x="1599" y="1122" type="line"/>
      <point x="1218" y="1122" type="line"/>
      <point x="1218" y="1089" type="line"/>
    </contour>
    <contour>
      <point x="1905" y="310" type="line"/>
      <point x="1905" y="462.522"/>
      <point x="1813.84" y="567.88"/>
      <point x="1670" y="603" type="curve"/>
      <point x="1504" y="614" type="line"/>
      <point x="1505" y="603" type="line"/>
      <point x="1742" y="603"/>
      <point x="1867" y="490"/>
      <point x="1867" y="310" type="curve"/>
      <point x="1867" y="309" type="line"/>
      <point x="1867" y="122.613"/>
      <point x="1739" y="5"/>
      <point x="1496" y="5" type="curve" smooth="yes"/>
      <point x="1212" y="5"/>
      <point x="1071.73" y="139.666"/>
      <point x="1063" y="419" type="curve" smooth="yes"/>
      <point x="1062" y="451" type="line"/>
      <point x="1043" y="451" type="line"/>
      <point x="1044" y="323" type="line"/>
      <point x="1063" y="108"/>
      <point x="1206" y="-30"/>
      <point x="1497" y="-30" type="curve" smooth="yes"/>
      <point x="1766" y="-30"/>
      <point x="1905" y="100"/>
      <point x="1905" y="309" type="curve"/>
    </contour>
    <contour>
      <point x="1835" y="863" type="line"/>
      <point x="1835" y="979.48"/>
      <point x="1768" y="1059.12"/>
      <point x="1663" y="1087" type="curve"/>
      <point x="1663" y="1101" type="line"/>
      <point x="1495" y="1103" type="line"/>
      <point x="1495" y="1089" type="line"/>
      <point x="1692" y="1089"/>
      <point x="1797" y="1002.38"/>
      <point x="1797" y="863" type="curve"/>
      <point x="1797" y="862" type="line"/>
      <point x="1797" y="723.612"/>
      <point x="1692" y="636"/>
      <point x="1495" y="636" type="curve"/>
      <point x="1495" y="623" type="line"/>
      <point x="1660" y="623" type="line"/>
      <point x="1660" y="636" type="line"/>
      <point x="1766.83" y="663"/>
      <point x="1835" y="745"/>
      <point x="1835" y="862" type="curve"/>
    </contour>
    <contour>
      <point x="614" y="1157" type="curve" smooth="yes"/>
      <point x="337" y="1157"/>
      <point x="188" y="1042"/>
      <point x="188" y="822" type="curve" smooth="yes"/>
      <point x="188" y="819" type="line" smooth="yes"/>
      <point x="188" y="754"/>
      <point x="202" y="694"/>
      <point x="230" y="639" type="curve"/>
      <point x="271" y="639" type="line"/>
      <point x="241" y="696"/>
      <point x="226" y="757"/>
      <point x="226" y="819" type="curve" smooth="yes"/>
      <point x="226" y="822" type="line" smooth="yes"/>
      <point x="226" y="1019.34"/>
      <point x="360" y="1122"/>
      <point x="613" y="1122" type="curve" smooth="yes"/>
      <point x="853" y="1122"/>
      <point x="983" y="1037.34"/>
      <point x="983" y="875" type="curve" smooth="yes"/>
      <point x="983" y="869" type="line" smooth="yes"/>
      <point x="983" y="740.5"/>
      <point x="902.878" y="675.198"/>
      <point x="674" y="612" type="curve" smooth="yes"/>
      <point x="540" y="575" type="line" smooth="yes"/>
      <point x="256.973" y="496.851"/>
      <point x="155" y="422.519"/>
      <point x="155" y="258" type="curve" smooth="yes"/>
      <point x="155" y="251" type="line" smooth="yes"/>
      <point x="155" y="74"/>
      <point x="302" y="-30"/>
      <point x="582" y="-30" type="curve" smooth="yes"/>
      <point x="881" y="-30"/>
      <point x="1022" y="108"/>
      <point x="1042" y="323" type="curve"/>
      <point x="1053" y="323" type="line"/>
      <point x="1053" y="451" type="line"/>
      <point x="1024" y="451" type="line"/>
      <point x="1023" y="419" type="line" smooth="yes"/>
      <point x="1014.27" y="139.666"/>
      <point x="875" y="5"/>
      <point x="583" y="5" type="curve" smooth="yes"/>
      <point x="328" y="5"/>
      <point x="193" y="96.6275"/>
      <point x="193" y="251" type="curve" smooth="yes"/>
      <point x="193" y="258" type="line" smooth="yes"/>
      <point x="193" y="401"/>
      <point x="291" y="469"/>
      <point x="549" y="541" type="curve" smooth="yes"/>
      <point x="686" y="579" type="line" smooth="yes"/>
      <point x="933" y="648"/>
      <point x="1021" y="723"/>
      <point x="1021" y="870" type="curve" smooth="yes"/>
      <point x="1021" y="875" type="line" smooth="yes"/>
      <point x="1021" y="1059"/>
      <point x="878" y="1157"/>
    </contour>
  </outline>
  <guideline angle="90" x="4788" y="0"/>
  <guideline angle="90" x="2769" y="0"/>
  <guideline angle="90" x="6022" y="0"/>
  <guideline angle="90" x="1921" y="0"/>
</glyph>
<glyph name="CamatraI.kn" format="2">
  <advance width="2084"/>
  <outline>
    <contour>
      <point x="1566" y="603" type="line"/>
      <point x="1671" y="598" type="line"/>
      <point x="1671" y="604" type="line"/>
      <point x="1979" y="603" type="line"/>
      <point x="1979" y="636" type="line"/>
      <point x="1670" y="635" type="line"/>
      <point x="1505" y="636" type="line"/>
      <point x="1248" y="636" type="line"/>
      <point x="1248" y="603" type="line"/>
    </contour>
    <contour>
      <point x="1905" y="310" type="line"/>
      <point x="1905" y="463.045"/>
      <point x="1814.22" y="567.759"/>
      <point x="1671" y="603" type="curve"/>
      <point x="1504" y="614" type="line"/>
      <point x="1505" y="603" type="line"/>
      <point x="1742" y="603"/>
      <point x="1867" y="490"/>
      <point x="1867" y="310" type="curve"/>
      <point x="1867" y="309" type="line"/>
      <point x="1867" y="122.613"/>
      <point x="1739" y="5"/>
      <point x="1496" y="5" type="curve" smooth="yes"/>
      <point x="1212" y="5"/>
      <point x="1071.73" y="139.666"/>
      <point x="1063" y="419" type="curve" smooth="yes"/>
      <point x="1062" y="451" type="line"/>
      <point x="1043" y="451" type="line"/>
      <point x="1044" y="323" type="line"/>
      <point x="1063" y="108"/>
      <point x="1206" y="-30"/>
      <point x="1497" y="-30" type="curve" smooth="yes"/>
      <point x="1766" y="-30"/>
      <point x="1905" y="100"/>
      <point x="1905" y="309" type="curve"/>
    </contour>
    <contour>
      <point x="614" y="1157" type="curve" smooth="yes"/>
      <point x="337" y="1157"/>
      <point x="188" y="1042"/>
      <point x="188" y="822" type="curve" smooth="yes"/>
      <point x="188" y="819" type="line" smooth="yes"/>
      <point x="188" y="754"/>
      <point x="202" y="694"/>
      <point x="230" y="639" type="curve"/>
      <point x="271" y="639" type="line"/>
      <point x="241" y="696"/>
      <point x="226" y="757"/>
      <point x="226" y="819" type="curve" smooth="yes"/>
      <point x="226" y="822" type="line" smooth="yes"/>
      <point x="226" y="1019.34"/>
      <point x="360" y="1122"/>
      <point x="613" y="1122" type="curve" smooth="yes"/>
      <point x="853" y="1122"/>
      <point x="983" y="1037.34"/>
      <point x="983" y="875" type="curve" smooth="yes"/>
      <point x="983" y="869" type="line" smooth="yes"/>
      <point x="983" y="740.5"/>
      <point x="902.878" y="675.198"/>
      <point x="674" y="612" type="curve" smooth="yes"/>
      <point x="540" y="575" type="line" smooth="yes"/>
      <point x="256.973" y="496.851"/>
      <point x="155" y="422.519"/>
      <point x="155" y="258" type="curve" smooth="yes"/>
      <point x="155" y="251" type="line" smooth="yes"/>
      <point x="155" y="74"/>
      <point x="302" y="-30"/>
      <point x="582" y="-30" type="curve" smooth="yes"/>
      <point x="881" y="-30"/>
      <point x="1022" y="108"/>
      <point x="1042" y="323" type="curve"/>
      <point x="1053" y="323" type="line"/>
      <point x="1053" y="451" type="line"/>
      <point x="1024" y="451" type="line"/>
      <point x="1023" y="419" type="line" smooth="yes"/>
      <point x="1014.27" y="139.666"/>
      <point x="875" y="5"/>
      <point x="583" y="5" type="curve" smooth="yes"/>
      <point x="328" y="5"/>
      <point x="193" y="96.6275"/>
      <point x="193" y="251" type="curve" smooth="yes"/>
      <point x="193" y="258" type="line" smooth="yes"/>
      <point x="193" y="401"/>
      <point x="291" y="469"/>
      <point x="549" y="541" type="curve" smooth="yes"/>
      <point x="686" y="579" type="line" smooth="yes"/>
      <point x="933" y="648"/>
      <point x="1021" y="723"/>
      <point x="1021" y="870" type="curve" smooth="yes"/>
      <point x="1021" y="875" type="line" smooth="yes"/>
      <point x="1021" y="1059"/>
      <point x="878" y="1157"/>
    </contour>
    <contour>
      <point x="1493" y="1352" type="curve" smooth="yes"/>
      <point x="1279" y="1352"/>
      <point x="1159" y="1259"/>
      <point x="1159" y="1092" type="curve" smooth="yes"/>
      <point x="1159" y="1087" type="line" smooth="yes"/>
      <point x="1159" y="921"/>
      <point x="1279" y="830"/>
      <point x="1498" y="830" type="curve" smooth="yes"/>
      <point x="1662" y="830"/>
      <point x="1792" y="898"/>
      <point x="1854" y="1001" type="curve"/>
      <point x="1872" y="1001" type="line"/>
      <point x="1860" y="1055" type="line"/>
      <point x="1792.5" y="936"/>
      <point x="1664.67" y="865"/>
      <point x="1499" y="865" type="curve" smooth="yes"/>
      <point x="1303" y="865"/>
      <point x="1197" y="944.641"/>
      <point x="1197" y="1087" type="curve" smooth="yes"/>
      <point x="1197" y="1092" type="line" smooth="yes"/>
      <point x="1197" y="1237.35"/>
      <point x="1300" y="1317"/>
      <point x="1493" y="1317" type="curve" smooth="yes"/>
      <point x="1723.02" y="1317"/>
      <point x="1855" y="1197.43"/>
      <point x="1855" y="1002" type="curve" smooth="yes"/>
      <point x="1855" y="995" type="line" smooth="yes"/>
      <point x="1855" y="757.034"/>
      <point x="1729" y="636"/>
      <point x="1485" y="636" type="curve"/>
      <point x="1670" y="621" type="line"/>
      <point x="1670" y="636" type="line"/>
      <point x="1817.32" y="686.553"/>
      <point x="1893" y="806.231"/>
      <point x="1893" y="994" type="curve" smooth="yes"/>
      <point x="1893" y="1003" type="line" smooth="yes"/>
      <point x="1893" y="1222"/>
      <point x="1747.62" y="1352"/>
    </contour>
  </outline>
  <guideline angle="0" x="0" y="1390"/>
</glyph>
<glyph name="CamatraUu.kn" format="2">
  <advance width="3894"/>
  <outline>
    <component base="Ca.kn"/>
    <contour>
      <point x="2211" y="5" type="curve" smooth="yes"/>
      <point x="2011" y="5"/>
      <point x="1904" y="111.671"/>
      <point x="1904" y="329" type="curve"/>
      <point x="1904" y="329"/>
      <point x="1904" y="336"/>
      <point x="1904" y="336" type="curve"/>
      <point x="1877" y="334" type="line"/>
      <point x="1877" y="328" type="line" smooth="yes"/>
      <point x="1877" y="88"/>
      <point x="1996.36" y="-30"/>
      <point x="2211" y="-30" type="curve" smooth="yes"/>
      <point x="2429" y="-30"/>
      <point x="2551" y="87"/>
      <point x="2551" y="334" type="curve" smooth="yes"/>
      <point x="2551" y="507" type="line"/>
      <point x="2514" y="510" type="line"/>
      <point x="2514" y="335" type="line" smooth="yes"/>
      <point x="2514" y="110.68"/>
      <point x="2409" y="5"/>
    </contour>
    <contour>
      <point x="3122.45" y="1157" type="curve" smooth="yes"/>
      <point x="2725.45" y="1157"/>
      <point x="2514.45" y="960"/>
      <point x="2514.45" y="580" type="curve" smooth="yes"/>
      <point x="2514.45" y="454" type="line"/>
      <point x="2551.45" y="454" type="line"/>
      <point x="2551.45" y="577" type="line" smooth="yes"/>
      <point x="2551.45" y="937.339"/>
      <point x="2748.45" y="1122"/>
      <point x="3122.45" y="1122" type="curve" smooth="yes"/>
      <point x="3494.45" y="1122"/>
      <point x="3689.45" y="912.335"/>
      <point x="3689.45" y="496" type="curve" smooth="yes"/>
      <point x="3689.45" y="484.28" type="line"/>
      <point x="3727.45" y="485.444" type="line"/>
      <point x="3727.45" y="497" type="line" smooth="yes"/>
      <point x="3727.45" y="934"/>
      <point x="3518.45" y="1157"/>
    </contour>
    <contour>
      <point x="3727.45" y="488.444" type="line"/>
      <point x="3689.45" y="487.28" type="line"/>
      <point x="3689.45" y="473" type="line" smooth="yes"/>
      <point x="3689.45" y="163.95"/>
      <point x="3564.4" y="5"/>
      <point x="3318.45" y="5" type="curve" smooth="yes"/>
      <point x="3087.45" y="5"/>
      <point x="2966.45" y="111.635"/>
      <point x="2966.45" y="297" type="curve" smooth="yes"/>
      <point x="2966.45" y="302" type="line" smooth="yes"/>
      <point x="2966.45" y="482.372"/>
      <point x="3082.45" y="589"/>
      <point x="3309.45" y="589" type="curve" smooth="yes"/>
      <point x="3487.76" y="589"/>
      <point x="3618.5" y="511.237"/>
      <point x="3691.45" y="392" type="curve"/>
      <point x="3706.45" y="441" type="line"/>
      <point x="3688.45" y="441" type="line"/>
      <point x="3621.45" y="550"/>
      <point x="3485.45" y="624"/>
      <point x="3308.45" y="624" type="curve" smooth="yes"/>
      <point x="3059.45" y="624"/>
      <point x="2928.45" y="507"/>
      <point x="2928.45" y="302" type="curve" smooth="yes"/>
      <point x="2928.45" y="297" type="line" smooth="yes"/>
      <point x="2928.45" y="86"/>
      <point x="3066.45" y="-30"/>
      <point x="3318.45" y="-30" type="curve" smooth="yes"/>
      <point x="3590.45" y="-30"/>
      <point x="3727.45" y="142"/>
      <point x="3727.45" y="473" type="curve" smooth="yes"/>
    </contour>
  </outline>
</glyph>
<glyph name="DamatraE.kn" format="2">
  <advance width="2000"/>
  <outline>
    <component base="matraE.kn" xOffset="1094"/>
    <contour>
      <point x="204" y="447" type="line" smooth="yes"/>
      <point x="204" y="866.347"/>
      <point x="465" y="1089"/>
      <point x="962" y="1089" type="curve"/>
      <point x="961" y="1107" type="line"/>
      <point x="675" y="1107" type="line"/>
      <point x="675" y="1087" type="line"/>
      <point x="372.934" y="1031.09"/>
      <point x="166" y="819.41"/>
      <point x="166" y="447" type="curve" smooth="yes"/>
      <point x="166" y="428" type="line" smooth="yes"/>
      <point x="166" y="127"/>
      <point x="310" y="-30"/>
      <point x="591" y="-30" type="curve" smooth="yes"/>
      <point x="856" y="-30"/>
      <point x="981" y="108"/>
      <point x="999" y="323" type="curve"/>
      <point x="1001" y="323" type="line"/>
      <point x="1019" y="108"/>
      <point x="1144" y="-30"/>
      <point x="1409" y="-30" type="curve" smooth="yes"/>
      <point x="1690" y="-30"/>
      <point x="1834" y="127"/>
      <point x="1834" y="428" type="curve" smooth="yes"/>
      <point x="1834" y="447" type="line" smooth="yes"/>
      <point x="1834" y="819.41"/>
      <point x="1627.07" y="1031.09"/>
      <point x="1325" y="1087" type="curve"/>
      <point x="1325" y="1107" type="line"/>
      <point x="1039" y="1107" type="line"/>
      <point x="1038" y="1089" type="line"/>
      <point x="1535" y="1089"/>
      <point x="1796" y="866.347"/>
      <point x="1796" y="447" type="curve" smooth="yes"/>
      <point x="1796" y="428" type="line" smooth="yes"/>
      <point x="1796" y="147.663"/>
      <point x="1664" y="5"/>
      <point x="1408" y="5" type="curve" smooth="yes"/>
      <point x="1151" y="5"/>
      <point x="1028.73" y="139.666"/>
      <point x="1020" y="419" type="curve" smooth="yes"/>
      <point x="1019" y="451" type="line"/>
      <point x="981" y="451" type="line"/>
      <point x="980" y="419" type="line" smooth="yes"/>
      <point x="971.271" y="139.666"/>
      <point x="849" y="5"/>
      <point x="592" y="5" type="curve" smooth="yes"/>
      <point x="336" y="5"/>
      <point x="204" y="147.663"/>
      <point x="204" y="428" type="curve" smooth="yes"/>
    </contour>
    <contour>
      <point x="1471" y="1089" type="line"/>
      <point x="1471" y="1122" type="line"/>
      <point x="166" y="1122" type="line"/>
      <point x="166" y="1089" type="line"/>
    </contour>
  </outline>
  <guideline angle="90" x="1834" y="0"/>
</glyph>
<glyph name="Dasmall1.kn" format="2">
  <outline>
    <contour>
      <point x="-345" y="-522" type="line"/>
      <point x="-346" y="-544" type="line" smooth="yes"/>
      <point x="-351.909" y="-674.004"/>
      <point x="-422" y="-742"/>
      <point x="-554" y="-742" type="curve" smooth="yes"/>
      <point x="-690" y="-742"/>
      <point x="-765" y="-668"/>
      <point x="-765" y="-536" type="curve" smooth="yes"/>
      <point x="-765" y="-526" type="line" smooth="yes"/>
      <point x="-765" y="-328"/>
      <point x="-608" y="-223"/>
      <point x="-329" y="-223" type="curve" smooth="yes"/>
      <point x="-49" y="-223"/>
      <point x="108" y="-328"/>
      <point x="108" y="-526" type="curve" smooth="yes"/>
      <point x="108" y="-536" type="line" smooth="yes"/>
      <point x="108" y="-668"/>
      <point x="33" y="-742"/>
      <point x="-103" y="-742" type="curve" smooth="yes"/>
      <point x="-235" y="-742"/>
      <point x="-305.091" y="-674.004"/>
      <point x="-311" y="-544" type="curve" smooth="yes"/>
      <point x="-312" y="-522" type="line"/>
    </contour>
    <contour>
      <point x="-329" y="-190" type="curve" smooth="yes"/>
      <point x="-630" y="-190"/>
      <point x="-800" y="-306"/>
      <point x="-800" y="-526" type="curve" smooth="yes"/>
      <point x="-800" y="-536" type="line" smooth="yes"/>
      <point x="-800" y="-690"/>
      <point x="-713" y="-775"/>
      <point x="-554" y="-775" type="curve" smooth="yes"/>
      <point x="-430" y="-775"/>
      <point x="-351" y="-719"/>
      <point x="-330" y="-615" type="curve"/>
      <point x="-328" y="-615" type="line"/>
      <point x="-307" y="-719"/>
      <point x="-228" y="-775"/>
      <point x="-103" y="-775" type="curve" smooth="yes"/>
      <point x="56" y="-775"/>
      <point x="143" y="-690"/>
      <point x="143" y="-536" type="curve" smooth="yes"/>
      <point x="143" y="-526" type="line" smooth="yes"/>
      <point x="143" y="-306"/>
      <point x="-27" y="-190"/>
    </contour>
  </outline>
  <guideline angle="90" x="511" y="0"/>
</glyph>
<glyph name="Ddasmall1.kn" format="2">
  <outline>
    <contour>
      <point x="-329" y="-190" type="curve" smooth="yes"/>
      <point x="-630" y="-190"/>
      <point x="-800" y="-306"/>
      <point x="-800" y="-526" type="curve" smooth="yes"/>
      <point x="-800" y="-536" type="line" smooth="yes"/>
      <point x="-800" y="-690"/>
      <point x="-714" y="-775"/>
      <point x="-558" y="-775" type="curve" smooth="yes"/>
      <point x="-436" y="-775"/>
      <point x="-359" y="-722"/>
      <point x="-338" y="-623" type="curve"/>
      <point x="-336" y="-623" type="line"/>
      <point x="-314" y="-722"/>
      <point x="-229" y="-775"/>
      <point x="-95" y="-775" type="curve" smooth="yes"/>
      <point x="57" y="-775"/>
      <point x="136" y="-709"/>
      <point x="136" y="-609" type="curve"/>
      <point x="136" y="-607" type="line"/>
      <point x="136" y="-527"/>
      <point x="91" y="-472"/>
      <point x="-11" y="-458" type="curve"/>
      <point x="-11" y="-456" type="line"/>
      <point x="48" y="-446"/>
      <point x="78" y="-411"/>
      <point x="78" y="-361" type="curve"/>
      <point x="78" y="-360" type="line"/>
      <point x="78" y="-244"/>
      <point x="-69" y="-190"/>
    </contour>
    <contour>
      <point x="-95" y="-742" type="curve" smooth="yes"/>
      <point x="-237" y="-742"/>
      <point x="-313.318" y="-676.015"/>
      <point x="-319" y="-551" type="curve" smooth="yes"/>
      <point x="-320" y="-529" type="line"/>
      <point x="-353" y="-529" type="line"/>
      <point x="-354" y="-551" type="line" smooth="yes"/>
      <point x="-359.682" y="-676.015"/>
      <point x="-429" y="-742"/>
      <point x="-558" y="-742" type="curve" smooth="yes"/>
      <point x="-691" y="-742"/>
      <point x="-765" y="-668"/>
      <point x="-765" y="-536" type="curve" smooth="yes"/>
      <point x="-765" y="-526" type="line" smooth="yes"/>
      <point x="-765" y="-328"/>
      <point x="-608" y="-223"/>
      <point x="-329" y="-223" type="curve" smooth="yes"/>
      <point x="-91" y="-223"/>
      <point x="43" y="-268"/>
      <point x="43" y="-360" type="curve"/>
      <point x="43" y="-361" type="line"/>
      <point x="43" y="-416"/>
      <point x="-6" y="-443"/>
      <point x="-108" y="-443" type="curve" smooth="yes"/>
      <point x="-198" y="-443" type="line"/>
      <point x="-198" y="-474" type="line"/>
      <point x="-96" y="-474" type="line" smooth="yes"/>
      <point x="30" y="-474"/>
      <point x="101" y="-516"/>
      <point x="101" y="-607" type="curve"/>
      <point x="101" y="-609" type="line"/>
      <point x="101" y="-690"/>
      <point x="33" y="-742"/>
    </contour>
  </outline>
</glyph>
<glyph name="DdhamatraAu.kn" format="2">
  <advance width="2846"/>
  <outline>
    <component base="DdamatraAu.kn"/>
    <contour>
      <point x="1001" y="-383" type="curve" smooth="yes"/>
      <point x="1022" y="-383"/>
      <point x="1030" y="-368"/>
      <point x="1030" y="-336" type="curve" smooth="yes"/>
      <point x="1030" y="-269" type="line" smooth="yes"/>
      <point x="1030" y="-98"/>
      <point x="1023" y="16"/>
      <point x="1001" y="111" type="curve"/>
      <point x="980" y="16"/>
      <point x="973" y="-98"/>
      <point x="973" y="-269" type="curve" smooth="yes"/>
      <point x="973" y="-336" type="line" smooth="yes"/>
      <point x="973" y="-368"/>
      <point x="981" y="-383"/>
    </contour>
  </outline>
  <guideline angle="0" x="0" y="4833"/>
  <guideline angle="90" x="1269" y="0"/>
  <guideline angle="0" x="0" y="-383"/>
  <guideline angle="90" x="166" y="0"/>
</glyph>
<glyph name="JaNuktasmall1.kn" format="2">
  <outline>
    <component base="Jasmall1.kn"/>
    <contour>
      <point x="-492" y="-816" type="curve" smooth="yes"/>
      <point x="-512" y="-816"/>
      <point x="-523" y="-829"/>
      <point x="-523" y="-855" type="curve" smooth="yes"/>
      <point x="-523" y="-881"/>
      <point x="-512" y="-894"/>
      <point x="-492" y="-894" type="curve" smooth="yes"/>
      <point x="-472" y="-894"/>
      <point x="-461" y="-881"/>
      <point x="-461" y="-855" type="curve" smooth="yes"/>
      <point x="-461" y="-829"/>
      <point x="-472" y="-816"/>
    </contour>
    <contour>
      <point x="-137" y="-816" type="curve" smooth="yes"/>
      <point x="-157" y="-816"/>
      <point x="-168" y="-829"/>
      <point x="-168" y="-855" type="curve" smooth="yes"/>
      <point x="-168" y="-881"/>
      <point x="-157" y="-894"/>
      <point x="-137" y="-894" type="curve" smooth="yes"/>
      <point x="-117" y="-894"/>
      <point x="-106" y="-881"/>
      <point x="-106" y="-855" type="curve" smooth="yes"/>
      <point x="-106" y="-829"/>
      <point x="-117" y="-816"/>
    </contour>
  </outline>
  <guideline angle="90" x="-227" y="0"/>
</glyph>
<glyph name="JamatraI.kn" format="2">
  <advance width="2055"/>
  <anchor x="1033" y="0" name="nukta"/>
  <outline>
    <contour>
      <point x="1459" y="1444" type="curve" smooth="yes"/>
      <point x="1245" y="1444"/>
      <point x="1125" y="1351"/>
      <point x="1125" y="1184" type="curve" smooth="yes"/>
      <point x="1125" y="1179" type="line" smooth="yes"/>
      <point x="1125" y="1013"/>
      <point x="1245" y="922"/>
      <point x="1464" y="922" type="curve" smooth="yes"/>
      <point x="1627" y="922"/>
      <point x="1755" y="990"/>
      <point x="1817" y="1093" type="curve"/>
      <point x="1836" y="1093" type="line"/>
      <point x="1819" y="1141" type="line"/>
      <point x="1752.44" y="1027"/>
      <point x="1627.38" y="957"/>
      <point x="1465" y="957" type="curve" smooth="yes"/>
      <point x="1269" y="957"/>
      <point x="1163" y="1036.64"/>
      <point x="1163" y="1179" type="curve" smooth="yes"/>
      <point x="1163" y="1184" type="line" smooth="yes"/>
      <point x="1163" y="1329.35"/>
      <point x="1266" y="1409"/>
      <point x="1459" y="1409" type="curve" smooth="yes"/>
      <point x="1686.22" y="1409"/>
      <point x="1821" y="1267.89"/>
      <point x="1821" y="1030" type="curve" smooth="yes"/>
      <point x="1821" y="1020" type="line" smooth="yes"/>
      <point x="1821" y="761.646"/>
      <point x="1686" y="620"/>
      <point x="1425" y="620" type="curve" smooth="yes"/>
      <point x="1180" y="620"/>
      <point x="1041.63" y="733.56"/>
      <point x="1016" y="913" type="curve" smooth="yes"/>
      <point x="1015" y="920" type="line"/>
      <point x="988" y="906" type="line"/>
      <point x="989" y="901" type="line"/>
      <point x="1021" y="708"/>
      <point x="1161" y="585"/>
      <point x="1426" y="585" type="curve" smooth="yes"/>
      <point x="1709" y="585"/>
      <point x="1859" y="739"/>
      <point x="1859" y="1020" type="curve" smooth="yes"/>
      <point x="1859" y="1029" type="line" smooth="yes"/>
      <point x="1859" y="1293.78"/>
      <point x="1714.21" y="1444"/>
    </contour>
    <contour>
      <point x="1857" y="350" type="curve"/>
      <point x="1857" y="349" type="line"/>
      <point x="1857" y="138.612"/>
      <point x="1729" y="5"/>
      <point x="1485" y="5" type="curve" smooth="yes"/>
      <point x="1209" y="5"/>
      <point x="1062.5" y="139.666"/>
      <point x="1062.5" y="419" type="curve" smooth="yes"/>
      <point x="1062.5" y="451" type="line"/>
      <point x="1029" y="451" type="line"/>
      <point x="1043" y="334" type="line"/>
      <point x="1058" y="113"/>
      <point x="1198" y="-30"/>
      <point x="1486" y="-30" type="curve" smooth="yes"/>
      <point x="1756" y="-30"/>
      <point x="1895" y="116"/>
      <point x="1895" y="349" type="curve"/>
      <point x="1895" y="350" type="line"/>
      <point x="1895" y="393"/>
      <point x="1890" y="436"/>
      <point x="1880" y="475" type="curve"/>
      <point x="1842" y="475" type="line"/>
      <point x="1852" y="436"/>
      <point x="1857" y="393"/>
    </contour>
    <contour>
      <point x="614" y="1157" type="curve" smooth="yes"/>
      <point x="337" y="1157"/>
      <point x="188" y="1042"/>
      <point x="188" y="822" type="curve" smooth="yes"/>
      <point x="188" y="819" type="line" smooth="yes"/>
      <point x="188" y="754"/>
      <point x="202" y="694"/>
      <point x="230" y="639" type="curve"/>
      <point x="271" y="639" type="line"/>
      <point x="241" y="696"/>
      <point x="226" y="757"/>
      <point x="226" y="819" type="curve" smooth="yes"/>
      <point x="226" y="822" type="line" smooth="yes"/>
      <point x="226" y="1019.34"/>
      <point x="360" y="1122"/>
      <point x="613" y="1122" type="curve" smooth="yes"/>
      <point x="853" y="1122"/>
      <point x="983" y="1037.34"/>
      <point x="983" y="875" type="curve" smooth="yes"/>
      <point x="983" y="869" type="line" smooth="yes"/>
      <point x="983" y="740.5"/>
      <point x="902.878" y="675.198"/>
      <point x="674" y="612" type="curve" smooth="yes"/>
      <point x="540" y="575" type="line" smooth="yes"/>
      <point x="256.973" y="496.851"/>
      <point x="155" y="422.519"/>
      <point x="155" y="258" type="curve" smooth="yes"/>
      <point x="155" y="251" type="line" smooth="yes"/>
      <point x="155" y="74"/>
      <point x="302" y="-30"/>
      <point x="582" y="-30" type="curve" smooth="yes"/>
      <point x="881" y="-30"/>
      <point x="1022" y="108"/>
      <point x="1042" y="323" type="curve"/>
      <point x="1053" y="323" type="line"/>
      <point x="1053" y="451" type="line"/>
      <point x="1023.5" y="451" type="line"/>
      <point x="1023.5" y="419" type="line" smooth="yes"/>
      <point x="1023.5" y="139.514"/>
      <point x="875" y="5"/>
      <point x="583" y="5" type="curve" smooth="yes"/>
      <point x="328" y="5"/>
      <point x="193" y="96.6275"/>
      <point x="193" y="251" type="curve" smooth="yes"/>
      <point x="193" y="258" type="line" smooth="yes"/>
      <point x="193" y="401"/>
      <point x="291" y="469"/>
      <point x="549" y="541" type="curve" smooth="yes"/>
      <point x="686" y="579" type="line" smooth="yes"/>
      <point x="933" y="648"/>
      <point x="1021" y="723"/>
      <point x="1021" y="870" type="curve" smooth="yes"/>
      <point x="1021" y="875" type="line" smooth="yes"/>
      <point x="1021" y="1059"/>
      <point x="878" y="1157"/>
    </contour>
  </outline>
  <guideline angle="0" x="0" y="1574"/>
  <guideline angle="90" x="2120" y="0"/>
  <guideline angle="90" x="505" y="0"/>
</glyph>
<glyph name="JhamatraO.kn" format="2">
  <advance width="4391"/>
  <outline>
    <component base="matraUu.kn" xOffset="2577"/>
    <component base="matraE.kn" xOffset="780"/>
    <component base="matraU.kn" xOffset="1710"/>
    <contour>
      <point x="579" y="1108" type="line"/>
      <point x="579" y="1086" type="line"/>
      <point x="306.596" y="1034.1"/>
      <point x="166" y="841.447"/>
      <point x="166" y="552" type="curve" smooth="yes"/>
      <point x="166" y="540" type="line" smooth="yes"/>
      <point x="166" y="163"/>
      <point x="396" y="-34"/>
      <point x="838" y="-34" type="curve" smooth="yes"/>
      <point x="1280" y="-34"/>
      <point x="1510" y="163"/>
      <point x="1510" y="540" type="curve" smooth="yes"/>
      <point x="1510" y="552" type="line" smooth="yes"/>
      <point x="1510" y="841.447"/>
      <point x="1369.4" y="1034.1"/>
      <point x="1097" y="1086" type="curve"/>
      <point x="1097" y="1108" type="line"/>
    </contour>
    <contour>
      <point x="838" y="1" type="curve" smooth="yes"/>
      <point x="421" y="1"/>
      <point x="204" y="185.657"/>
      <point x="204" y="540" type="curve" smooth="yes"/>
      <point x="204" y="552" type="line" smooth="yes"/>
      <point x="204" y="906.34"/>
      <point x="421" y="1089"/>
      <point x="838" y="1089" type="curve" smooth="yes"/>
      <point x="1255" y="1089"/>
      <point x="1472" y="906.34"/>
      <point x="1472" y="552" type="curve" smooth="yes"/>
      <point x="1472" y="540" type="line" smooth="yes"/>
      <point x="1472" y="185.657"/>
      <point x="1255" y="1"/>
    </contour>
    <contour>
      <point x="1163" y="1089" type="line"/>
      <point x="1163" y="1122" type="line"/>
      <point x="166" y="1122" type="line"/>
      <point x="166" y="1089" type="line"/>
    </contour>
    <contour>
      <point x="2350" y="-383" type="curve" smooth="yes"/>
      <point x="2371" y="-383"/>
      <point x="2379" y="-368"/>
      <point x="2379" y="-336" type="curve" smooth="yes"/>
      <point x="2379" y="-269" type="line" smooth="yes"/>
      <point x="2379" y="-98"/>
      <point x="2372" y="16"/>
      <point x="2350" y="111" type="curve"/>
      <point x="2329" y="16"/>
      <point x="2322" y="-98"/>
      <point x="2322" y="-269" type="curve" smooth="yes"/>
      <point x="2322" y="-336" type="line" smooth="yes"/>
      <point x="2322" y="-368"/>
      <point x="2330" y="-383"/>
    </contour>
    <contour>
      <point x="1470" y="378" type="line"/>
      <point x="1493" y="378" type="line"/>
      <point x="1493" y="386" type="line"/>
      <point x="1470" y="386" type="line"/>
    </contour>
  </outline>
  <guideline angle="90" x="2555" y="0"/>
  <guideline angle="0" x="0" y="1603"/>
  <guideline angle="90" x="1657" y="0"/>
  <guideline angle="90" x="249" y="0"/>
  <guideline angle="0" x="0" y="-383"/>
  <guideline angle="90" x="1510" y="0"/>
</glyph>
<glyph name="KaSsamatraI.kn" format="2">
  <advance width="1492"/>
  <outline>
    <component base="KamatraI.kn"/>
    <contour>
      <point x="1394" y="-665" type="line"/>
      <point x="1359" y="-428"/>
      <point x="1337" y="-272"/>
      <point x="1308" y="-119" type="curve"/>
      <point x="1270" y="-119" type="line"/>
      <point x="1279" y="-173"/>
      <point x="1285" y="-227"/>
      <point x="1285" y="-280" type="curve" smooth="yes"/>
      <point x="1285" y="-433"/>
      <point x="1195" y="-510"/>
      <point x="1030" y="-510" type="curve" smooth="yes"/>
      <point x="854" y="-510"/>
      <point x="766.422" y="-436.991"/>
      <point x="763" y="-283" type="curve" smooth="yes"/>
      <point x="762" y="-238" type="line"/>
      <point x="739" y="-238" type="line"/>
      <point x="740" y="-268"/>
      <point x="744" y="-342"/>
      <point x="745" y="-365" type="curve"/>
      <point x="769" y="-483"/>
      <point x="871" y="-544"/>
      <point x="1030" y="-544" type="curve" smooth="yes"/>
      <point x="1199" y="-544"/>
      <point x="1296" y="-471"/>
      <point x="1312" y="-332" type="curve"/>
      <point x="1314" y="-332" type="line"/>
      <point x="1321" y="-388"/>
      <point x="1348" y="-599"/>
      <point x="1356" y="-665" type="curve"/>
    </contour>
    <contour>
      <point x="235" y="-138" type="curve"/>
      <point x="199" y="-138" type="line"/>
      <point x="172" y="-185"/>
      <point x="159" y="-238"/>
      <point x="159" y="-298" type="curve" smooth="yes"/>
      <point x="159" y="-303" type="line" smooth="yes"/>
      <point x="159" y="-462"/>
      <point x="269" y="-544"/>
      <point x="451" y="-544" type="curve" smooth="yes"/>
      <point x="624" y="-544"/>
      <point x="718" y="-483"/>
      <point x="743" y="-365" type="curve"/>
      <point x="757" y="-365" type="line"/>
      <point x="758" y="-238" type="line"/>
      <point x="727" y="-238" type="line"/>
      <point x="726" y="-284" type="line" smooth="yes"/>
      <point x="722.739" y="-433.995"/>
      <point x="637" y="-510"/>
      <point x="453" y="-510" type="curve" smooth="yes"/>
      <point x="294" y="-510"/>
      <point x="196" y="-440"/>
      <point x="196" y="-303" type="curve" smooth="yes"/>
      <point x="196" y="-298" type="line" smooth="yes"/>
      <point x="196" y="-235"/>
      <point x="211" y="-183"/>
    </contour>
  </outline>
</glyph>
<glyph name="KamatraUu.kn" format="2">
  <advance width="3294"/>
  <outline>
    <component base="Ka.kn"/>
    <contour>
      <point x="1611" y="5" type="curve" smooth="yes"/>
      <point x="1411" y="5"/>
      <point x="1304" y="111.671"/>
      <point x="1304" y="329" type="curve"/>
      <point x="1304" y="329"/>
      <point x="1304" y="336"/>
      <point x="1304" y="336" type="curve"/>
      <point x="1277" y="334" type="line"/>
      <point x="1277" y="328" type="line" smooth="yes"/>
      <point x="1277" y="88"/>
      <point x="1396.36" y="-30"/>
      <point x="1611" y="-30" type="curve" smooth="yes"/>
      <point x="1829" y="-30"/>
      <point x="1951" y="87"/>
      <point x="1951" y="334" type="curve" smooth="yes"/>
      <point x="1951" y="507" type="line"/>
      <point x="1914" y="510" type="line"/>
      <point x="1914" y="335" type="line" smooth="yes"/>
      <point x="1914" y="110.68"/>
      <point x="1809" y="5"/>
    </contour>
    <contour>
      <point x="2522.45" y="1157" type="curve" smooth="yes"/>
      <point x="2125.45" y="1157"/>
      <point x="1914.45" y="960"/>
      <point x="1914.45" y="580" type="curve" smooth="yes"/>
      <point x="1914.45" y="454" type="line"/>
      <point x="1951.45" y="454" type="line"/>
      <point x="1951.45" y="577" type="line" smooth="yes"/>
      <point x="1951.45" y="937.339"/>
      <point x="2148.45" y="1122"/>
      <point x="2522.45" y="1122" type="curve" smooth="yes"/>
      <point x="2894.45" y="1122"/>
      <point x="3089.45" y="912.335"/>
      <point x="3089.45" y="496" type="curve" smooth="yes"/>
      <point x="3089.45" y="484.28" type="line"/>
      <point x="3127.45" y="485.444" type="line"/>
      <point x="3127.45" y="497" type="line" smooth="yes"/>
      <point x="3127.45" y="934"/>
      <point x="2918.45" y="1157"/>
    </contour>
    <contour>
      <point x="3127.45" y="488.444" type="line"/>
      <point x="3089.45" y="487.28" type="line"/>
      <point x="3089.45" y="473" type="line" smooth="yes"/>
      <point x="3089.45" y="163.95"/>
      <point x="2964.4" y="5"/>
      <point x="2718.45" y="5" type="curve" smooth="yes"/>
      <point x="2487.45" y="5"/>
      <point x="2366.45" y="111.635"/>
      <point x="2366.45" y="297" type="curve" smooth="yes"/>
      <point x="2366.45" y="302" type="line" smooth="yes"/>
      <point x="2366.45" y="482.372"/>
      <point x="2482.45" y="589"/>
      <point x="2709.45" y="589" type="curve" smooth="yes"/>
      <point x="2887.76" y="589"/>
      <point x="3018.5" y="511.237"/>
      <point x="3091.45" y="392" type="curve"/>
      <point x="3106.45" y="441" type="line"/>
      <point x="3088.45" y="441" type="line"/>
      <point x="3021.45" y="550"/>
      <point x="2885.45" y="624"/>
      <point x="2708.45" y="624" type="curve" smooth="yes"/>
      <point x="2459.45" y="624"/>
      <point x="2328.45" y="507"/>
      <point x="2328.45" y="302" type="curve" smooth="yes"/>
      <point x="2328.45" y="297" type="line" smooth="yes"/>
      <point x="2328.45" y="86"/>
      <point x="2466.45" y="-30"/>
      <point x="2718.45" y="-30" type="curve" smooth="yes"/>
      <point x="2990.45" y="-30"/>
      <point x="3127.45" y="142"/>
      <point x="3127.45" y="473" type="curve" smooth="yes"/>
    </contour>
  </outline>
</glyph>
<glyph name="LamatraI.kn.1" format="2">
  <advance width="1906"/>
  <outline>
    <contour>
      <point x="196" y="654" type="line"/>
      <point x="196" y="659" type="line" smooth="yes"/>
      <point x="196" y="961"/>
      <point x="339" y="1122"/>
      <point x="611" y="1122" type="curve" smooth="yes"/>
      <point x="825" y="1122"/>
      <point x="941" y="1018"/>
      <point x="941" y="837" type="curve" smooth="yes"/>
      <point x="941" y="832" type="line" smooth="yes"/>
      <point x="941" y="654"/>
      <point x="822" y="551"/>
      <point x="605" y="551" type="curve" smooth="yes"/>
      <point x="416" y="551"/>
      <point x="271" y="626"/>
      <point x="193" y="751" type="curve"/>
      <point x="179" y="701" type="line"/>
      <point x="198" y="701" type="line"/>
      <point x="270" y="589"/>
      <point x="417" y="516"/>
      <point x="606" y="516" type="curve" smooth="yes"/>
      <point x="845" y="516"/>
      <point x="979" y="629"/>
      <point x="979" y="832" type="curve" smooth="yes"/>
      <point x="979" y="837" type="line" smooth="yes"/>
      <point x="979" y="1041"/>
      <point x="845" y="1157"/>
      <point x="611" y="1157" type="curve" smooth="yes"/>
      <point x="313" y="1157"/>
      <point x="158" y="980"/>
      <point x="158" y="659" type="curve" smooth="yes"/>
      <point x="158" y="653" type="line"/>
    </contour>
    <contour>
      <point x="1708" y="688" type="line" smooth="yes"/>
      <point x="1708" y="235"/>
      <point x="1452" y="3"/>
      <point x="961" y="3" type="curve" smooth="yes"/>
      <point x="458" y="3"/>
      <point x="196" y="223"/>
      <point x="196" y="650" type="curve" smooth="yes"/>
      <point x="196" y="655" type="line"/>
      <point x="158" y="654" type="line"/>
      <point x="158" y="649" type="line" smooth="yes"/>
      <point x="158" y="203"/>
      <point x="438" y="-32"/>
      <point x="961" y="-32" type="curve" smooth="yes"/>
      <point x="1474" y="-32"/>
      <point x="1746" y="213.949"/>
      <point x="1746" y="687" type="curve" smooth="yes"/>
      <point x="1746" y="692" type="line" smooth="yes"/>
      <point x="1746" y="963.704"/>
      <point x="1668" y="1314"/>
      <point x="1288" y="1314" type="curve" smooth="yes"/>
      <point x="1067" y="1314"/>
      <point x="944" y="1215"/>
      <point x="944" y="1038" type="curve" smooth="yes"/>
      <point x="944" y="1033" type="line" smooth="yes"/>
      <point x="944" y="857"/>
      <point x="1067" y="760"/>
      <point x="1293" y="760" type="curve" smooth="yes"/>
      <point x="1501" y="760"/>
      <point x="1626" y="866"/>
      <point x="1684" y="997" type="curve"/>
      <point x="1675" y="1043" type="line"/>
      <point x="1615" y="901"/>
      <point x="1493" y="795"/>
      <point x="1294" y="795" type="curve" smooth="yes"/>
      <point x="1091" y="795"/>
      <point x="982" y="881"/>
      <point x="982" y="1033" type="curve" smooth="yes"/>
      <point x="982" y="1038" type="line" smooth="yes"/>
      <point x="982" y="1193"/>
      <point x="1089" y="1279"/>
      <point x="1288" y="1279" type="curve" smooth="yes"/>
      <point x="1637" y="1279"/>
      <point x="1708" y="937"/>
      <point x="1708" y="693" type="curve" smooth="yes"/>
    </contour>
  </outline>
</glyph>
<glyph name="LamatraU.kn" format="2">
  <advance width="2759"/>
  <outline>
    <component base="La.kn"/>
    <contour>
      <point x="2083" y="1141" type="curve" smooth="yes"/>
      <point x="2062" y="1141"/>
      <point x="2053" y="1140"/>
      <point x="2036" y="1139" type="curve"/>
      <point x="2036" y="1104" type="line"/>
      <point x="2049" y="1105"/>
      <point x="2063" y="1106"/>
      <point x="2082" y="1106" type="curve" smooth="yes"/>
      <point x="2387" y="1106"/>
      <point x="2555" y="902.354"/>
      <point x="2555" y="531" type="curve" smooth="yes"/>
      <point x="2555" y="522" type="line" smooth="yes"/>
      <point x="2555" y="178.664"/>
      <point x="2403" y="5"/>
      <point x="2108" y="5" type="curve" smooth="yes"/>
      <point x="1840" y="5"/>
      <point x="1685" y="139.635"/>
      <point x="1685" y="374" type="curve" smooth="yes"/>
      <point x="1685" y="392" type="line"/>
      <point x="1658" y="392" type="line"/>
      <point x="1658" y="326" type="line"/>
      <point x="1669.04" y="100.452"/>
      <point x="1838.37" y="-30"/>
      <point x="2109" y="-30" type="curve" smooth="yes"/>
      <point x="2429" y="-30"/>
      <point x="2593" y="158"/>
      <point x="2593" y="522" type="curve" smooth="yes"/>
      <point x="2593" y="531" type="line" smooth="yes"/>
      <point x="2593" y="923"/>
      <point x="2410" y="1141"/>
    </contour>
  </outline>
  <guideline angle="90" x="1631" y="0"/>
  <guideline angle="0" x="0" y="1603"/>
  <guideline angle="90" x="1849" y="0"/>
</glyph>
<glyph name="LlamatraUu.kn" format="2">
  <advance width="3390"/>
  <outline>
    <component base="Lla.kn"/>
    <contour>
      <point x="2618.45" y="1157" type="curve" smooth="yes"/>
      <point x="2221.45" y="1157"/>
      <point x="2010.45" y="960"/>
      <point x="2010.45" y="580" type="curve" smooth="yes"/>
      <point x="2010.45" y="454" type="line"/>
      <point x="2047.45" y="454" type="line"/>
      <point x="2047.45" y="577" type="line" smooth="yes"/>
      <point x="2047.45" y="937.339"/>
      <point x="2244.45" y="1122"/>
      <point x="2618.45" y="1122" type="curve" smooth="yes"/>
      <point x="2990.45" y="1122"/>
      <point x="3185.45" y="912.335"/>
      <point x="3185.45" y="496" type="curve" smooth="yes"/>
      <point x="3185.45" y="484.28" type="line"/>
      <point x="3223.45" y="485.444" type="line"/>
      <point x="3223.45" y="497" type="line" smooth="yes"/>
      <point x="3223.45" y="934"/>
      <point x="3014.45" y="1157"/>
    </contour>
    <contour>
      <point x="3223.45" y="488.444" type="line"/>
      <point x="3185.45" y="487.28" type="line"/>
      <point x="3185.45" y="473" type="line" smooth="yes"/>
      <point x="3185.45" y="163.95"/>
      <point x="3060.4" y="5"/>
      <point x="2814.45" y="5" type="curve" smooth="yes"/>
      <point x="2583.45" y="5"/>
      <point x="2462.45" y="111.635"/>
      <point x="2462.45" y="297" type="curve" smooth="yes"/>
      <point x="2462.45" y="302" type="line" smooth="yes"/>
      <point x="2462.45" y="482.372"/>
      <point x="2578.45" y="589"/>
      <point x="2805.45" y="589" type="curve" smooth="yes"/>
      <point x="2983.76" y="589"/>
      <point x="3114.5" y="511.237"/>
      <point x="3187.45" y="392" type="curve"/>
      <point x="3202.45" y="441" type="line"/>
      <point x="3184.45" y="441" type="line"/>
      <point x="3117.45" y="550"/>
      <point x="2981.45" y="624"/>
      <point x="2804.45" y="624" type="curve" smooth="yes"/>
      <point x="2555.45" y="624"/>
      <point x="2424.45" y="507"/>
      <point x="2424.45" y="302" type="curve" smooth="yes"/>
      <point x="2424.45" y="297" type="line" smooth="yes"/>
      <point x="2424.45" y="86"/>
      <point x="2562.45" y="-30"/>
      <point x="2814.45" y="-30" type="curve" smooth="yes"/>
      <point x="3086.45" y="-30"/>
      <point x="3223.45" y="142"/>
      <point x="3223.45" y="473" type="curve" smooth="yes"/>
    </contour>
    <contour>
      <point x="2010" y="484" type="line"/>
      <point x="2010" y="372" type="line" smooth="yes"/>
      <point x="2010" y="133.649"/>
      <point x="1899" y="5"/>
      <point x="1690" y="5" type="curve" smooth="yes"/>
      <point x="1514" y="5"/>
      <point x="1381" y="87.6513"/>
      <point x="1308" y="242" type="curve"/>
      <point x="1301" y="193" type="line"/>
      <point x="1374.38" y="59.2"/>
      <point x="1501.03" y="-30"/>
      <point x="1691" y="-30" type="curve" smooth="yes"/>
      <point x="1925" y="-30"/>
      <point x="2047" y="111"/>
      <point x="2047" y="372" type="curve" smooth="yes"/>
      <point x="2047" y="484" type="line"/>
    </contour>
  </outline>
</glyph>
<glyph name="Llasmall1.kn" format="2">
  <advance width="250"/>
  <outline>
    <contour>
      <point x="-527" y="-358.997" type="line"/>
      <point x="-527" y="-361" type="line" smooth="yes"/>
      <point x="-527" y="-499"/>
      <point x="-394" y="-566"/>
      <point x="-141" y="-566" type="curve"/>
      <point x="-100" y="-564" type="line"/>
      <point x="-74" y="-564" type="line" smooth="yes"/>
      <point x="193" y="-564"/>
      <point x="341" y="-451"/>
      <point x="341" y="-209" type="curve" smooth="yes"/>
      <point x="341" y="-205" type="line" smooth="yes"/>
      <point x="341" y="38.4754"/>
      <point x="225" y="171"/>
      <point x="14" y="171" type="curve" smooth="yes"/>
      <point x="11" y="171"/>
      <point x="8" y="171"/>
      <point x="5" y="171" type="curve"/>
      <point x="5" y="138" type="line"/>
      <point x="8" y="138"/>
      <point x="11" y="138"/>
      <point x="14" y="138" type="curve" smooth="yes"/>
      <point x="203" y="138"/>
      <point x="306" y="17.4865"/>
      <point x="306" y="-205" type="curve" smooth="yes"/>
      <point x="306" y="-209" type="line" smooth="yes"/>
      <point x="306" y="-434"/>
      <point x="167" y="-538"/>
      <point x="-100" y="-538" type="curve" smooth="yes"/>
      <point x="-369" y="-538"/>
      <point x="-493" y="-481"/>
      <point x="-493" y="-364" type="curve" smooth="yes"/>
      <point x="-493" y="-359.395" type="line"/>
    </contour>
    <contour>
      <point x="-493" y="-361" type="line"/>
      <point x="-493" y="-355" type="line" smooth="yes"/>
      <point x="-493" y="-283"/>
      <point x="-440" y="-217"/>
      <point x="-297" y="-217" type="curve" smooth="yes"/>
      <point x="-185" y="-217"/>
      <point x="-125" y="-257"/>
      <point x="-125" y="-323" type="curve"/>
      <point x="-125" y="-325" type="line"/>
      <point x="-125" y="-387"/>
      <point x="-179" y="-424"/>
      <point x="-283" y="-424" type="curve" smooth="yes"/>
      <point x="-381" y="-424"/>
      <point x="-457" y="-388"/>
      <point x="-501" y="-328" type="curve"/>
      <point x="-510" y="-371" type="line"/>
      <point x="-492" y="-371" type="line"/>
      <point x="-455" y="-420"/>
      <point x="-380" y="-456"/>
      <point x="-283" y="-456" type="curve" smooth="yes"/>
      <point x="-159" y="-456"/>
      <point x="-90" y="-409"/>
      <point x="-90" y="-325" type="curve"/>
      <point x="-90" y="-323" type="line"/>
      <point x="-90" y="-235"/>
      <point x="-167" y="-185"/>
      <point x="-297" y="-185" type="curve" smooth="yes"/>
      <point x="-450" y="-185"/>
      <point x="-527" y="-249"/>
      <point x="-527" y="-358" type="curve"/>
      <point x="-527" y="-359.736" type="line"/>
    </contour>
    <contour>
      <point x="-96" y="-545" type="line"/>
      <point x="-163" y="-550" type="line" smooth="yes"/>
      <point x="-270.996" y="-558.059"/>
      <point x="-339" y="-594"/>
      <point x="-339" y="-656" type="curve"/>
      <point x="-339" y="-658" type="line"/>
      <point x="-339" y="-737"/>
      <point x="-244" y="-777"/>
      <point x="-96" y="-777" type="curve" smooth="yes"/>
      <point x="52" y="-777"/>
      <point x="144" y="-737"/>
      <point x="144" y="-658" type="curve"/>
      <point x="144" y="-656" type="line"/>
      <point x="144" y="-594"/>
      <point x="77.9865" y="-558.181"/>
      <point x="-30" y="-550" type="curve" smooth="yes"/>
    </contour>
    <contour>
      <point x="-96" y="-569" type="curve" smooth="yes"/>
      <point x="32" y="-569"/>
      <point x="110" y="-597"/>
      <point x="110" y="-656" type="curve"/>
      <point x="110" y="-658" type="line"/>
      <point x="110" y="-716"/>
      <point x="32" y="-744"/>
      <point x="-96" y="-744" type="curve" smooth="yes"/>
      <point x="-226" y="-744"/>
      <point x="-304" y="-716"/>
      <point x="-304" y="-658" type="curve"/>
      <point x="-304" y="-656" type="line"/>
      <point x="-304" y="-597"/>
      <point x="-226" y="-569"/>
    </contour>
  </outline>
  <guideline angle="90" x="-75" y="0"/>
  <guideline angle="0" x="0" y="-613"/>
</glyph>
<glyph name="LllaObsoletematraO.kn" format="2">
  <advance width="4448"/>
  <outline>
    <component base="LllaObsoletematraE.kn"/>
    <contour>
      <point x="3677" y="1157" type="curve" smooth="yes"/>
      <point x="3280" y="1157"/>
      <point x="3069" y="960"/>
      <point x="3069" y="580" type="curve" smooth="yes"/>
      <point x="3069" y="534" type="line" smooth="yes"/>
      <point x="3069" y="194.636"/>
      <point x="2934" y="0"/>
      <point x="2556" y="0" type="curve" smooth="yes"/>
      <point x="2177" y="0"/>
      <point x="2046" y="197.5"/>
      <point x="2046" y="395" type="curve"/>
      <point x="2020" y="389" type="line"/>
      <point x="2020" y="168"/>
      <point x="2159.26" y="-35"/>
      <point x="2558" y="-35" type="curve" smooth="yes"/>
      <point x="2966" y="-35"/>
      <point x="3106" y="178"/>
      <point x="3106" y="530" type="curve" smooth="yes"/>
      <point x="3106" y="577" type="line" smooth="yes"/>
      <point x="3106" y="937.339"/>
      <point x="3303" y="1122"/>
      <point x="3677" y="1122" type="curve" smooth="yes"/>
      <point x="4049" y="1122"/>
      <point x="4244" y="912.335"/>
      <point x="4244" y="496" type="curve" smooth="yes"/>
      <point x="4244" y="484.28" type="line"/>
      <point x="4282" y="485.444" type="line"/>
      <point x="4282" y="497" type="line" smooth="yes"/>
      <point x="4282" y="934"/>
      <point x="4073" y="1157"/>
    </contour>
    <contour>
      <point x="4282" y="488.444" type="line"/>
      <point x="4244" y="487.28" type="line"/>
      <point x="4244" y="473" type="line" smooth="yes"/>
      <point x="4244" y="163.95"/>
      <point x="4118.95" y="5"/>
      <point x="3873" y="5" type="curve" smooth="yes"/>
      <point x="3642" y="5"/>
      <point x="3521" y="111.635"/>
      <point x="3521" y="297" type="curve" smooth="yes"/>
      <point x="3521" y="302" type="line" smooth="yes"/>
      <point x="3521" y="482.372"/>
      <point x="3637" y="589"/>
      <point x="3864" y="589" type="curve" smooth="yes"/>
      <point x="4042.31" y="589"/>
      <point x="4173.05" y="511.237"/>
      <point x="4246" y="392" type="curve"/>
      <point x="4261" y="441" type="line"/>
      <point x="4243" y="441" type="line"/>
      <point x="4176" y="550"/>
      <point x="4040" y="624"/>
      <point x="3863" y="624" type="curve" smooth="yes"/>
      <point x="3614" y="624"/>
      <point x="3483" y="507"/>
      <point x="3483" y="302" type="curve" smooth="yes"/>
      <point x="3483" y="297" type="line" smooth="yes"/>
      <point x="3483" y="86"/>
      <point x="3621" y="-30"/>
      <point x="3873" y="-30" type="curve" smooth="yes"/>
      <point x="4145" y="-30"/>
      <point x="4282" y="142"/>
      <point x="4282" y="473" type="curve" smooth="yes"/>
    </contour>
  </outline>
</glyph>
<glyph name="MaHalant.kn" format="2">
  <advance width="3702"/>
  <outline>
    <component base="Va.kn"/>
    <component base="Halant.kn" xOffset="2976"/>
    <contour>
      <point x="2708" y="510" type="curve"/>
      <point x="2708" y="508" type="line"/>
      <point x="2708" y="174.663"/>
      <point x="2557" y="5"/>
      <point x="2261" y="5" type="curve" smooth="yes"/>
      <point x="1993" y="5"/>
      <point x="1839" y="139.635"/>
      <point x="1839" y="374" type="curve" smooth="yes"/>
      <point x="1839" y="381" type="line"/>
      <point x="1815" y="381" type="line"/>
      <point x="1815" y="306" type="line"/>
      <point x="1832.04" y="112"/>
      <point x="1980.37" y="-30"/>
      <point x="2262" y="-30" type="curve" smooth="yes"/>
      <point x="2583" y="-30"/>
      <point x="2746" y="154"/>
      <point x="2746" y="508" type="curve"/>
      <point x="2746" y="510" type="line"/>
      <point x="2746" y="858.386"/>
      <point x="2581.14" y="1042.08"/>
      <point x="2348" y="1086" type="curve"/>
      <point x="2348" y="1107" type="line"/>
      <point x="2104" y="1107" type="line"/>
      <point x="2104" y="1089" type="line"/>
      <point x="2505" y="1089"/>
      <point x="2708" y="898.329"/>
    </contour>
    <contour>
      <point x="2436" y="1089" type="line"/>
      <point x="2436" y="1122" type="line"/>
      <point x="2037" y="1122" type="line"/>
      <point x="2037" y="1089" type="line"/>
    </contour>
  </outline>
  <guideline angle="90" x="5599" y="0"/>
  <guideline angle="90" x="3580" y="0"/>
  <guideline angle="0" x="0" y="1178"/>
  <guideline angle="90" x="2746" y="0"/>
</glyph>
<glyph name="NamatraI.kn" format="2">
  <advance width="1832"/>
  <outline>
    <contour>
      <point x="496" y="684" type="curve" smooth="yes"/>
      <point x="277" y="684"/>
      <point x="157" y="556"/>
      <point x="157" y="319" type="curve" smooth="yes"/>
      <point x="157" y="316" type="line" smooth="yes"/>
      <point x="157" y="190"/>
      <point x="190" y="72"/>
      <point x="252" y="-25" type="curve"/>
      <point x="297" y="-25" type="line"/>
      <point x="230" y="69"/>
      <point x="195" y="190"/>
      <point x="195" y="316" type="curve" smooth="yes"/>
      <point x="195" y="319" type="line" smooth="yes"/>
      <point x="195" y="533.35"/>
      <point x="302" y="649"/>
      <point x="496" y="649" type="curve" smooth="yes"/>
      <point x="671" y="649"/>
      <point x="760.446" y="574.443"/>
      <point x="843" y="367" type="curve" smooth="yes"/>
      <point x="882" y="269" type="line" smooth="yes"/>
      <point x="965" y="60"/>
      <point x="1079" y="-30"/>
      <point x="1283" y="-30" type="curve" smooth="yes"/>
      <point x="1530" y="-30"/>
      <point x="1666" y="144"/>
      <point x="1666" y="479" type="curve" smooth="yes"/>
      <point x="1666" y="486" type="line"/>
      <point x="1628" y="486" type="line"/>
      <point x="1628" y="479" type="line" smooth="yes"/>
      <point x="1628" y="167.657"/>
      <point x="1506" y="5"/>
      <point x="1284" y="5" type="curve" smooth="yes"/>
      <point x="1101" y="5"/>
      <point x="993.76" y="91.5963"/>
      <point x="916" y="285" type="curve" smooth="yes"/>
      <point x="877" y="382" type="line" smooth="yes"/>
      <point x="786.947" y="605.979"/>
      <point x="683" y="684"/>
    </contour>
    <contour>
      <point x="1666" y="485" type="line"/>
      <point x="1666" y="492" type="line" smooth="yes"/>
      <point x="1666" y="1045"/>
      <point x="1323" y="1379"/>
      <point x="781" y="1379" type="curve" smooth="yes"/>
      <point x="487" y="1379"/>
      <point x="316" y="1274"/>
      <point x="316" y="1092" type="curve" smooth="yes"/>
      <point x="316" y="1087" type="line" smooth="yes"/>
      <point x="316" y="918"/>
      <point x="449" y="823"/>
      <point x="683" y="823" type="curve" smooth="yes"/>
      <point x="908" y="823"/>
      <point x="1041" y="914"/>
      <point x="1041" y="1083" type="curve" smooth="yes"/>
      <point x="1041" y="1088" type="line" smooth="yes"/>
      <point x="1041" y="1210.52"/>
      <point x="959" y="1304.15"/>
      <point x="823" y="1342" type="curve"/>
      <point x="823" y="1362" type="line"/>
      <point x="700" y="1354" type="line"/>
      <point x="845" y="1325.22"/>
      <point x="1003" y="1254.75"/>
      <point x="1003" y="1088" type="curve" smooth="yes"/>
      <point x="1003" y="1083" type="line" smooth="yes"/>
      <point x="1003" y="936.65"/>
      <point x="883" y="858"/>
      <point x="683" y="858" type="curve" smooth="yes"/>
      <point x="472" y="858"/>
      <point x="354" y="938.648"/>
      <point x="354" y="1087" type="curve" smooth="yes"/>
      <point x="354" y="1092" type="line" smooth="yes"/>
      <point x="354" y="1252.36"/>
      <point x="510" y="1343"/>
      <point x="781" y="1343" type="curve" smooth="yes"/>
      <point x="1310" y="1343"/>
      <point x="1628" y="1024.37"/>
      <point x="1628" y="492" type="curve" smooth="yes"/>
      <point x="1628" y="485" type="line"/>
    </contour>
  </outline>
</glyph>
<glyph name="Nasmall1.kn" format="2">
  <advance width="79"/>
  <outline>
    <contour>
      <point x="-394" y="-290" type="curve" smooth="yes"/>
      <point x="-598" y="-290"/>
      <point x="-709" y="-360"/>
      <point x="-709" y="-488" type="curve"/>
      <point x="-709" y="-489" type="line"/>
      <point x="-709" y="-623"/>
      <point x="-593" y="-695"/>
      <point x="-378" y="-695" type="curve" smooth="yes"/>
      <point x="-185" y="-695"/>
      <point x="-44" y="-638"/>
      <point x="40" y="-526" type="curve"/>
      <point x="47" y="-518" type="line"/>
      <point x="103" y="-438.459"/>
      <point x="130" y="-337.224"/>
      <point x="130" y="-205" type="curve" smooth="yes"/>
      <point x="130" y="-64"/>
      <point x="97" y="50"/>
      <point x="21" y="172" type="curve"/>
      <point x="-15" y="172" type="line"/>
      <point x="69" y="29"/>
      <point x="94" y="-62"/>
      <point x="94" y="-205" type="curve" smooth="yes"/>
      <point x="94" y="-329.444"/>
      <point x="75" y="-413.444"/>
      <point x="31" y="-485" type="curve"/>
      <point x="29" y="-490" type="line"/>
      <point x="-67" y="-610"/>
      <point x="-189" y="-662"/>
      <point x="-377" y="-662" type="curve" smooth="yes"/>
      <point x="-571" y="-662"/>
      <point x="-673" y="-603"/>
      <point x="-673" y="-489" type="curve"/>
      <point x="-673" y="-488" type="line"/>
      <point x="-673" y="-379"/>
      <point x="-578" y="-323"/>
      <point x="-394" y="-323" type="curve" smooth="yes"/>
      <point x="-196" y="-323"/>
      <point x="-55" y="-389"/>
      <point x="27" y="-518" type="curve"/>
      <point x="49" y="-490" type="line"/>
      <point x="-40" y="-359"/>
      <point x="-191" y="-290"/>
    </contour>
    <contour>
      <point x="149" y="-875" type="line"/>
      <point x="143" y="-727"/>
      <point x="105" y="-579"/>
      <point x="51" y="-495" type="curve"/>
      <point x="28" y="-519" type="line"/>
      <point x="74" y="-593"/>
      <point x="105" y="-733"/>
      <point x="111" y="-875" type="curve"/>
    </contour>
  </outline>
</glyph>
<glyph name="NgamatraO.kn" format="2">
  <advance width="4260"/>
  <outline>
    <component base="NgamatraE.kn"/>
    <contour>
      <point x="2881" y="580" type="curve" smooth="yes"/>
      <point x="2881" y="514" type="line" smooth="yes"/>
      <point x="2881" y="186.637"/>
      <point x="2750" y="0"/>
      <point x="2386" y="0" type="curve" smooth="yes"/>
      <point x="2021" y="0"/>
      <point x="1894" y="187.5"/>
      <point x="1894" y="375" type="curve"/>
      <point x="1867" y="369" type="line"/>
      <point x="1867" y="158"/>
      <point x="2003.26" y="-35"/>
      <point x="2388" y="-35" type="curve" smooth="yes"/>
      <point x="2782" y="-35"/>
      <point x="2918" y="170"/>
      <point x="2918" y="510" type="curve" smooth="yes"/>
      <point x="2918" y="577" type="line" smooth="yes"/>
      <point x="2918" y="937.339"/>
      <point x="3115" y="1122"/>
      <point x="3489" y="1122" type="curve" smooth="yes"/>
      <point x="3861" y="1122"/>
      <point x="4056" y="912.335"/>
      <point x="4056" y="496" type="curve" smooth="yes"/>
      <point x="4056" y="484.28" type="line"/>
      <point x="4094" y="485.444" type="line"/>
      <point x="4094" y="497" type="line" smooth="yes"/>
      <point x="4094" y="934"/>
      <point x="3885" y="1157"/>
      <point x="3489" y="1157" type="curve" smooth="yes"/>
      <point x="3092" y="1157"/>
      <point x="2881" y="960"/>
    </contour>
    <contour>
      <point x="4094" y="488.444" type="line"/>
      <point x="4056" y="487.28" type="line"/>
      <point x="4056" y="473" type="line" smooth="yes"/>
      <point x="4056" y="163.95"/>
      <point x="3930.95" y="5"/>
      <point x="3685" y="5" type="curve" smooth="yes"/>
      <point x="3454" y="5"/>
      <point x="3333" y="111.635"/>
      <point x="3333" y="297" type="curve" smooth="yes"/>
      <point x="3333" y="302" type="line" smooth="yes"/>
      <point x="3333" y="482.372"/>
      <point x="3449" y="589"/>
      <point x="3676" y="589" type="curve" smooth="yes"/>
      <point x="3854.31" y="589"/>
      <point x="3985.05" y="511.237"/>
      <point x="4058" y="392" type="curve"/>
      <point x="4073" y="441" type="line"/>
      <point x="4055" y="441" type="line"/>
      <point x="3988" y="550"/>
      <point x="3852" y="624"/>
      <point x="3675" y="624" type="curve" smooth="yes"/>
      <point x="3426" y="624"/>
      <point x="3295" y="507"/>
      <point x="3295" y="302" type="curve" smooth="yes"/>
      <point x="3295" y="297" type="line" smooth="yes"/>
      <point x="3295" y="86"/>
      <point x="3433" y="-30"/>
      <point x="3685" y="-30" type="curve" smooth="yes"/>
      <point x="3957" y="-30"/>
      <point x="4094" y="142"/>
      <point x="4094" y="473" type="curve" smooth="yes"/>
    </contour>
  </outline>
</glyph>
<glyph name="Ngasmall1.kn" format="2">
  <outline>
    <contour>
      <point x="-551" y="-186" type="curve" smooth="yes"/>
      <point x="-707" y="-186"/>
      <point x="-790" y="-244"/>
      <point x="-790" y="-354" type="curve"/>
      <point x="-790" y="-354"/>
      <point x="-790" y="-355"/>
      <point x="-790" y="-355" type="curve"/>
      <point x="-790" y="-389"/>
      <point x="-783" y="-419"/>
      <point x="-767" y="-448" type="curve"/>
      <point x="-731" y="-448" type="line"/>
      <point x="-748" y="-417"/>
      <point x="-755" y="-388"/>
      <point x="-755" y="-355" type="curve"/>
      <point x="-755" y="-355"/>
      <point x="-755" y="-354"/>
      <point x="-755" y="-354" type="curve"/>
      <point x="-755" y="-265"/>
      <point x="-685" y="-219"/>
      <point x="-551" y="-219" type="curve" smooth="yes"/>
      <point x="-426" y="-219"/>
      <point x="-358" y="-257"/>
      <point x="-358" y="-330" type="curve"/>
      <point x="-358" y="-332" type="line"/>
      <point x="-358" y="-391"/>
      <point x="-402.965" y="-416.142"/>
      <point x="-520" y="-445" type="curve" smooth="yes"/>
      <point x="-593" y="-463" type="line" smooth="yes"/>
      <point x="-747.006" y="-500.974"/>
      <point x="-808" y="-541"/>
      <point x="-808" y="-624" type="curve"/>
      <point x="-808" y="-626" type="line"/>
      <point x="-808" y="-722"/>
      <point x="-723" y="-775"/>
      <point x="-572" y="-775" type="curve" smooth="yes"/>
      <point x="-426" y="-775"/>
      <point x="-341" y="-722"/>
      <point x="-320" y="-622" type="curve"/>
      <point x="-306" y="-622" type="line"/>
      <point x="-305" y="-529" type="line"/>
      <point x="-335" y="-529" type="line"/>
      <point x="-336" y="-551" type="line" smooth="yes"/>
      <point x="-341.728" y="-677.013"/>
      <point x="-416" y="-742"/>
      <point x="-570" y="-742" type="curve" smooth="yes"/>
      <point x="-702" y="-742"/>
      <point x="-773" y="-701"/>
      <point x="-773" y="-626" type="curve"/>
      <point x="-773" y="-624" type="line"/>
      <point x="-773" y="-560"/>
      <point x="-717.99" y="-527.039"/>
      <point x="-584" y="-494" type="curve" smooth="yes"/>
      <point x="-511" y="-476" type="line" smooth="yes"/>
      <point x="-377.01" y="-442.961"/>
      <point x="-323" y="-408"/>
      <point x="-323" y="-332" type="curve"/>
      <point x="-323" y="-330" type="line"/>
      <point x="-323" y="-236"/>
      <point x="-403" y="-186"/>
    </contour>
    <contour>
      <point x="117" y="-586" type="line" smooth="yes"/>
      <point x="117" y="-682.005"/>
      <point x="50" y="-742"/>
      <point x="-77" y="-742" type="curve" smooth="yes"/>
      <point x="-223" y="-742"/>
      <point x="-294.81" y="-679.991"/>
      <point x="-301" y="-550" type="curve" smooth="yes"/>
      <point x="-302" y="-529" type="line"/>
      <point x="-324" y="-529" type="line"/>
      <point x="-318" y="-622" type="line"/>
      <point x="-297" y="-722"/>
      <point x="-214" y="-775"/>
      <point x="-77" y="-775" type="curve" smooth="yes"/>
      <point x="73" y="-775"/>
      <point x="152" y="-702.004"/>
      <point x="152" y="-586" type="curve" smooth="yes"/>
      <point x="152" y="-584" type="line" smooth="yes"/>
      <point x="152" y="-563"/>
      <point x="150" y="-542"/>
      <point x="143" y="-519" type="curve"/>
      <point x="109" y="-519" type="line"/>
      <point x="114" y="-541"/>
      <point x="117" y="-564"/>
      <point x="117" y="-584" type="curve" smooth="yes"/>
    </contour>
    <contour>
      <point x="-327" y="-364" type="line"/>
      <point x="-311" y="-282"/>
      <point x="-243" y="-219"/>
      <point x="-108" y="-219" type="curve" smooth="yes"/>
      <point x="32" y="-219"/>
      <point x="106" y="-275"/>
      <point x="106" y="-383" type="curve"/>
      <point x="106" y="-384" type="line"/>
      <point x="106" y="-395"/>
      <point x="105" y="-409"/>
      <point x="103" y="-421" type="curve"/>
      <point x="137" y="-421" type="line"/>
      <point x="140" y="-410"/>
      <point x="141" y="-395"/>
      <point x="141" y="-384" type="curve"/>
      <point x="141" y="-383" type="line"/>
      <point x="141" y="-254"/>
      <point x="55" y="-186"/>
      <point x="-107" y="-186" type="curve" smooth="yes"/>
      <point x="-261" y="-186"/>
      <point x="-335" y="-259"/>
      <point x="-355" y="-360" type="curve"/>
    </contour>
    <contour>
      <point x="-134" y="-374" type="curve" smooth="yes"/>
      <point x="-151" y="-374"/>
      <point x="-156" y="-387"/>
      <point x="-156" y="-455" type="curve" smooth="yes"/>
      <point x="-156" y="-463" type="line" smooth="yes"/>
      <point x="-156" y="-531"/>
      <point x="-151" y="-543"/>
      <point x="-134" y="-543" type="curve" smooth="yes"/>
      <point x="-117" y="-543"/>
      <point x="-112" y="-531"/>
      <point x="-112" y="-463" type="curve" smooth="yes"/>
      <point x="-112" y="-455" type="line" smooth="yes"/>
      <point x="-112" y="-387"/>
      <point x="-117" y="-374"/>
    </contour>
  </outline>
  <guideline angle="90" x="302" y="0"/>
  <guideline angle="0" x="0" y="-539"/>
  <guideline angle="0" x="0" y="-477"/>
  <guideline angle="90" x="980" y="0"/>
</glyph>
<glyph name="NyamatraUu.kn" format="2">
  <advance width="4400"/>
  <outline>
    <contour>
      <point x="3628.45" y="1157" type="curve" smooth="yes"/>
      <point x="3231.45" y="1157"/>
      <point x="3020.45" y="960"/>
      <point x="3020.45" y="580" type="curve" smooth="yes"/>
      <point x="3020.45" y="454" type="line"/>
      <point x="3057.45" y="454" type="line"/>
      <point x="3057.45" y="577" type="line" smooth="yes"/>
      <point x="3057.45" y="937.339"/>
      <point x="3254.45" y="1122"/>
      <point x="3628.45" y="1122" type="curve" smooth="yes"/>
      <point x="4000.45" y="1122"/>
      <point x="4195.45" y="912.335"/>
      <point x="4195.45" y="496" type="curve" smooth="yes"/>
      <point x="4195.45" y="484.28" type="line"/>
      <point x="4233.45" y="485.444" type="line"/>
      <point x="4233.45" y="497" type="line" smooth="yes"/>
      <point x="4233.45" y="934"/>
      <point x="4024.45" y="1157"/>
    </contour>
    <contour>
      <point x="4233.45" y="488.444" type="line"/>
      <point x="4195.45" y="487.28" type="line"/>
      <point x="4195.45" y="473" type="line" smooth="yes"/>
      <point x="4195.45" y="163.95"/>
      <point x="4070.4" y="5"/>
      <point x="3824.45" y="5" type="curve" smooth="yes"/>
      <point x="3593.45" y="5"/>
      <point x="3472.45" y="111.635"/>
      <point x="3472.45" y="297" type="curve" smooth="yes"/>
      <point x="3472.45" y="302" type="line" smooth="yes"/>
      <point x="3472.45" y="482.372"/>
      <point x="3588.45" y="589"/>
      <point x="3815.45" y="589" type="curve" smooth="yes"/>
      <point x="3993.76" y="589"/>
      <point x="4124.5" y="511.237"/>
      <point x="4197.45" y="392" type="curve"/>
      <point x="4212.45" y="441" type="line"/>
      <point x="4194.45" y="441" type="line"/>
      <point x="4127.45" y="550"/>
      <point x="3991.45" y="624"/>
      <point x="3814.45" y="624" type="curve" smooth="yes"/>
      <point x="3565.45" y="624"/>
      <point x="3434.45" y="507"/>
      <point x="3434.45" y="302" type="curve" smooth="yes"/>
      <point x="3434.45" y="297" type="line" smooth="yes"/>
      <point x="3434.45" y="86"/>
      <point x="3572.45" y="-30"/>
      <point x="3824.45" y="-30" type="curve" smooth="yes"/>
      <point x="4096.45" y="-30"/>
      <point x="4233.45" y="142"/>
      <point x="4233.45" y="473" type="curve" smooth="yes"/>
    </contour>
    <contour>
      <point x="1747" y="-152" type="line"/>
      <point x="1713" y="43"/>
      <point x="1668" y="164"/>
      <point x="1586" y="274" type="curve"/>
      <point x="1557" y="257" type="line"/>
      <point x="1636" y="151"/>
      <point x="1677" y="38"/>
      <point x="1710" y="-152" type="curve"/>
    </contour>
    <contour>
      <point x="2447" y="812" type="curve" smooth="yes"/>
      <point x="2447" y="1020"/>
      <point x="2325" y="1156"/>
      <point x="2082" y="1156" type="curve" smooth="yes"/>
      <point x="1869" y="1156"/>
      <point x="1746" y="1039"/>
      <point x="1717" y="860" type="curve"/>
      <point x="1702" y="860" type="line"/>
      <point x="1701" y="709" type="line"/>
      <point x="1735" y="709" type="line"/>
      <point x="1735" y="719" type="line" smooth="yes"/>
      <point x="1735" y="988.33"/>
      <point x="1858" y="1121"/>
      <point x="2081" y="1121" type="curve" smooth="yes"/>
      <point x="2299" y="1121"/>
      <point x="2409" y="998.397"/>
      <point x="2409" y="812" type="curve" smooth="yes"/>
      <point x="2409" y="622"/>
      <point x="2336" y="486"/>
      <point x="2336" y="317" type="curve" smooth="yes"/>
      <point x="2336" y="97"/>
      <point x="2461" y="-35"/>
      <point x="2689" y="-35" type="curve" smooth="yes"/>
      <point x="2932" y="-35"/>
      <point x="3057" y="77"/>
      <point x="3057" y="380" type="curve" smooth="yes"/>
      <point x="3057" y="475" type="line"/>
      <point x="3020" y="475" type="line"/>
      <point x="3020" y="382" type="line" smooth="yes"/>
      <point x="3020" y="99.7389"/>
      <point x="2910" y="0"/>
      <point x="2690" y="0" type="curve" smooth="yes"/>
      <point x="2482" y="0"/>
      <point x="2374" y="116.632"/>
      <point x="2374" y="317" type="curve" smooth="yes"/>
      <point x="2374" y="477"/>
      <point x="2447" y="619"/>
    </contour>
    <contour>
      <point x="1317" y="1121" type="curve" smooth="yes"/>
      <point x="1568" y="1121"/>
      <point x="1697" y="979.351"/>
      <point x="1697" y="717" type="curve" smooth="yes"/>
      <point x="1697" y="704" type="line" smooth="yes"/>
      <point x="1697" y="535"/>
      <point x="1651" y="391"/>
      <point x="1564" y="282" type="curve" smooth="yes"/>
      <point x="1556" y="272" type="line" smooth="yes"/>
      <point x="1418.07" y="99.5887"/>
      <point x="1184" y="5"/>
      <point x="884" y="5" type="curve" smooth="yes"/>
      <point x="566" y="5"/>
      <point x="394" y="92.6704"/>
      <point x="394" y="271" type="curve"/>
      <point x="394" y="273" type="line"/>
      <point x="394" y="447.324"/>
      <point x="553" y="531"/>
      <point x="864" y="531" type="curve" smooth="yes"/>
      <point x="1185" y="531"/>
      <point x="1435" y="422.389"/>
      <point x="1558" y="252" type="curve"/>
      <point x="1584" y="276" type="line"/>
      <point x="1439" y="459"/>
      <point x="1193" y="566"/>
      <point x="863" y="566" type="curve" smooth="yes"/>
      <point x="528" y="566"/>
      <point x="356" y="470"/>
      <point x="356" y="273" type="curve"/>
      <point x="356" y="271" type="line"/>
      <point x="356" y="69"/>
      <point x="540" y="-30"/>
      <point x="885" y="-30" type="curve" smooth="yes"/>
      <point x="1192" y="-30"/>
      <point x="1434" y="68"/>
      <point x="1580" y="243" type="curve"/>
      <point x="1588" y="253" type="line" smooth="yes"/>
      <point x="1683" y="371"/>
      <point x="1735" y="523"/>
      <point x="1735" y="704" type="curve" smooth="yes"/>
      <point x="1735" y="727" type="line"/>
      <point x="1732.24" y="746.322"/>
      <point x="1718.86" y="839.967"/>
      <point x="1716" y="860" type="curve"/>
      <point x="1674" y="1051"/>
      <point x="1541" y="1156"/>
      <point x="1318" y="1156" type="curve" smooth="yes"/>
      <point x="1065" y="1156"/>
      <point x="944" y="1020"/>
      <point x="926" y="815" type="curve"/>
      <point x="924" y="815" type="line"/>
      <point x="907" y="1020"/>
      <point x="785" y="1156"/>
      <point x="525" y="1156" type="curve" smooth="yes"/>
      <point x="261" y="1156"/>
      <point x="125" y="1033"/>
      <point x="125" y="813" type="curve"/>
      <point x="125" y="812" type="line"/>
      <point x="125" y="752"/>
      <point x="137" y="691"/>
      <point x="160" y="646" type="curve"/>
      <point x="200" y="646" type="line"/>
      <point x="175" y="695"/>
      <point x="163" y="753"/>
      <point x="163" y="812" type="curve"/>
      <point x="163" y="813" type="line"/>
      <point x="163" y="1011.36"/>
      <point x="287" y="1121"/>
      <point x="526" y="1121" type="curve" smooth="yes"/>
      <point x="779" y="1121"/>
      <point x="896.584" y="988.317"/>
      <point x="905" y="719" type="curve" smooth="yes"/>
      <point x="906" y="687" type="line"/>
      <point x="944" y="687" type="line"/>
      <point x="945" y="719" type="line" smooth="yes"/>
      <point x="953.416" y="988.317"/>
      <point x="1072" y="1121"/>
    </contour>
  </outline>
</glyph>
<glyph name="PaUpadhmaniya.kn" format="2">
  <advance width="2007"/>
  <outline>
    <contour>
      <point x="480" y="684" type="curve" smooth="yes"/>
      <point x="266" y="684"/>
      <point x="143" y="561"/>
      <point x="143" y="340" type="curve" smooth="yes"/>
      <point x="143" y="330" type="line" smooth="yes"/>
      <point x="143" y="96"/>
      <point x="293" y="-30"/>
      <point x="574" y="-30" type="curve" smooth="yes"/>
      <point x="854" y="-30"/>
      <point x="986" y="108"/>
      <point x="1006" y="323" type="curve"/>
      <point x="1008" y="323" type="line"/>
      <point x="1027" y="108"/>
      <point x="1158" y="-30"/>
      <point x="1432" y="-30" type="curve" smooth="yes"/>
      <point x="1710" y="-30"/>
      <point x="1851" y="106"/>
      <point x="1851" y="368" type="curve"/>
      <point x="1851" y="369" type="line"/>
      <point x="1851" y="564"/>
      <point x="1772" y="714"/>
      <point x="1623" y="805" type="curve"/>
      <point x="1566" y="805" type="line"/>
      <point x="1725" y="715"/>
      <point x="1813" y="567"/>
      <point x="1813" y="369" type="curve"/>
      <point x="1813" y="368" type="line"/>
      <point x="1813" y="126.665"/>
      <point x="1684" y="5"/>
      <point x="1431" y="5" type="curve" smooth="yes"/>
      <point x="1164" y="5"/>
      <point x="1035.73" y="139.666"/>
      <point x="1027" y="419" type="curve" smooth="yes"/>
      <point x="1026" y="451" type="line"/>
      <point x="988" y="451" type="line"/>
      <point x="987" y="419" type="line" smooth="yes"/>
      <point x="978.271" y="139.666"/>
      <point x="848" y="5"/>
      <point x="575" y="5" type="curve" smooth="yes"/>
      <point x="319" y="5"/>
      <point x="181" y="116.656"/>
      <point x="181" y="330" type="curve" smooth="yes"/>
      <point x="181" y="340" type="line" smooth="yes"/>
      <point x="181" y="542.345"/>
      <point x="290" y="649"/>
      <point x="483" y="649" type="curve" smooth="yes"/>
      <point x="578" y="649"/>
      <point x="655" y="617"/>
      <point x="707" y="571" type="curve"/>
      <point x="704" y="615" type="line"/>
      <point x="653" y="658"/>
      <point x="575" y="684"/>
    </contour>
    <contour>
      <point x="641" y="1308" type="curve" smooth="yes"/>
      <point x="465" y="1308"/>
      <point x="376" y="1227"/>
      <point x="376" y="1082" type="curve" smooth="yes"/>
      <point x="376" y="1079" type="line" smooth="yes"/>
      <point x="376" y="935"/>
      <point x="465" y="853"/>
      <point x="641" y="853" type="curve" smooth="yes"/>
      <point x="819" y="853"/>
      <point x="908" y="935"/>
      <point x="908" y="1079" type="curve" smooth="yes"/>
      <point x="908" y="1082" type="line" smooth="yes"/>
      <point x="908" y="1227"/>
      <point x="819" y="1308"/>
    </contour>
    <contour>
      <point x="641" y="1276" type="curve" smooth="yes"/>
      <point x="794" y="1276"/>
      <point x="871" y="1206.36"/>
      <point x="871" y="1082" type="curve" smooth="yes"/>
      <point x="871" y="1079" type="line" smooth="yes"/>
      <point x="871" y="957.255"/>
      <point x="794" y="885"/>
      <point x="641" y="885" type="curve" smooth="yes"/>
      <point x="490" y="885"/>
      <point x="413" y="957.255"/>
      <point x="413" y="1079" type="curve" smooth="yes"/>
      <point x="413" y="1082" type="line" smooth="yes"/>
      <point x="413" y="1206.36"/>
      <point x="490" y="1276"/>
    </contour>
    <contour>
      <point x="1350" y="1308" type="curve" smooth="yes"/>
      <point x="1174" y="1308"/>
      <point x="1085" y="1227"/>
      <point x="1085" y="1082" type="curve" smooth="yes"/>
      <point x="1085" y="1079" type="line" smooth="yes"/>
      <point x="1085" y="935"/>
      <point x="1174" y="853"/>
      <point x="1350" y="853" type="curve" smooth="yes"/>
      <point x="1527" y="853"/>
      <point x="1617" y="935"/>
      <point x="1617" y="1079" type="curve" smooth="yes"/>
      <point x="1617" y="1082" type="line" smooth="yes"/>
      <point x="1617" y="1227"/>
      <point x="1527" y="1308"/>
    </contour>
    <contour>
      <point x="1350" y="1276" type="curve" smooth="yes"/>
      <point x="1502" y="1276"/>
      <point x="1580" y="1206.36"/>
      <point x="1580" y="1082" type="curve" smooth="yes"/>
      <point x="1580" y="1079" type="line" smooth="yes"/>
      <point x="1580" y="957.255"/>
      <point x="1502" y="885"/>
      <point x="1350" y="885" type="curve" smooth="yes"/>
      <point x="1199" y="885"/>
      <point x="1122" y="957.255"/>
      <point x="1122" y="1079" type="curve" smooth="yes"/>
      <point x="1122" y="1082" type="line" smooth="yes"/>
      <point x="1122" y="1206.36"/>
      <point x="1199" y="1276"/>
    </contour>
  </outline>
  <guideline angle="90" x="1022" y="0"/>
  <guideline angle="90" x="1022" y="0"/>
  <guideline angle="90" x="423.4" y="0"/>
</glyph>
<glyph name="PamatraU.kn" format="2">
  <advance width="2684"/>
  <outline>
    <component base="Pa.kn"/>
    <contour>
      <point x="1998" y="1041" type="curve" smooth="yes"/>
      <point x="1977" y="1041"/>
      <point x="1968" y="1040"/>
      <point x="1951" y="1039" type="curve"/>
      <point x="1951" y="1004" type="line"/>
      <point x="1964" y="1005"/>
      <point x="1978" y="1006"/>
      <point x="1997" y="1006" type="curve" smooth="yes"/>
      <point x="2308" y="1006"/>
      <point x="2480" y="791.355"/>
      <point x="2480" y="401" type="curve" smooth="yes"/>
      <point x="2480" y="392" type="line" smooth="yes"/>
      <point x="2480" y="-67.9218"/>
      <point x="2234" y="-307"/>
      <point x="1749" y="-307" type="curve" smooth="yes"/>
      <point x="1357" y="-307"/>
      <point x="1108" y="-149.379"/>
      <point x="1010" y="109" type="curve"/>
      <point x="1009" y="109" type="line"/>
      <point x="1020" y="21" type="line"/>
      <point x="1126" y="-195.404"/>
      <point x="1362" y="-342"/>
      <point x="1753" y="-342" type="curve" smooth="yes"/>
      <point x="2258" y="-342"/>
      <point x="2518" y="-89.5512"/>
      <point x="2518" y="390" type="curve" smooth="yes"/>
      <point x="2518" y="399" type="line" smooth="yes"/>
      <point x="2518" y="811"/>
      <point x="2331" y="1041"/>
    </contour>
  </outline>
  <guideline angle="90" x="1008" y="0"/>
  <guideline angle="90" x="1036" y="0"/>
</glyph>
<glyph name="Pasmall1.kn" format="2">
  <outline>
    <contour>
      <point x="-187" y="-133" type="curve" smooth="yes"/>
      <point x="-198" y="-133"/>
      <point x="-210" y="-134"/>
      <point x="-220" y="-135" type="curve"/>
      <point x="-220" y="-168" type="line"/>
      <point x="-210" y="-167"/>
      <point x="-198" y="-166"/>
      <point x="-187" y="-166" type="curve" smooth="yes"/>
      <point x="-10" y="-166"/>
      <point x="83" y="-267"/>
      <point x="83" y="-447" type="curve" smooth="yes"/>
      <point x="83" y="-451" type="line" smooth="yes"/>
      <point x="83" y="-598"/>
      <point x="7" y="-682"/>
      <point x="-128" y="-682" type="curve" smooth="yes"/>
      <point x="-264" y="-682"/>
      <point x="-329.81" y="-619.991"/>
      <point x="-336" y="-490" type="curve" smooth="yes"/>
      <point x="-337" y="-469" type="line"/>
      <point x="-359" y="-469" type="line"/>
      <point x="-353" y="-562" type="line"/>
      <point x="-335" y="-662"/>
      <point x="-253" y="-715"/>
      <point x="-128" y="-715" type="curve" smooth="yes"/>
      <point x="35" y="-715"/>
      <point x="118" y="-617"/>
      <point x="118" y="-451" type="curve" smooth="yes"/>
      <point x="118" y="-447" type="line" smooth="yes"/>
      <point x="118" y="-247"/>
      <point x="12" y="-133"/>
    </contour>
    <contour>
      <point x="-595" y="-682" type="curve" smooth="yes"/>
      <point x="-724" y="-682"/>
      <point x="-802" y="-625"/>
      <point x="-802" y="-514" type="curve" smooth="yes"/>
      <point x="-802" y="-509" type="line" smooth="yes"/>
      <point x="-802" y="-403"/>
      <point x="-743" y="-344"/>
      <point x="-635" y="-344" type="curve" smooth="yes"/>
      <point x="-581" y="-344"/>
      <point x="-532" y="-360"/>
      <point x="-495" y="-380" type="curve"/>
      <point x="-499" y="-343" type="line"/>
      <point x="-532" y="-324"/>
      <point x="-580" y="-311"/>
      <point x="-637" y="-311" type="curve" smooth="yes"/>
      <point x="-764" y="-311"/>
      <point x="-838" y="-382"/>
      <point x="-838" y="-509" type="curve" smooth="yes"/>
      <point x="-838" y="-514" type="line" smooth="yes"/>
      <point x="-838" y="-646"/>
      <point x="-748" y="-715"/>
      <point x="-597" y="-715" type="curve" smooth="yes"/>
      <point x="-454" y="-715"/>
      <point x="-375" y="-662"/>
      <point x="-355" y="-562" type="curve"/>
      <point x="-341" y="-562" type="line"/>
      <point x="-340" y="-469" type="line"/>
      <point x="-370" y="-469" type="line"/>
      <point x="-371" y="-491" type="line" smooth="yes"/>
      <point x="-376.728" y="-617.013"/>
      <point x="-445" y="-682"/>
    </contour>
  </outline>
  <guideline angle="90" x="512" y="0"/>
</glyph>
<glyph name="PhaNuktamatraO.kn" format="2">
  <advance width="3661"/>
  <outline>
    <component base="PhamatraO.kn"/>
    <contour>
      <point x="678" y="-363" type="curve" smooth="yes"/>
      <point x="650" y="-363"/>
      <point x="637" y="-384"/>
      <point x="637" y="-434" type="curve" smooth="yes"/>
      <point x="637" y="-484"/>
      <point x="650" y="-505"/>
      <point x="678" y="-505" type="curve" smooth="yes"/>
      <point x="706" y="-505"/>
      <point x="719" y="-484"/>
      <point x="719" y="-434" type="curve" smooth="yes"/>
      <point x="719" y="-384"/>
      <point x="706" y="-363"/>
    </contour>
    <contour>
      <point x="1342" y="-363" type="curve" smooth="yes"/>
      <point x="1314" y="-363"/>
      <point x="1301" y="-384"/>
      <point x="1301" y="-434" type="curve" smooth="yes"/>
      <point x="1301" y="-484"/>
      <point x="1314" y="-505"/>
      <point x="1342" y="-505" type="curve" smooth="yes"/>
      <point x="1370" y="-505"/>
      <point x="1383" y="-484"/>
      <point x="1383" y="-434" type="curve" smooth="yes"/>
      <point x="1383" y="-384"/>
      <point x="1370" y="-363"/>
    </contour>
  </outline>
  <guideline angle="90" x="1276" y="0"/>
</glyph>
<glyph name="PhaUpadhmaniya.kn" format="2">
  <advance width="2007"/>
  <outline>
    <component base="PaUpadhmaniya.kn"/>
    <contour>
      <point x="1007" y="-383" type="curve" smooth="yes"/>
      <point x="1028" y="-383"/>
      <point x="1036" y="-368"/>
      <point x="1036" y="-336" type="curve" smooth="yes"/>
      <point x="1036" y="-269" type="line" smooth="yes"/>
      <point x="1036" y="-98"/>
      <point x="1029" y="16"/>
      <point x="1007" y="111" type="curve"/>
      <point x="986" y="16"/>
      <point x="979" y="-98"/>
      <point x="979" y="-269" type="curve" smooth="yes"/>
      <point x="979" y="-336" type="line" smooth="yes"/>
      <point x="979" y="-368"/>
      <point x="987" y="-383"/>
    </contour>
  </outline>
  <guideline angle="90" x="1298" y="0"/>
</glyph>
<glyph name="PhamatraAu.kn" format="2">
  <advance width="2861"/>
  <anchor x="1009" y="0" name="nukta"/>
  <outline>
    <component base="PamatraAu.kn"/>
    <contour>
      <point x="1009" y="-383" type="curve" smooth="yes"/>
      <point x="1030" y="-383"/>
      <point x="1038" y="-368"/>
      <point x="1038" y="-336" type="curve" smooth="yes"/>
      <point x="1038" y="-269" type="line" smooth="yes"/>
      <point x="1038" y="-98"/>
      <point x="1031" y="16"/>
      <point x="1009" y="111" type="curve"/>
      <point x="988" y="16"/>
      <point x="981" y="-98"/>
      <point x="981" y="-269" type="curve" smooth="yes"/>
      <point x="981" y="-336" type="line" smooth="yes"/>
      <point x="981" y="-368"/>
      <point x="989" y="-383"/>
    </contour>
  </outline>
  <guideline angle="0" x="0" y="4833"/>
  <guideline angle="90" x="1276" y="0"/>
  <guideline angle="90" x="981" y="0"/>
</glyph>
<glyph name="PhamatraI.kn" format="2">
  <advance width="2007"/>
  <anchor x="994" y="0" name="nukta"/>
  <outline>
    <component base="PamatraI.kn"/>
    <contour>
      <point x="992" y="-383" type="curve" smooth="yes"/>
      <point x="1013" y="-383"/>
      <point x="1021" y="-368"/>
      <point x="1021" y="-336" type="curve" smooth="yes"/>
      <point x="1021" y="-269" type="line" smooth="yes"/>
      <point x="1021" y="-98"/>
      <point x="1014" y="16"/>
      <point x="992" y="111" type="curve"/>
      <point x="971" y="16"/>
      <point x="964" y="-98"/>
      <point x="964" y="-269" type="curve" smooth="yes"/>
      <point x="964" y="-336" type="line" smooth="yes"/>
      <point x="964" y="-368"/>
      <point x="972" y="-383"/>
    </contour>
  </outline>
  <guideline angle="90" x="1252" y="0"/>
  <guideline angle="90" x="965" y="0"/>
</glyph>
<glyph name="PhamatraU.kn" format="2">
  <advance width="2684"/>
  <outline>
    <component base="Pha.kn"/>
    <contour>
      <point x="1998" y="1041" type="curve" smooth="yes"/>
      <point x="1977" y="1041"/>
      <point x="1968" y="1040"/>
      <point x="1951" y="1039" type="curve"/>
      <point x="1951" y="1004" type="line"/>
      <point x="1964" y="1005"/>
      <point x="1978" y="1006"/>
      <point x="1997" y="1006" type="curve" smooth="yes"/>
      <point x="2308" y="1006"/>
      <point x="2480" y="791.355"/>
      <point x="2480" y="401" type="curve" smooth="yes"/>
      <point x="2480" y="392" type="line" smooth="yes"/>
      <point x="2480" y="-67.9218"/>
      <point x="2234" y="-307"/>
      <point x="1749" y="-307" type="curve" smooth="yes"/>
      <point x="1356" y="-307"/>
      <point x="1107" y="-148.379"/>
      <point x="1009" y="111" type="curve"/>
      <point x="1015" y="47" type="line"/>
      <point x="1022" y="48" type="line"/>
      <point x="1049" y="-33" type="line"/>
      <point x="1152" y="-198.465"/>
      <point x="1366" y="-342"/>
      <point x="1753" y="-342" type="curve" smooth="yes"/>
      <point x="2258" y="-342"/>
      <point x="2518" y="-89.5512"/>
      <point x="2518" y="390" type="curve" smooth="yes"/>
      <point x="2518" y="399" type="line" smooth="yes"/>
      <point x="2518" y="811"/>
      <point x="2331" y="1041"/>
    </contour>
  </outline>
  <guideline angle="0" x="0" y="-363"/>
  <guideline angle="90" x="981" y="0"/>
</glyph>
<glyph name="RamatraI.kn" format="2">
  <advance width="1676"/>
  <outline>
    <contour>
      <point x="838" y="1" type="curve" smooth="yes"/>
      <point x="421" y="1"/>
      <point x="204" y="185.657"/>
      <point x="204" y="540" type="curve" smooth="yes"/>
      <point x="204" y="550" type="line" smooth="yes"/>
      <point x="204" y="904.343"/>
      <point x="421" y="1089"/>
      <point x="838" y="1089" type="curve" smooth="yes"/>
      <point x="1255" y="1089"/>
      <point x="1472" y="917.341"/>
      <point x="1472" y="586" type="curve" smooth="yes"/>
      <point x="1472" y="580" type="line" smooth="yes"/>
      <point x="1472" y="199.657"/>
      <point x="1255" y="1"/>
    </contour>
    <contour>
      <point x="729" y="1495" type="curve" smooth="yes"/>
      <point x="360" y="1495"/>
      <point x="170" y="1378"/>
      <point x="170" y="1155" type="curve" smooth="yes"/>
      <point x="170" y="1040"/>
      <point x="224" y="952"/>
      <point x="315" y="923" type="curve"/>
      <point x="335" y="951" type="line"/>
      <point x="254" y="983"/>
      <point x="207" y="1055"/>
      <point x="207" y="1154" type="curve" smooth="yes"/>
      <point x="207" y="1353.35"/>
      <point x="387" y="1460"/>
      <point x="729" y="1460" type="curve" smooth="yes"/>
      <point x="1223" y="1460"/>
      <point x="1479" y="1211.29"/>
      <point x="1479" y="607" type="curve" smooth="yes"/>
      <point x="1479" y="574" type="line"/>
      <point x="1510" y="584" type="line"/>
      <point x="1510" y="601" type="line" smooth="yes"/>
      <point x="1510" y="1222"/>
      <point x="1264" y="1495"/>
    </contour>
    <contour>
      <point x="1468" y="797" type="curve"/>
      <point x="1386" y="1012"/>
      <point x="1176" y="1124"/>
      <point x="838" y="1124" type="curve" smooth="yes"/>
      <point x="597" y="1124"/>
      <point x="421" y="1064"/>
      <point x="309" y="950" type="curve" smooth="yes"/>
      <point x="307.05" y="948.05"/>
      <point x="300.95" y="941.95"/>
      <point x="299" y="940" type="curve"/>
      <point x="211" y="846"/>
      <point x="166" y="716"/>
      <point x="166" y="550" type="curve" smooth="yes"/>
      <point x="166" y="540" type="line" smooth="yes"/>
      <point x="166" y="163"/>
      <point x="396" y="-34"/>
      <point x="838" y="-34" type="curve" smooth="yes"/>
      <point x="1280" y="-34"/>
      <point x="1510" y="177"/>
      <point x="1510" y="580" type="curve" smooth="yes"/>
      <point x="1510" y="586" type="line"/>
      <point x="1480" y="797" type="line"/>
      <point x="1477.23" y="797"/>
      <point x="1470.34" y="797"/>
    </contour>
  </outline>
  <guideline angle="90" x="843" y="0"/>
</glyph>
<glyph name="SamatraAu.kn" format="2">
  <advance width="2738"/>
  <outline>
    <component base="matraAu.kn" xOffset="978"/>
    <contour>
      <point x="1375" y="1089" type="line"/>
      <point x="1375" y="1122" type="line"/>
      <point x="155" y="1122" type="line"/>
      <point x="155" y="1089" type="line"/>
    </contour>
    <contour>
      <point x="938" y="637" type="curve" smooth="yes"/>
      <point x="962" y="637"/>
      <point x="965" y="668"/>
      <point x="965" y="789" type="curve" smooth="yes"/>
      <point x="965" y="806" type="line" smooth="yes"/>
      <point x="965" y="927"/>
      <point x="962" y="958"/>
      <point x="938" y="958" type="curve" smooth="yes"/>
      <point x="914" y="958"/>
      <point x="911" y="927"/>
      <point x="911" y="806" type="curve" smooth="yes"/>
      <point x="911" y="789" type="line" smooth="yes"/>
      <point x="911" y="668"/>
      <point x="914" y="637"/>
    </contour>
    <contour>
      <point x="1711" y="366" type="curve"/>
      <point x="1711" y="367" type="line"/>
      <point x="1711" y="563"/>
      <point x="1632" y="714"/>
      <point x="1483" y="805" type="curve"/>
      <point x="1426" y="805" type="line"/>
      <point x="1585" y="715"/>
      <point x="1673" y="566"/>
      <point x="1673" y="367" type="curve"/>
      <point x="1673" y="366" type="line"/>
      <point x="1673" y="129.655"/>
      <point x="1541" y="5"/>
      <point x="1322" y="5" type="curve" smooth="yes"/>
      <point x="1120" y="5"/>
      <point x="1003.51" y="103.393"/>
      <point x="899" y="295" type="curve" smooth="yes"/>
      <point x="875" y="339" type="line" smooth="yes"/>
      <point x="769" y="533"/>
      <point x="674" y="615"/>
      <point x="482" y="615" type="curve" smooth="yes"/>
      <point x="269" y="615"/>
      <point x="150" y="496"/>
      <point x="150" y="274" type="curve" smooth="yes"/>
      <point x="150" y="271" type="line" smooth="yes"/>
      <point x="150" y="162"/>
      <point x="183" y="58"/>
      <point x="245" y="-25" type="curve"/>
      <point x="290" y="-25" type="line"/>
      <point x="223" y="55"/>
      <point x="188" y="162"/>
      <point x="188" y="271" type="curve" smooth="yes"/>
      <point x="188" y="274" type="line" smooth="yes"/>
      <point x="188" y="473.349"/>
      <point x="294" y="580"/>
      <point x="482" y="580" type="curve" smooth="yes"/>
      <point x="662" y="580"/>
      <point x="742.086" y="504.342"/>
      <point x="841" y="323" type="curve" smooth="yes"/>
      <point x="865" y="279" type="line" smooth="yes"/>
      <point x="977" y="74"/>
      <point x="1099" y="-30"/>
      <point x="1322" y="-30" type="curve" smooth="yes"/>
      <point x="1565" y="-30"/>
      <point x="1711" y="106"/>
    </contour>
  </outline>
  <guideline angle="0" x="0" y="4833"/>
</glyph>
<glyph name="Shasmall1.kn" format="2">
  <advance width="170"/>
  <outline>
    <contour>
      <point x="250" y="-480" type="curve" smooth="yes"/>
      <point x="250" y="-488" type="line" smooth="yes"/>
      <point x="250" y="-655"/>
      <point x="138" y="-742"/>
      <point x="-75" y="-742" type="curve" smooth="yes"/>
      <point x="-246" y="-742"/>
      <point x="-360" y="-689"/>
      <point x="-360" y="-601" type="curve"/>
      <point x="-360" y="-600" type="line"/>
      <point x="-360" y="-517"/>
      <point x="-284.993" y="-500.03"/>
      <point x="-70" y="-453" type="curve" smooth="yes"/>
      <point x="-6" y="-439" type="line" smooth="yes"/>
      <point x="117.02" y="-412.089"/>
      <point x="175" y="-381"/>
      <point x="226" y="-318" type="curve"/>
      <point x="201" y="-296" type="line"/>
      <point x="158" y="-353"/>
      <point x="101.088" y="-383.408"/>
      <point x="-19" y="-409" type="curve" smooth="yes"/>
      <point x="-80" y="-422" type="line" smooth="yes"/>
      <point x="-309.997" y="-471.016"/>
      <point x="-395" y="-496"/>
      <point x="-395" y="-600" type="curve"/>
      <point x="-395" y="-601" type="line"/>
      <point x="-395" y="-712"/>
      <point x="-269" y="-775"/>
      <point x="-75" y="-775" type="curve" smooth="yes"/>
      <point x="164" y="-775"/>
      <point x="285" y="-678"/>
      <point x="285" y="-486" type="curve" smooth="yes"/>
      <point x="285" y="-480" type="line" smooth="yes"/>
      <point x="285" y="-406"/>
      <point x="265" y="-345"/>
      <point x="227" y="-297" type="curve" smooth="yes"/>
      <point x="225.652" y="-295.314"/>
      <point x="220.319" y="-288.649"/>
      <point x="219" y="-287" type="curve"/>
      <point x="161" y="-222"/>
      <point x="68.0039" y="-185.138"/>
      <point x="-59" y="-185" type="curve" smooth="yes"/>
      <point x="-253.999" y="-184.789"/>
      <point x="-364" y="-257"/>
      <point x="-364" y="-388" type="curve" smooth="yes"/>
      <point x="-364" y="-401" type="line"/>
      <point x="-329" y="-401" type="line"/>
      <point x="-329" y="-388" type="line" smooth="yes"/>
      <point x="-329" y="-276"/>
      <point x="-236" y="-218"/>
      <point x="-59" y="-218" type="curve" smooth="yes"/>
      <point x="144" y="-218"/>
      <point x="250" y="-313"/>
    </contour>
    <contour>
      <point x="275" y="-147" type="curve" smooth="yes"/>
      <point x="275" y="-144" type="line" smooth="yes"/>
      <point x="275" y="59.4379"/>
      <point x="174" y="172"/>
      <point x="-7" y="172" type="curve" smooth="yes"/>
      <point x="-21" y="172"/>
      <point x="-37" y="171"/>
      <point x="-50" y="170" type="curve"/>
      <point x="-50" y="137" type="line"/>
      <point x="-37" y="138"/>
      <point x="-21" y="139"/>
      <point x="-7" y="139" type="curve" smooth="yes"/>
      <point x="152" y="139"/>
      <point x="240" y="38.4338"/>
      <point x="240" y="-143" type="curve" smooth="yes"/>
      <point x="240" y="-147" type="line" smooth="yes"/>
      <point x="240" y="-209"/>
      <point x="226" y="-260"/>
      <point x="201" y="-296" type="curve"/>
      <point x="226" y="-317" type="line"/>
      <point x="258" y="-271"/>
      <point x="275" y="-217"/>
    </contour>
  </outline>
  <guideline angle="90" x="282" y="0"/>
  <guideline angle="90" x="238" y="0"/>
</glyph>
<glyph name="TaYasmall.kn" format="2">
  <advance width="353"/>
  <outline>
    <contour>
      <point x="-154" y="-610" type="line"/>
      <point x="-279" y="-647"/>
      <point x="-327" y="-685"/>
      <point x="-327" y="-760" type="curve" smooth="yes"/>
      <point x="-327" y="-875"/>
      <point x="-212" y="-925"/>
      <point x="5" y="-925" type="curve" smooth="yes"/>
      <point x="256" y="-925"/>
      <point x="392" y="-828"/>
      <point x="392" y="-643" type="curve"/>
      <point x="392" y="-641" type="line"/>
      <point x="392" y="-332"/>
      <point x="108" y="-203"/>
      <point x="108" y="21" type="curve"/>
      <point x="108" y="23" type="line"/>
      <point x="108" y="106"/>
      <point x="153" y="149"/>
      <point x="239" y="149" type="curve" smooth="yes"/>
      <point x="293" y="149"/>
      <point x="338" y="133"/>
      <point x="367" y="112" type="curve"/>
      <point x="361" y="152" type="line"/>
      <point x="328" y="171"/>
      <point x="285" y="182"/>
      <point x="237" y="182" type="curve" smooth="yes"/>
      <point x="135" y="182"/>
      <point x="73" y="124"/>
      <point x="73" y="23" type="curve"/>
      <point x="73" y="21" type="line"/>
      <point x="73" y="-218"/>
      <point x="357" y="-345"/>
      <point x="357" y="-641" type="curve"/>
      <point x="357" y="-643" type="line"/>
      <point x="357" y="-808"/>
      <point x="237" y="-892"/>
      <point x="7" y="-892" type="curve" smooth="yes"/>
      <point x="-193" y="-892"/>
      <point x="-292" y="-853"/>
      <point x="-292" y="-760" type="curve" smooth="yes"/>
      <point x="-292" y="-697"/>
      <point x="-250" y="-665"/>
      <point x="-145" y="-632" type="curve"/>
    </contour>
    <contour>
      <point x="-278" y="-651" type="line" smooth="yes"/>
      <point x="-94.5479" y="-651"/>
      <point x="10" y="-566.972"/>
      <point x="10" y="-422" type="curve" smooth="yes"/>
      <point x="10" y="-418" type="line" smooth="yes"/>
      <point x="10" y="-273.661"/>
      <point x="-94.5479" y="-190"/>
      <point x="-278" y="-190" type="curve" smooth="yes"/>
      <point x="-461.452" y="-190"/>
      <point x="-566" y="-273.661"/>
      <point x="-566" y="-418" type="curve" smooth="yes"/>
      <point x="-566" y="-422" type="line" smooth="yes"/>
      <point x="-566" y="-520.411"/>
      <point x="-512.497" y="-590.575"/>
      <point x="-423" y="-617" type="curve"/>
      <point x="-423" y="-618" type="line"/>
      <point x="-1169" y="-618" type="line"/>
      <point x="-1163" y="-651" type="line"/>
    </contour>
    <contour>
      <point x="-278" y="-224" type="curve" smooth="yes"/>
      <point x="-114.594" y="-224"/>
      <point x="-26" y="-292.864"/>
      <point x="-26" y="-417" type="curve" smooth="yes"/>
      <point x="-26" y="-422" type="line" smooth="yes"/>
      <point x="-26" y="-547.748"/>
      <point x="-114.594" y="-617"/>
      <point x="-278" y="-617" type="curve" smooth="yes"/>
      <point x="-441.406" y="-617"/>
      <point x="-530" y="-547.748"/>
      <point x="-530" y="-422" type="curve" smooth="yes"/>
      <point x="-530" y="-417" type="line" smooth="yes"/>
      <point x="-530" y="-292.864"/>
      <point x="-441.406" y="-224"/>
    </contour>
  </outline>
</glyph>
<glyph name="ThamatraI.kn" format="2">
  <advance width="2000"/>
  <outline>
    <contour>
      <point x="1000" y="-383" type="curve" smooth="yes"/>
      <point x="1021" y="-383"/>
      <point x="1029" y="-368"/>
      <point x="1029" y="-336" type="curve" smooth="yes"/>
      <point x="1029" y="-269" type="line" smooth="yes"/>
      <point x="1029" y="-98"/>
      <point x="1022" y="16"/>
      <point x="1000" y="111" type="curve"/>
      <point x="979" y="16"/>
      <point x="972" y="-98"/>
      <point x="972" y="-269" type="curve" smooth="yes"/>
      <point x="972" y="-336" type="line" smooth="yes"/>
      <point x="972" y="-368"/>
      <point x="980" y="-383"/>
    </contour>
    <contour>
      <point x="1000" y="1124" type="curve" smooth="yes"/>
      <point x="689" y="1124"/>
      <point x="463" y="1047"/>
      <point x="325" y="901" type="curve"/>
      <point x="315" y="892" type="line"/>
      <point x="216" y="782"/>
      <point x="166" y="624"/>
      <point x="166" y="438" type="curve" smooth="yes"/>
      <point x="166" y="428" type="line" smooth="yes"/>
      <point x="166" y="127"/>
      <point x="310" y="-30"/>
      <point x="591" y="-30" type="curve" smooth="yes"/>
      <point x="856" y="-30"/>
      <point x="981" y="108"/>
      <point x="999" y="323" type="curve"/>
      <point x="1001" y="323" type="line"/>
      <point x="1019" y="108"/>
      <point x="1144" y="-30"/>
      <point x="1409" y="-30" type="curve" smooth="yes"/>
      <point x="1690" y="-30"/>
      <point x="1834" y="127"/>
      <point x="1834" y="428" type="curve" smooth="yes"/>
      <point x="1834" y="453" type="line"/>
      <point x="1803" y="697" type="line"/>
      <point x="1789" y="696" type="line"/>
      <point x="1694" y="976"/>
      <point x="1428" y="1124"/>
    </contour>
    <contour>
      <point x="981" y="451" type="line"/>
      <point x="980" y="419" type="line" smooth="yes"/>
      <point x="971.271" y="139.666"/>
      <point x="849" y="5"/>
      <point x="592" y="5" type="curve" smooth="yes"/>
      <point x="336" y="5"/>
      <point x="204" y="147.663"/>
      <point x="204" y="428" type="curve" smooth="yes"/>
      <point x="204" y="438" type="line" smooth="yes"/>
      <point x="204" y="857.356"/>
      <point x="478" y="1089"/>
      <point x="1000" y="1089" type="curve" smooth="yes"/>
      <point x="1522" y="1089"/>
      <point x="1796" y="865.346"/>
      <point x="1796" y="443" type="curve" smooth="yes"/>
      <point x="1796" y="428" type="line" smooth="yes"/>
      <point x="1796" y="147.663"/>
      <point x="1664" y="5"/>
      <point x="1408" y="5" type="curve" smooth="yes"/>
      <point x="1151" y="5"/>
      <point x="1028.73" y="139.666"/>
      <point x="1020" y="419" type="curve" smooth="yes"/>
      <point x="1019" y="451" type="line"/>
    </contour>
    <contour>
      <point x="1001" y="897" type="curve" smooth="yes"/>
      <point x="975" y="897"/>
      <point x="972" y="868"/>
      <point x="972" y="758" type="curve" smooth="yes"/>
      <point x="972" y="742" type="line" smooth="yes"/>
      <point x="972" y="632"/>
      <point x="975" y="603"/>
      <point x="1001" y="603" type="curve" smooth="yes"/>
      <point x="1027" y="603"/>
      <point x="1031" y="632"/>
      <point x="1031" y="742" type="curve" smooth="yes"/>
      <point x="1031" y="758" type="line" smooth="yes"/>
      <point x="1031" y="868"/>
      <point x="1027" y="897"/>
    </contour>
    <contour>
      <point x="839" y="1495" type="curve" smooth="yes"/>
      <point x="398" y="1495"/>
      <point x="170" y="1368"/>
      <point x="170" y="1122" type="curve" smooth="yes"/>
      <point x="170" y="999"/>
      <point x="232" y="905"/>
      <point x="335" y="873" type="curve"/>
      <point x="355" y="901" type="line"/>
      <point x="261" y="934"/>
      <point x="207" y="1014"/>
      <point x="207" y="1121" type="curve" smooth="yes"/>
      <point x="207" y="1343.34"/>
      <point x="425" y="1460"/>
      <point x="839" y="1460" type="curve" smooth="yes"/>
      <point x="1475" y="1460"/>
      <point x="1803" y="1171.29"/>
      <point x="1803" y="472" type="curve" smooth="yes"/>
      <point x="1803" y="439" type="line"/>
      <point x="1834" y="449" type="line"/>
      <point x="1834" y="466" type="line" smooth="yes"/>
      <point x="1834" y="1181"/>
      <point x="1521" y="1495"/>
    </contour>
  </outline>
  <guideline angle="90" x="1269" y="0"/>
  <guideline angle="90" x="166" y="0"/>
</glyph>
<glyph name="Thasmall1.kn" format="2">
  <outline>
    <contour>
      <point x="-345" y="-529" type="line"/>
      <point x="-346" y="-544" type="line" smooth="yes"/>
      <point x="-354.602" y="-673.027"/>
      <point x="-422" y="-742"/>
      <point x="-554" y="-742" type="curve" smooth="yes"/>
      <point x="-690" y="-742"/>
      <point x="-765" y="-668"/>
      <point x="-765" y="-536" type="curve" smooth="yes"/>
      <point x="-765" y="-526" type="line" smooth="yes"/>
      <point x="-765" y="-328"/>
      <point x="-608" y="-223"/>
      <point x="-329" y="-223" type="curve" smooth="yes"/>
      <point x="-49" y="-223"/>
      <point x="108" y="-328"/>
      <point x="108" y="-526" type="curve" smooth="yes"/>
      <point x="108" y="-536" type="line" smooth="yes"/>
      <point x="108" y="-668"/>
      <point x="33" y="-742"/>
      <point x="-103" y="-742" type="curve" smooth="yes"/>
      <point x="-235" y="-742"/>
      <point x="-302.398" y="-673.027"/>
      <point x="-311" y="-544" type="curve" smooth="yes"/>
      <point x="-312" y="-529" type="line"/>
    </contour>
    <contour>
      <point x="-329" y="-190" type="curve" smooth="yes"/>
      <point x="-630" y="-190"/>
      <point x="-800" y="-306"/>
      <point x="-800" y="-526" type="curve" smooth="yes"/>
      <point x="-800" y="-536" type="line" smooth="yes"/>
      <point x="-800" y="-690"/>
      <point x="-713" y="-775"/>
      <point x="-554" y="-775" type="curve" smooth="yes"/>
      <point x="-430" y="-775"/>
      <point x="-351" y="-719"/>
      <point x="-330" y="-615" type="curve"/>
      <point x="-328" y="-615" type="line"/>
      <point x="-307" y="-719"/>
      <point x="-228" y="-775"/>
      <point x="-103" y="-775" type="curve" smooth="yes"/>
      <point x="56" y="-775"/>
      <point x="143" y="-690"/>
      <point x="143" y="-536" type="curve" smooth="yes"/>
      <point x="143" y="-526" type="line" smooth="yes"/>
      <point x="143" y="-306"/>
      <point x="-27" y="-190"/>
    </contour>
    <contour>
      <point x="-329" y="-327" type="curve" smooth="yes"/>
      <point x="-350" y="-327"/>
      <point x="-358" y="-339"/>
      <point x="-358" y="-387" type="curve" smooth="yes"/>
      <point x="-358" y="-395" type="line" smooth="yes"/>
      <point x="-358" y="-443"/>
      <point x="-350" y="-454"/>
      <point x="-329" y="-454" type="curve" smooth="yes"/>
      <point x="-308" y="-454"/>
      <point x="-300" y="-443"/>
      <point x="-300" y="-395" type="curve" smooth="yes"/>
      <point x="-300" y="-387" type="line" smooth="yes"/>
      <point x="-300" y="-339"/>
      <point x="-308" y="-327"/>
    </contour>
    <contour>
      <point x="-330" y="-690" type="curve"/>
      <point x="-349" y="-757"/>
      <point x="-352" y="-818"/>
      <point x="-352" y="-899" type="curve" smooth="yes"/>
      <point x="-352" y="-942" type="line" smooth="yes"/>
      <point x="-352" y="-965"/>
      <point x="-346" y="-977"/>
      <point x="-329" y="-977" type="curve" smooth="yes"/>
      <point x="-312" y="-977"/>
      <point x="-306" y="-965"/>
      <point x="-306" y="-942" type="curve" smooth="yes"/>
      <point x="-306" y="-899" type="line" smooth="yes"/>
      <point x="-306" y="-818"/>
      <point x="-312" y="-755"/>
    </contour>
  </outline>
  <guideline angle="90" x="512" y="0"/>
</glyph>
<glyph name="TtaHalant.kn" format="2">
  <advance width="2871"/>
  <outline>
    <component base="Halant.kn" xOffset="2145"/>
    <contour>
      <point x="198" y="290" type="curve" smooth="yes"/>
      <point x="198" y="295" type="line" smooth="yes"/>
      <point x="198" y="483.318"/>
      <point x="336.002" y="569.552"/>
      <point x="585" y="571" type="curve" smooth="yes"/>
      <point x="757" y="572" type="line"/>
      <point x="757" y="604" type="line"/>
      <point x="585" y="605" type="line" smooth="yes"/>
      <point x="339.002" y="606.43"/>
      <point x="203" y="686.686"/>
      <point x="203" y="865" type="curve" smooth="yes"/>
      <point x="203" y="870" type="line" smooth="yes"/>
      <point x="203" y="1020.4"/>
      <point x="325" y="1121"/>
      <point x="559" y="1121" type="curve" smooth="yes"/>
      <point x="697" y="1121"/>
      <point x="805" y="1091"/>
      <point x="881" y="1042" type="curve"/>
      <point x="877" y="1084" type="line"/>
      <point x="800" y="1129"/>
      <point x="692" y="1156"/>
      <point x="558" y="1156" type="curve" smooth="yes"/>
      <point x="299" y="1156"/>
      <point x="165" y="1042"/>
      <point x="165" y="870" type="curve" smooth="yes"/>
      <point x="165" y="865" type="line" smooth="yes"/>
      <point x="165" y="695"/>
      <point x="279" y="603"/>
      <point x="473" y="589" type="curve"/>
      <point x="473" y="588" type="line"/>
      <point x="276" y="575"/>
      <point x="160" y="472"/>
      <point x="160" y="295" type="curve" smooth="yes"/>
      <point x="160" y="290" type="line" smooth="yes"/>
      <point x="160" y="84"/>
      <point x="305" y="-30"/>
      <point x="591" y="-30" type="curve" smooth="yes"/>
      <point x="868" y="-30"/>
      <point x="1000" y="100"/>
      <point x="1021" y="296" type="curve"/>
      <point x="1023" y="296" type="line"/>
      <point x="1044" y="100"/>
      <point x="1176" y="-30"/>
      <point x="1453" y="-30" type="curve" smooth="yes"/>
      <point x="1739" y="-30"/>
      <point x="1884" y="84"/>
      <point x="1884" y="290" type="curve" smooth="yes"/>
      <point x="1884" y="295" type="line" smooth="yes"/>
      <point x="1884" y="472"/>
      <point x="1768" y="575"/>
      <point x="1571" y="588" type="curve"/>
      <point x="1571" y="589" type="line"/>
      <point x="1759" y="602"/>
      <point x="1869" y="688"/>
      <point x="1869" y="845" type="curve"/>
      <point x="1869" y="846" type="line"/>
      <point x="1869" y="961.519"/>
      <point x="1802.58" y="1057.12"/>
      <point x="1659" y="1086" type="curve"/>
      <point x="1659" y="1108" type="line"/>
      <point x="1439" y="1108" type="line"/>
      <point x="1439" y="1089" type="line"/>
      <point x="1703" y="1089"/>
      <point x="1831" y="1006.34"/>
      <point x="1831" y="846" type="curve"/>
      <point x="1831" y="845" type="line"/>
      <point x="1831" y="680.685"/>
      <point x="1699" y="606.395"/>
      <point x="1459" y="605" type="curve" smooth="yes"/>
      <point x="1287" y="604" type="line"/>
      <point x="1287" y="572" type="line"/>
      <point x="1459" y="571" type="line" smooth="yes"/>
      <point x="1708" y="569.552"/>
      <point x="1846" y="483.318"/>
      <point x="1846" y="295" type="curve" smooth="yes"/>
      <point x="1846" y="290" type="line" smooth="yes"/>
      <point x="1846" y="105.647"/>
      <point x="1713" y="5"/>
      <point x="1452" y="5" type="curve" smooth="yes"/>
      <point x="1182" y="5"/>
      <point x="1052.37" y="132.685"/>
      <point x="1042" y="392" type="curve" smooth="yes"/>
      <point x="1041" y="417" type="line"/>
      <point x="1003" y="417" type="line"/>
      <point x="1002" y="392" type="line" smooth="yes"/>
      <point x="991.627" y="132.685"/>
      <point x="862" y="5"/>
      <point x="592" y="5" type="curve" smooth="yes"/>
      <point x="331" y="5"/>
      <point x="198" y="105.647"/>
    </contour>
    <contour>
      <point x="1659" y="1089" type="line"/>
      <point x="1659" y="1122" type="line"/>
      <point x="1195" y="1122" type="line"/>
      <point x="1195" y="1089" type="line"/>
    </contour>
  </outline>
  <guideline angle="90" x="4844" y="0"/>
  <guideline angle="90" x="2825" y="0"/>
</glyph>
<glyph name="TthamatraO.kn" format="2">
  <advance width="3493"/>
  <outline>
    <component base="TthamatraE.kn"/>
    <component base="matraUu.kn" xOffset="1679"/>
    <contour>
      <point x="1469" y="402" type="line"/>
      <point x="1469" y="380" type="line"/>
      <point x="1495" y="380" type="line"/>
      <point x="1495" y="402" type="line"/>
    </contour>
  </outline>
</glyph>
<glyph name="TthamatraU.kn" format="2">
  <advance width="2566"/>
  <outline>
    <component base="Ttha.kn"/>
    <component base="matraU.kn" xOffset="1709"/>
    <contour>
      <point x="1469" y="380" type="line"/>
      <point x="1492" y="380" type="line"/>
      <point x="1492" y="382" type="line"/>
      <point x="1469" y="382" type="line"/>
    </contour>
  </outline>
</glyph>
